<?xml version="1.0" standalone="no"?>
<!DOCTYPE svg PUBLIC "-//W3C//DTD SVG 1.1//EN" "http://www.w3.org/Graphics/SVG/1.1/DTD/svg11.dtd" >
<svg xmlns="http://www.w3.org/2000/svg" xmlns:xlink="http://www.w3.org/1999/xlink" version="1.1">
<metadata>
Created by FontForge 20170731 at Mon Feb  8 22:06:35 1999
 By Aleksey,,,
 
</metadata>
<defs>
<font id="Jikharev" horiz-adv-x="440" >
  <font-face 
    font-family="Jikharev"
    font-weight="400"
    font-stretch="normal"
    units-per-em="1000"
    panose-1="0 0 0 0 0 0 0 0 0 0"
    ascent="800"
    descent="-200"
    x-height="404"
    cap-height="702"
    bbox="-91 -238 1164 859"
    underline-thickness="50"
    underline-position="-155"
    unicode-range="U+0020-2219"
  />
<missing-glyph 
d="M196 42l42 -16l-84 -206l-72 34l114 188v0zM398 361l67 -34l-107 -203q-4 -7 -5 -12t-1 -8q0 -1 0.5 -3t1.5 -4q1 -4 4 -6.5t9 -2.5q9 0 20 5.5l25 12.5l4 2t4 3q1 0 2 0.5t2 1.5q7 3 15.5 7.5t22.5 10.5l-22 -68q-8 -5 -20.5 -12t-26.5 -14q-6 -4 -12 -7t-13 -6
q-21 -10 -41 -17t-31 -7q-3 0 -6.5 0.5t-6.5 1.5q-10 3 -19.5 11.5t-11.5 25.5q-1 2 -1 4.5v5.5v2t1 2v2v2q2 20 16 45t39 61l-4 5q-5 -4 -9.5 -8t-7.5 -7l-2 -2l-1 -1l-10.5 -10.5l-12.5 -12.5q-94 -94 -135.5 -110.5t-52.5 -16.5q-3 0 -8.5 1t-11.5 4q-9 4 -16.5 15
t-7.5 31q0 28 30.5 91.5t136.5 261.5l68 -35l-117 -221l-5.5 -11t-3.5 -10v-1.5v-0.5v-1.5v-1.5q0 -5 2 -7.5t4 -3.5t3 -1h2q11 0 28.5 12.5t65.5 57.5q7 7 14.5 13.5t14.5 13.5q34 32 65.5 67.5t61.5 86.5v0z" />
    <glyph glyph-name=".notdef" 
d="M196 42l42 -16l-84 -206l-72 34l114 188v0zM398 361l67 -34l-107 -203q-4 -7 -5 -12t-1 -8q0 -1 0.5 -3t1.5 -4q1 -4 4 -6.5t9 -2.5q9 0 20 5.5l25 12.5l4 2t4 3q1 0 2 0.5t2 1.5q7 3 15.5 7.5t22.5 10.5l-22 -68q-8 -5 -20.5 -12t-26.5 -14q-6 -4 -12 -7t-13 -6
q-21 -10 -41 -17t-31 -7q-3 0 -6.5 0.5t-6.5 1.5q-10 3 -19.5 11.5t-11.5 25.5q-1 2 -1 4.5v5.5v2t1 2v2v2q2 20 16 45t39 61l-4 5q-5 -4 -9.5 -8t-7.5 -7l-2 -2l-1 -1l-10.5 -10.5l-12.5 -12.5q-94 -94 -135.5 -110.5t-52.5 -16.5q-3 0 -8.5 1t-11.5 4q-9 4 -16.5 15
t-7.5 31q0 28 30.5 91.5t136.5 261.5l68 -35l-117 -221l-5.5 -11t-3.5 -10v-1.5v-0.5v-1.5v-1.5q0 -5 2 -7.5t4 -3.5t3 -1h2q11 0 28.5 12.5t65.5 57.5q7 7 14.5 13.5t14.5 13.5q34 32 65.5 67.5t61.5 86.5v0z" />
    <glyph glyph-name="glyph1" horiz-adv-x="0" 
 />
    <glyph glyph-name="glyph2" horiz-adv-x="351" 
 />
    <glyph glyph-name="glyph3" unicode=" " horiz-adv-x="351" 
 />
    <glyph glyph-name="glyph4" unicode="!" horiz-adv-x="406" 
d="M172 93h34q2 0 5.5 -0.5t7.5 -1.5q6 -1 11.5 -6t5.5 -16q0 -6 -2 -13t-6 -14q-9 -17 -25 -31.5t-34 -17.5q-2 -1 -4 -1h-4v0v0h-1v0h-6.5t-9.5 2q-7 2 -12.5 7t-5.5 17q0 5 2 11.5t5 16.5t6 17t6 12q8 13 15.5 15.5t11.5 2.5v0v0v0zM458 704l60 -21q1 0 1.5 -0.5
t1.5 -0.5q4 -1 7 -3t4 -7v-2v-2v-0.5v-0.5v-1.5v-1.5q-5 -30 -70 -149t-157 -289q-10 -18 -16 -28.5t-11 -15.5q-3 -4 -6.5 -5.5t-7.5 -2.5q-3 -1 -6 -1h-5h-7.5t-7.5 1q-14 2 -21 7.5t-7 12.5q0 14 22.5 52.5t81.5 170.5q65 145 89.5 210.5t41.5 75.5q2 1 4 1.5t4 0.5h1.5
h1.5l0.5 -0.5t1.5 -0.5v0z" />
    <glyph glyph-name="glyph5" unicode="&#x22;" horiz-adv-x="526" 
d="M335 742l-42 -182h-56l-42 182h140v0zM531 742l-42 -182h-56l-42 182h140v0z" />
    <glyph glyph-name="glyph6" unicode="#" horiz-adv-x="916" 
d="M659 0h-60l27 138h-209l-26 -138h-60l27 138h-130l17 90h130l37 190h-130l18 90h129l26 132h60l-26 -132h208l26 132h60l-26 -132h131l-18 -90h-130l-37 -190h130l-17 -90h-131l-26 -138v0zM643 228l37 190h-208l-37 -190h208v0z" />
    <glyph glyph-name="glyph7" unicode="$" horiz-adv-x="546" 
d="M187 -77l-54 22l41 85q-34 20 -59.5 45t-44.5 54l70 47q11 -22 28 -41.5t40 -33.5l116 241q-48 53 -63 93.5t-15 70.5q0 64 35.5 102t78.5 55q18 7 36.5 10.5t33.5 3.5q5 0 12 -0.5t14 -0.5q2 -1 4 -1h4q6 -1 11.5 -1.5t8.5 -0.5l35 73l53 -21l-34 -70q24 -9 40 -22.5
t26 -28.5q14 -19 19.5 -35.5t6.5 -22.5l-79 -16q-1 22 -13 38.5t-30 23.5l-104 -214q5 -5 9.5 -10t8.5 -10q34 -38 62 -82.5t28 -97.5q0 -74 -61 -126t-154 -52q-17 0 -34.5 2t-36.5 6l-39 -85v0zM366 299l-109 -226q6 -2 12 -3.5t12 -2.5q9 -1 17 -1.5t15 -0.5
q42 0 67 22.5t37 48.5q6 14 8.5 27t2.5 23q0 9 -2 18.5t-6 19.5q-8 21 -22.5 40.5t-31.5 34.5v0zM364 424l89 184q-2 0 -4 0.5t-4 0.5h-5h-4q-40 0 -73 -25t-33 -68q0 -13 4.5 -36.5t29.5 -55.5v0z" />
    <glyph glyph-name="glyph8" unicode="%" horiz-adv-x="714" 
d="M622 659l59 -47q-72 -86 -142.5 -181t-134.5 -192q-49 -75 -92 -148.5t-78 -141.5l-94 26q38 73 76 134.5t76 114.5q43 59 85 110.5t83 102.5q26 31 50.5 62t48.5 64l-4 6q-10 -7 -28.5 -13.5t-50.5 -6.5q-7 0 -14 1.5t-12 3.5q-4 1 -6.5 2t-3.5 2q-5 -49 -36.5 -82
t-68.5 -49q-15 -6 -30 -9.5t-28 -3.5q-41 0 -70 29t-29 83q0 74 58 121t128 52q4 1 8 1h8h4.5h5.5q2 0 4.5 -0.5t4.5 -0.5v-47q-55 -6 -87 -29.5t-47 -50.5q-10 -17 -14 -33.5t-4 -28.5q0 -15 5 -24.5t10 -14.5q3 -2 5.5 -3t4.5 -1q5 0 10.5 0.5t10.5 2.5q28 6 51.5 31.5
t23.5 71.5q0 10 -1.5 18.5t-3.5 13.5q-1 1 -1.5 2.5t-0.5 2.5l61 31q6 -5 11.5 -11.5t9.5 -14.5q14 -7 29.5 -8.5t31.5 -1.5q5 0 9.5 0.5t8.5 1.5q27 4 53 19.5t47 32.5v0zM616 178l70 27q1 -2 2.5 -4.5t3.5 -6.5q3 -6 5.5 -15.5t2.5 -22.5q0 -7 -0.5 -13.5t-1.5 -12.5
q-10 -57 -55 -103.5t-109 -46.5q-45 0 -73 26t-28 72q0 5 0.5 10t0.5 10q9 63 63.5 115.5t138.5 52.5h12t12 -1l3 -47q-58 -6 -91.5 -28t-49.5 -47q-13 -20 -17.5 -37.5t-4.5 -28.5q0 -25 12.5 -37t31.5 -12q31 0 53 30.5t25 67.5q1 3 1 6.5v6.5q0 11 -1.5 20.5t-5.5 18.5v0
z" />
    <glyph glyph-name="glyph9" unicode="&#x26;" horiz-adv-x="756" 
d="M675 325l68 -30q-31 -58 -74.5 -107.5t-91.5 -86.5q8 -12 17.5 -19.5t18.5 -12.5q14 -7 27 -8.5t23 -1.5q18 0 34 4.5t32 14.5l27 -62q-15 -7 -28 -11.5t-26 -5.5q-13 -2 -26 -3t-28 -1q-12 0 -25 0.5t-26 3.5q-24 3 -47.5 15t-43.5 36q-26 -18 -63.5 -34t-77.5 -24
q-16 -3 -31.5 -5t-30.5 -2q-79 0 -135 47t-56 137q0 22 4.5 42.5t15.5 41.5q20 39 70 79.5t144 87.5q-5 20 -7.5 39.5t-2.5 36.5q0 79 41 127.5t91 62.5q10 3 20 4.5t19 1.5h1.5h1.5q34 -1 62 -29t28 -76q0 -19 -7 -38t-20 -38q-20 -28 -53.5 -56.5t-78.5 -55.5
q6 -25 15 -52t19 -55q13 -34 28.5 -67.5t32.5 -62.5q16 12 36 30t41 42q16 18 32 41t30 50v0zM360 354q-67 -33 -107 -77t-40 -101v-8.5t1 -8.5q4 -37 28 -67.5t76 -30.5q10 0 21 1.5t22 4.5q22 6 42.5 15.5t37.5 19.5q6 4 11 7.5t10 6.5q-17 26 -32.5 56t-28.5 61
q-13 32 -23.5 63t-17.5 58v0zM429 460q5 2 9.5 5t9.5 7q19 14 37 33.5t26 40.5q2 7 3.5 13.5t1.5 12.5q0 17 -8.5 26t-18.5 12q-3 1 -5.5 1.5t-5.5 0.5q-22 0 -39.5 -25t-17.5 -69q0 -13 2 -27.5t6 -30.5v0z" />
    <glyph glyph-name="glyph10" unicode="'" horiz-adv-x="330" 
d="M335 700l-42 -182h-56l-42 182h140v0z" />
    <glyph glyph-name="glyph11" unicode="(" horiz-adv-x="532" 
d="M270 -167l-89 -32q-2 10 -4 19.5t-4 18.5q-3 21 -4 43t-1 48q0 210 129.5 395t284.5 321q15 14 30 26.5t30 24.5l44 -54q-15 -12 -31 -25t-31 -28q-131 -117 -241.5 -285t-120.5 -346q-1 -8 -1 -16v-16q0 -23 2.5 -46.5t6.5 -46.5v-1z" />
    <glyph glyph-name="glyph12" unicode=")" horiz-adv-x="532" 
d="M415 665l89 32q8 -29 11 -59.5t3 -67.5q0 -204 -124.5 -384.5t-273.5 -316.5q-19 -17 -38.5 -34t-38.5 -33l-43 54q16 14 32 27.5t32 28.5q133 120 244.5 292t115.5 354v7.5v6.5q0 23 -2 46.5t-7 46.5v0z" />
    <glyph glyph-name="glyph13" unicode="*" horiz-adv-x="398" 
d="M367 705l40 -3q6 0 8.5 -3.5t3.5 -7.5q1 -2 1 -3.5v-3.5v-1.5v-1.5q0 -4 -1 -8t-2 -7l-2 -6l-2 -6q-2 -4 -3.5 -8t-2.5 -9q0 -2 -0.5 -3.5t-0.5 -3.5q-2 -5 -2.5 -10t-0.5 -11q0 -5 1 -7.5t7 -2.5q7 0 12.5 1t11.5 3q1 1 3 1.5t4 1.5q21 8 26.5 12.5t8.5 6.5q1 1 3 1.5
t5 0.5h1.5h1.5q4 0 7.5 -1.5t4.5 -6.5l10 -51q1 -2 1 -3.5t-1 -3.5q0 -1 -0.5 -2l-1.5 -3q-2 -2 -4.5 -4t-7.5 -2h-2.5h-2.5h-3h-3q-6 1 -11 1t-9 1h-5h-5h-6.5h-11.5q-7 -1 -12.5 -1.5t-5.5 -1.5q0 -3 4.5 -9.5t14.5 -20.5q16 -19 23 -24.5t9 -7.5q0 -1 0.5 -2t0.5 -2
q0 -5 -2.5 -8.5t-6.5 -5.5l-35 -26q-10 -8 -15.5 -3t-10.5 19q-2 4 -3 9t-3 11q-1 3 -2.5 8.5t-3.5 10.5t-3.5 10t-3.5 8l-3.5 3.5t-2.5 1.5q-3 0 -6.5 -4t-6.5 -10q-3 -4 -5.5 -9t-4.5 -10q-1 -2 -2 -5t-2 -5q-9 -24 -15 -28.5t-12 -1.5q-1 0 -2 0.5t-2 1.5l-37 23
l-3.5 3.5t-2.5 3.5q0 1 -0.5 3t-0.5 3v0.5v1.5q0 3 5 7.5t19 16.5q3 2 8 7l10 10l2 2l2 2q6 7 11 12.5t5 8.5q0 4 -8.5 7t-24.5 4q-22 1 -37 4t-15 13v1.5v1.5l0.5 0.5t0.5 1.5l15 43q1 3 3 5t5 2q1 1 1.5 1h1.5q2 0 7.5 -2t20.5 -12q2 -2 7 -4.5l11 -5.5q1 0 2.5 -0.5
t2.5 -1.5q7 -4 14 -6.5t9 -2.5q1 0 1.5 1t0.5 3v0.5v0.5q1 1 1 1.5v0.5q1 5 1.5 9t0.5 8q0 5 -0.5 10t-1.5 9t-2 8.5t-1 9.5l-1 1v1q-1 4 -1.5 8.5t-1.5 8.5q0 1 -0.5 2.5t-0.5 2.5t0.5 2.5t0.5 2.5t0.5 2.5t1.5 2.5q2 3 5.5 5t9.5 2h0.5h0.5h0.5h0.5v0z" />
    <glyph glyph-name="glyph14" unicode="+" horiz-adv-x="672" 
d="M175 350h224v224h56v-224h224v-56h-224v-224h-56v224h-224v56v0z" />
    <glyph glyph-name="glyph15" unicode="," horiz-adv-x="350" 
d="M183 98l31 -3h0.5h0.5q2 0 4.5 -0.5t5.5 -1.5q5 -1 9 -5t4 -12q0 -12 -10.5 -32t-27.5 -41q-8 -10 -16.5 -20.5t-17.5 -19.5q-18 -19 -35 -32t-27 -13q-9 0 -13.5 3t-8.5 7l-1 1l-1 1l-1.5 1.5l-0.5 0.5q-3 3 -5 6t-3 8v2.5v3.5q0 1 0.5 2t0.5 2q5 9 19 23t36 51
q8 15 13.5 28t9.5 22q5 9 9.5 14t12.5 5h2h2h0.5h1.5q1 -1 2.5 -1h3.5v0z" />
    <glyph glyph-name="glyph16" unicode="-" horiz-adv-x="406" 
d="M116 199l26 38q2 3 4 5.5t5 4.5q5 4 10.5 4.5t12.5 0.5h1.5h1.5h13.5h12.5q6 -1 12.5 -1h13.5q20 0 43.5 2t61.5 6q17 2 24 3t13 1q1 1 2.5 1h2.5h1.5h1.5h0.5h0.5h2h2q3 -1 4.5 -2.5t2.5 -3.5q0 -1 0.5 -2t0.5 -2q0 -37 -21.5 -54t-47.5 -23q-15 -3 -29.5 -4t-24.5 -1
h-14h-14q-15 0 -29 0.5t-29 -0.5h-14h-15h-3.5h-3.5h-3.5h-3.5t-4 0.5t-4 0.5q-7 1 -13.5 4t-6.5 10q0 3 1.5 6t2.5 6v0z" />
    <glyph glyph-name="glyph17" unicode="." horiz-adv-x="350" 
d="M273 93h34h0.5h0.5h6t8 -2q6 -1 11 -6t5 -16q0 -6 -2 -13t-6 -14q-9 -18 -26.5 -32.5t-36.5 -17.5h-2.5h-2.5v0v0h-1v0q-2 0 -7 0.5t-10 1.5q-7 3 -12.5 8t-5.5 16q0 6 1.5 14t4.5 17q5 16 16 30t25 14v0z" />
    <glyph glyph-name="glyph18" unicode="/" horiz-adv-x="504" 
d="M595 700l49 -35q-40 -49 -69.5 -86.5t-56.5 -72.5q-2 -3 -4 -5t-4 -5q-16 -21 -33 -44t-36 -48q-47 -63 -130.5 -178.5t-174.5 -260.5q-27 -41 -53 -85t-51 -89l-88 34q161 240 301 424t216 280q8 10 15 19.5t15 18.5q18 24 41 52.5t63 80.5v0z" />
    <glyph glyph-name="glyph19" unicode="0" horiz-adv-x="504" 
d="M320 476l-29 78q53 50 95 59.5t62 9.5q74 0 105.5 -53.5t31.5 -124.5q0 -38 -14.5 -88t-40.5 -102q-49 -100 -130 -182.5t-173 -82.5q-76 0 -108 44t-32 114q0 12 1 23.5t2 23.5q11 87 54 170.5t97 148.5l75 -67q-5 -6 -10.5 -12.5t-11.5 -12.5q-27 -35 -53 -78t-44 -88
q-13 -33 -20.5 -64.5t-7.5 -59.5q0 -42 20.5 -60t47.5 -18q18 0 37.5 11t39.5 30q34 32 67 83.5t59 106.5q25 53 40 103.5t15 83.5q0 41 -18.5 60.5t-41.5 19.5q-11 0 -23 -3.5t-23 -9.5q-18 -9 -35 -25t-34 -38v0z" />
    <glyph glyph-name="glyph20" unicode="1" horiz-adv-x="503" 
d="M320 415l-21 53q58 16 123 54t144 112l54 -37q-32 -58 -54 -94.5t-41 -68.5q-1 -1 -2 -2.5t-2 -2.5q-1 -3 -3 -6l-4 -6q-32 -53 -88.5 -149t-117.5 -213q-8 -16 -17 -32.5t-17 -32.5l-86 25q68 137 112.5 210.5t84.5 132.5q1 1 2.5 3t2.5 4q1 1 1.5 2t1.5 2q14 21 24 35
t18 27q1 1 1.5 2t1.5 2q5 8 10.5 17t12.5 20q-19 -10 -35.5 -18t-31.5 -14q-11 -5 -23 -9t-25 -8q-6 -2 -12.5 -4t-13.5 -4v0z" />
    <glyph glyph-name="glyph21" unicode="2" horiz-adv-x="504" 
d="M431 154l62 -55q-26 -33 -51 -55t-49 -33q-13 -5 -25 -8t-25 -3q-30 0 -59 10.5t-58 26.5q-28 17 -51.5 26.5t-40.5 9.5q-4 0 -8 -1.5t-8 -3.5t-8 -4.5t-8 -5.5q-2 -2 -4.5 -4t-4.5 -4l-61 53q13 16 24 25t22 15q5 3 11 5t13 4q13 4 28.5 9.5t35.5 17.5q46 27 88 57
t78 60q81 68 128 129.5t47 90.5q0 4 -0.5 8t-0.5 8q-3 14 -12 25.5t-30 11.5q-31 0 -60 -24.5t-51 -53.5q-13 -18 -23 -34.5t-16 -27.5l-68 49q3 5 6 10.5t6 11.5q32 52 86 95.5t133 43.5q52 0 77 -20t35 -44q5 -13 6.5 -25t1.5 -21q0 -33 -16.5 -68t-45.5 -71
q-39 -50 -95.5 -98.5t-116.5 -89.5q-31 -22 -62.5 -41t-60.5 -34q21 -8 32 -12.5t19 -8.5q1 0 1 -0.5v-0.5q3 -1 5.5 -2.5t5.5 -2.5q17 -10 34.5 -16.5t33.5 -6.5q21 0 42 15.5t37 33.5q6 8 11.5 15t9.5 13v0z" />
    <glyph glyph-name="glyph22" unicode="3" horiz-adv-x="503" 
d="M37 16l22 59q23 -7 46.5 -10t45.5 -3q110 1 190.5 62t80.5 136q0 20 -12.5 36.5t-48.5 16.5q-17 0 -30 -4.5t-25 -9.5q-9 -3 -14.5 -5t-9.5 -4h-1.5t-0.5 -1q-3 -1 -6.5 -2t-7.5 -2l-29 61q51 19 91 41.5t68 46.5q33 27 50 53t17 46q0 17 -9.5 27t-25.5 10
q-17 0 -35.5 -9t-37.5 -24q-16 -11 -31 -24.5t-28 -28.5q-8 -7 -15 -15t-14 -15l-61 56q79 77 132.5 101t99.5 24q55 0 86.5 -27.5t31.5 -74.5q0 -49 -33 -85t-73 -59q-13 -7 -25.5 -13t-24.5 -11v-11q5 1 9.5 1.5t8.5 0.5q6 0 11.5 -0.5t11.5 -2.5q30 -6 55 -30t25 -65
q0 -21 -7.5 -45.5t-22.5 -50.5q-37 -63 -119 -115t-205 -52q-37 0 -69.5 5.5t-60.5 15.5v0z" />
    <glyph glyph-name="glyph23" unicode="4" horiz-adv-x="504" 
d="M278 643l77 -38q-6 -10 -14 -24.5t-17 -31.5l-8 -16t-7 -16q-11 -24 -18.5 -46t-7.5 -37v0v-1q0 -3 0.5 -9t2.5 -12q3 -10 12.5 -17.5t29.5 -7.5q65 0 119 66t95 145q2 4 3.5 7.5t3.5 6.5l76 -45q-34 -56 -58 -97.5t-45 -80.5q-2 -4 -4 -7.5t-4 -7.5q-12 -22 -24 -44.5
t-26 -48.5q-8 -15 -15.5 -29t-14.5 -27l-7.5 -15t-7.5 -14q-21 -40 -42.5 -86t-46.5 -110l-83 27q29 70 54 120.5t50 91.5q9 16 19 31.5t19 30.5q12 17 23.5 34.5t23.5 36.5l-7 3l-2 -2l-2 -2l-4.5 -4.5t-5.5 -4.5q-5 -3 -11 -6.5t-15 -8.5q-1 -1 -2.5 -1.5t-2.5 -1.5
q-21 -11 -44.5 -20.5t-56.5 -9.5q-44 0 -68.5 26.5t-24.5 65.5q0 27 8.5 59.5t22.5 65.5q11 27 24.5 53t27.5 50q1 2 2.5 4.5t2.5 4.5v0z" />
    <glyph glyph-name="glyph24" unicode="5" horiz-adv-x="504" 
d="M37 -6l3 63q19 -3 37.5 -4.5t34.5 -1.5q102 0 167.5 45.5t95.5 100.5q14 24 20.5 47.5t6.5 42.5q0 26 -15 42t-44 16q-12 0 -27 -3t-30 -8q-14 -5 -27.5 -12t-25.5 -16l-56 33q11 27 19 47.5t16 39.5l8 20l8 20q8 19 15 36t14 33q9 21 18 43t21 50q16 -2 38 -4t45 -3
q27 -1 51.5 -2t40.5 -1q14 0 30.5 3t34.5 13q7 5 15 11t15 15l71 -56q-23 -30 -58 -48t-97 -18q-14 0 -31 1t-35 2l-26 2t-25 2q-5 0 -10 1t-10 1q-5 -11 -8.5 -18.5t-6.5 -13.5v0l-1 -1q-1 -4 -3 -8t-5 -9q-1 -3 -2.5 -6l-3.5 -7q-7 -15 -15.5 -34.5t-26.5 -58.5l3 -4
q18 7 32.5 12.5t29.5 8.5q10 3 21 4t23 1q59 0 90 -36.5t31 -93.5q0 -18 -3.5 -36t-10.5 -37q-31 -83 -123.5 -152t-227.5 -69q-13 0 -29.5 0.5t-33.5 1.5q-9 1 -19 2t-19 2v-1z" />
    <glyph glyph-name="glyph25" unicode="6" horiz-adv-x="504" 
d="M552 653l33 -61q-90 -36 -156 -85t-111 -100q-22 -26 -40 -51t-31 -48l9 -3q38 32 68 41.5t55 9.5q64 0 96.5 -35.5t32.5 -94.5v-2.5v-3.5q-3 -88 -78 -161.5t-171 -73.5q-84 0 -127 38t-43 100q0 49 26 115.5t76 135.5q59 80 149.5 155t211.5 124v0zM260 46q3 0 6.5 0.5
t6.5 0.5q44 7 83 51t51 95q2 9 3 17.5t1 17.5q0 29 -18.5 44t-50.5 15q-12 0 -25 -3.5t-26 -10.5q-40 -19 -72.5 -58.5t-32.5 -83.5q0 -39 20 -62t54 -23v0z" />
    <glyph glyph-name="glyph26" unicode="7" horiz-adv-x="505" 
d="M616 575l-236 -284q6 0 12.5 -0.5t12.5 -0.5q26 -3 51.5 -10.5t43.5 -19.5l-27 -52q-3 1 -7 2t-9 3q-12 3 -30 5.5t-40 2.5q-13 0 -26.5 -1t-29.5 -4q-2 -3 -4.5 -6t-4.5 -6q-18 -24 -34.5 -48t-32.5 -50q-17 -28 -34 -58.5t-36 -65.5l-92 37l23 34.5t36 54.5l1.5 1.5
t0.5 1.5q19 26 35 50t24 34q-2 4 -4 9t-3 9q-3 10 -4.5 19.5t-1.5 15.5q0 12 16.5 21.5t35.5 14.5q13 3 24.5 5t18.5 3q22 27 43 51.5t41 47.5q16 17 32 34.5t33 34.5l40.5 40.5t43.5 42.5l-5 7q-50 -23 -95 -34t-85 -11q-79 0 -117.5 29.5t-37.5 69.5q0 11 2.5 21.5
t7.5 20.5l83 -11q0 -1 -0.5 -2.5t-0.5 -2.5v-2.5v-2.5v-1.5v-1.5q1 -16 22 -30t84 -14q20 0 43.5 3.5t47.5 10.5q22 6 44.5 13.5t41.5 16.5l53 -47v0z" />
    <glyph glyph-name="glyph27" unicode="8" horiz-adv-x="503" 
d="M377 651l42 -65q-5 -3 -9 -5.5t-9 -4.5q-37 -23 -60 -48.5t-23 -63.5v-8.5t1 -9.5q2 -18 6.5 -35.5t9.5 -31.5q2 -3 3.5 -6.5t2.5 -6.5q15 7 32.5 16t35.5 20q20 11 39 24t34 26q17 14 28 28.5t11 26.5q0 15 -8.5 23t-19.5 12q-5 2 -10.5 2.5t-9.5 0.5h-5.5h-5.5
q-5 0 -9 -0.5t-8 -0.5l-3 71q12 2 23 3t21 1q59 0 89.5 -28t38.5 -61q2 -6 2.5 -12.5t0.5 -12.5q0 -43 -33.5 -77t-87.5 -66q-27 -17 -58.5 -34t-64.5 -35q22 -46 32.5 -80.5t10.5 -63.5q0 -68 -54 -109t-119 -47q-6 -1 -11 -1h-10q-73 0 -119.5 34t-46.5 92q0 48 45 99
t169 111q-22 50 -32.5 79.5t-10.5 54.5q0 54 28.5 92.5t63.5 63.5q15 11 30.5 19t27.5 14v0zM301 253q-7 -4 -13.5 -7.5t-13.5 -7.5q-44 -26 -80.5 -54.5t-36.5 -64.5q0 -21 17.5 -37.5t47.5 -16.5q7 0 14.5 1t14.5 2q31 7 57.5 28.5t26.5 54.5q0 18 -8 41.5t-26 60.5v0z
" />
    <glyph glyph-name="glyph28" unicode="9" horiz-adv-x="504" 
d="M123 -23l-34 61q122 47 202.5 120.5t136.5 162.5l-9 3q-38 -31 -68.5 -41t-54.5 -10q-63 0 -92 32.5t-36 70.5q-1 7 -1.5 14t-0.5 14q0 20 5.5 42.5t17.5 46.5q27 57 85 105t142 48q70 0 119.5 -32.5t49.5 -106.5q0 -50 -24.5 -115t-73.5 -133q-58 -80 -149 -155.5
t-215 -125.5v-1zM415 583q-46 0 -86 -40.5t-56 -88.5q-5 -13 -7.5 -26.5t-2.5 -25.5q0 -30 19 -43.5t41 -16.5h5.5h4.5q12 0 26.5 4.5t29.5 12.5q34 19 63 53t36 70q0 4 0.5 8t0.5 8q0 40 -19.5 62.5t-54.5 22.5v0z" />
    <glyph glyph-name="glyph29" unicode=":" horiz-adv-x="350" 
d="M173 93h34h0.5h0.5h6t8 -2q6 -1 11 -6t5 -16q0 -6 -2 -13t-6 -14q-9 -18 -26.5 -32.5t-36.5 -17.5h-2.5h-2.5v0v0h-1v0q-2 0 -7 0.5t-10 1.5q-7 3 -12.5 8t-5.5 16q0 6 1.5 14t4.5 17q5 16 15.5 30t25.5 14v0zM299 373h34h0.5h0.5h6t8 -2q6 -1 11 -6t5 -16q0 -6 -2 -13
t-6 -14q-9 -18 -26.5 -33t-36.5 -18h-2.5h-2.5v0v0h-1v0q-2 0 -7 0.5t-10 1.5q-7 3 -12.5 8.5t-5.5 16.5q0 6 1.5 14t4.5 17q5 16 15.5 30t25.5 14v0z" />
    <glyph glyph-name="glyph30" unicode=";" horiz-adv-x="350" 
d="M183 98l31 -3h0.5h0.5q2 0 4.5 -0.5t5.5 -1.5q5 -1 9 -5t4 -12q0 -11 -11 -31.5t-27 -42.5q-8 -11 -17 -22t-19 -20q-17 -18 -32.5 -30t-26.5 -12q-10 0 -15.5 3.5t-9.5 8.5l-1.5 1.5l-0.5 0.5q-3 3 -5 6t-3 8v2.5v3.5q1 5 3 9t6 8q9 11 26.5 29.5t42.5 75.5q1 1 1.5 2.5
t0.5 2.5v0.5t1 0.5q2 7 6.5 13t13.5 6h3.5h2.5q2 -1 3.5 -1h2.5v0zM299 373h34h0.5h0.5h6t8 -2q6 -1 11 -6t5 -16q0 -6 -2 -13t-6 -14q-9 -18 -26.5 -33t-36.5 -18h-2.5h-2.5v0v0h-1v0q-2 0 -7 0.5t-10 1.5q-7 3 -12.5 8.5t-5.5 16.5q0 6 1.5 14t4.5 17q5 16 15.5 30
t25.5 14v0z" />
    <glyph glyph-name="glyph31" unicode="&#x3c;" horiz-adv-x="645" 
d="M164 356l458 265l34 -59l-407 -235l407 -235l-34 -60l-458 265v59v0z" />
    <glyph glyph-name="glyph32" unicode="=" horiz-adv-x="672" 
d="M175 266h504v-56h-504v56v0zM175 434h504v-56h-504v56v0z" />
    <glyph glyph-name="glyph33" unicode="&#x3e;" horiz-adv-x="645" 
d="M681 297l-458 -265l-34 60l407 235l-407 235l34 59l458 -265v-59v0z" />
    <glyph glyph-name="glyph34" unicode="?" horiz-adv-x="434" 
d="M172 93h34q2 0 5.5 -0.5t7.5 -1.5q6 -1 11.5 -6t5.5 -16q0 -6 -2 -13t-6 -14q-9 -17 -25 -31.5t-34 -17.5q-2 -1 -4 -1h-4v0v0h-1v0h-6.5t-9.5 2q-7 2 -12.5 7t-5.5 17q0 5 2 11.5t5 16.5t6 17t6 12q8 13 15.5 15.5t11.5 2.5v0v0v0zM285 510l-40 24q-3 2 -5 4t-4 5l-2 4
t-1 4v4.5v4.5q2 12 12.5 29t27.5 35q29 30 72 55t89 25q59 0 99.5 -40.5t40.5 -105.5q0 -64 -37.5 -102t-86.5 -71q-4 -3 -8 -5.5t-9 -5.5q-12 -9 -24 -17.5t-24 -17.5q-69 -55 -86 -92t-24 -55q-3 -8 -7 -12.5t-14 -4.5q-5 0 -11.5 0.5t-17.5 2.5q-10 2 -16 4t-6 9
q0 26 36.5 94.5t142.5 153.5l8 6t8 7q35 28 62 58t27 69v3.5v3.5q-3 17 -15.5 30.5t-36.5 13.5q-27 0 -49 -17.5t-38 -38.5q-9 -13 -16 -25t-12 -20q0 -1 -0.5 -1.5t-0.5 -1.5q-4 -8 -8.5 -14.5t-9.5 -7.5h-1.5h-0.5h-1.5h-1.5t-2.5 1t-2.5 1q-2 1 -3 2t-3 2v0z" />
    <glyph glyph-name="glyph35" unicode="@" horiz-adv-x="828" 
d="M558 500l65 -34l-80 -155q-1 -2 -2.5 -5.5t-3.5 -8.5q-2 -8 -4.5 -19.5t-2.5 -24.5q0 -18 10.5 -30t29.5 -12q11 0 27 3t32 11q29 13 52.5 45.5t23.5 95.5q0 107 -75 187.5t-215 80.5q-115 0 -203 -80.5t-88 -217.5q0 -126 58.5 -190.5t128.5 -88.5q27 -9 54 -13t50 -4
q43 0 75 9.5t54 21.5q5 3 10 5.5t9 5.5l28 -49q-16 -9 -31 -16.5t-30 -12.5q-28 -9 -56 -13t-59 -4q-171 0 -261 102.5t-90 246.5q0 161 104.5 255.5t246.5 94.5q170 0 259.5 -97t89.5 -233q0 -95 -59 -145.5t-130 -55.5h-7.5h-6.5q-43 0 -73.5 21t-30.5 61q0 4 0.5 8.5
t1.5 9.5q0 2 0.5 4.5t0.5 5.5q1 2 1.5 4t0.5 4l-4 1q-8 -9 -17.5 -18.5t-20.5 -19.5q-20 -18 -43.5 -34.5t-48.5 -26.5q-11 -5 -22.5 -7.5t-22.5 -2.5q-5 0 -9.5 1t-9.5 4q-20 9 -36.5 36.5t-16.5 69.5v5.5v5.5q6 72 69.5 135.5t138.5 82.5q13 4 26 5.5t25 1.5q31 0 48.5 -9
t29.5 -23l10 20v0zM484 359l46 87q-7 8 -17 13.5t-24 5.5q-10 0 -20.5 -1.5t-21.5 -4.5q-55 -16 -101.5 -63t-46.5 -101q0 -26 12 -37.5t26 -12.5h1.5h1.5q12 0 29 9t34 22q10 8 19 16l18 16q15 14 27 28t17 23v0z" />
    <glyph glyph-name="glyph36" unicode="A" horiz-adv-x="667" 
d="M734 709l87 -41l-158 -362h58l-26 -59l-55 1l-88 -254l-96 20l91 234l-128 -1q-8 -11 -17 -22t-17 -22q-63 -78 -135 -143t-150 -65q-44 0 -64 24t-22 54v4v4q0 9 2.5 22.5t6.5 27.5q8 25 19.5 45t24.5 19q1 0 2.5 -0.5t2.5 -1.5l56 -31q3 -1 6 -3.5t4 -8.5v-2v-2v-0.5
v-0.5v-1.5v-1.5q-1 -7 -3.5 -12t-5.5 -10q-1 -2 -1.5 -3.5t-1.5 -2.5q-3 -5 -4.5 -9.5t-1.5 -9.5q0 -1 0.5 -3t1.5 -4q3 -3 7.5 -6t12.5 -3q16 0 56 29t132 134q-18 -1 -46 -6t-69 -16l31 65q0 1 0.5 1.5t0.5 1.5v0v0q2 5 5.5 8.5t15.5 4.5l116 7q45 53 65 76t34 41
q7 7 13.5 15.5t15.5 18.5q7 8 13.5 15.5t12.5 15.5l1.5 1.5t0.5 1.5q39 45 82.5 94.5t111.5 121.5v0zM468 308h108q9 21 17.5 40t16.5 37q3 7 6 13t7 13q11 25 24 50.5t29 56.5q10 21 16 32.5t11 21.5q1 1 1 1.5v0.5l3.5 7l3.5 7l-11 5q-7 -9 -12 -15.5t-10 -11.5
q0 -1 -0.5 -1.5t-1.5 -0.5q-7 -9 -16 -19.5t-25 -28.5q-6 -7 -31 -37.5t-53 -65.5q-27 -35 -51.5 -65.5t-31.5 -39.5v0z" />
    <glyph glyph-name="glyph37" unicode="B" horiz-adv-x="622" 
d="M418 679l79 -41l-72 -124l7 -5q34 34 71.5 64.5t76.5 51.5q25 13 50.5 21t49.5 8q6 0 12 -1t12 -3q22 -6 40 -26.5t18 -59.5q0 -73 -63.5 -128.5t-139.5 -84.5q-11 -5 -22.5 -8.5t-22.5 -6.5v-8q51 0 85.5 -18.5t34.5 -85.5q0 -21 -9.5 -47t-28.5 -53
q-37 -55 -108.5 -100.5t-170.5 -45.5q-40 0 -63.5 6t-42.5 16l29 52q14 -4 28.5 -5.5t28.5 -1.5q85 0 155.5 51.5t76.5 113.5q1 3 1 5.5v5.5q0 6 -0.5 13t-2.5 14q-3 17 -16 31t-42 14q-6 0 -12.5 -0.5t-13.5 -1.5q-9 -1 -17.5 -2.5t-15.5 -3.5l-16 58q65 22 114.5 47.5
t83.5 51.5t51 51.5t17 47.5q0 17 -7.5 24.5t-23.5 7.5q-11 0 -35 -8.5t-73 -45.5q-65 -48 -113.5 -104t-93.5 -127q-38 -59 -78 -131t-90 -160l-90 22q89 158 128.5 230t69.5 126l1.5 1.5t0.5 1.5q3 6 6.5 11.5t6.5 11.5q21 37 38 67.5t33 58.5q2 5 4.5 9.5t5.5 9.5
q15 28 31.5 60t36.5 73v0z" />
    <glyph glyph-name="glyph38" unicode="C" horiz-adv-x="531" 
d="M519 131l-22 -68q-25 -19 -56 -33.5t-63 -23.5q-21 -6 -41 -8.5t-39 -2.5q-66 0 -119 48.5t-53 151.5q0 8 0.5 15.5t0.5 14.5q12 148 117 279t229 176q25 9 49 13.5t48 4.5q59 0 94 -31t35 -78q0 -9 -1.5 -19t-5.5 -19q-12 -35 -44.5 -69.5t-80.5 -64.5l-72 43q9 6 18 13
t19 15q13 11 26 23t24 25q14 15 22.5 30.5t8.5 28.5v3.5t-1 3.5q-2 13 -13 23.5t-33 10.5q-25 0 -52 -10t-55 -28q-67 -43 -127.5 -122.5t-90.5 -166.5q-9 -29 -14.5 -58t-5.5 -56q0 -70 31 -100t89 -30q19 0 41.5 5.5t45.5 13.5q24 10 47.5 22t43.5 25v0z" />
    <glyph glyph-name="glyph39" unicode="D" horiz-adv-x="636" 
d="M481 551l63 -36q-40 -50 -67.5 -93.5t-50.5 -85.5q-5 -8 -9.5 -17t-9.5 -18q-1 -2 -2 -3.5t-2 -3.5q-79 -146 -110 -173t-35 -31l-1 -1v-1q0 -2 4.5 -5t11.5 -6q11 -4 25.5 -8t29.5 -5q3 -1 6 -1h6q72 0 137 72t100 159q15 37 23.5 72.5t8.5 65.5q0 13 -1 26t-3 27
q-7 50 -35 92t-90 42q-16 0 -31 -3t-31 -11q-30 -14 -61 -45t-66 -85l-78 55q56 74 122 117.5t145 43.5q8 0 16 -0.5t15 -2.5q71 -11 129.5 -74.5t58.5 -184.5q0 -22 -2.5 -45t-8.5 -47q-28 -128 -121.5 -235t-213.5 -107q-8 0 -15.5 0.5t-15.5 1.5q-21 3 -48.5 13t-80.5 31
q-8 -5 -16.5 -10t-16.5 -9q-19 -10 -38 -16t-41 -6q-36 0 -44 2.5t-9 7.5q0 1 -0.5 1.5l-0.5 0.5l-12 37q-1 2 -1 3v2v1.5v1.5q4 17 34.5 32.5t65.5 23.5q12 3 23.5 4.5t21.5 2.5h4.5h3.5q5 0 7.5 -0.5t4.5 -0.5q1 0 1.5 -0.5t1.5 -0.5h0.5h1.5q8 0 23.5 19.5t32.5 45.5
q3 6 6 11t7 10q17 29 31 54t17 31q56 110 106.5 174t73.5 88v0z" />
    <glyph glyph-name="glyph40" unicode="E" horiz-adv-x="543" 
d="M502 205l59 -66q-15 -14 -30.5 -27t-30.5 -25q-53 -42 -107 -67t-114 -25q-71 0 -111 30.5t-51 67.5q-3 7 -4 15t-1 15q0 22 10.5 59t53.5 77q22 20 55 40t79 38v8h-8q-43 0 -65 26t-22 63q0 79 61.5 141.5t136.5 96.5q34 16 68 24.5t61 8.5q53 0 90 -30t37 -83
q0 -12 -3 -25t-9 -27q-6 -13 -15.5 -26.5t-21.5 -25.5l-71 51q2 4 5.5 9t7.5 11q1 2 2.5 4t2.5 5q5 8 8.5 16t3.5 13q0 19 -10.5 31t-27.5 12q-20 0 -45 -11t-51 -29q-28 -19 -54 -43.5t-46 -50.5q-18 -23 -28.5 -45t-10.5 -40q0 -17 14 -25.5t30 -8.5q9 0 20 2t22 6
q10 3 19.5 7t17.5 8q4 1 7 2.5t6 3.5l31 -56q-8 -5 -13.5 -8t-11.5 -6q-1 -1 -2 -1.5t-2 -1.5q-4 -1 -7.5 -3t-7.5 -4q-139 -76 -178 -132t-39 -88q0 -5 0.5 -10t2.5 -11q4 -14 15.5 -25.5t35.5 -11.5q16 0 33 4.5t34 11.5q33 15 64.5 38.5t59.5 48.5q13 12 24 23l21 21v0z
" />
    <glyph glyph-name="glyph41" unicode="F" horiz-adv-x="529" 
d="M767 682l-28 -68h-13.5h-12.5h-30.5t-35.5 1h-4.5h-4.5q-8 0 -15 -1t-14 -4q-22 -11 -50 -59t-89 -176q11 2 25 2.5t30 0.5h13.5t12.5 -1q24 -1 46 -4t39 -9l-49 -79q-17 13 -41.5 19.5t-49.5 7.5q-5 1 -10 1h-10q-10 0 -20 -0.5t-20 -2.5q-3 -7 -6.5 -13.5t-7.5 -13.5
q-57 -108 -132 -198t-178 -90q-30 0 -55 12t-40 27q-8 8 -12.5 15.5t-4.5 13.5q0 5 1.5 8.5t4.5 6.5l44 48l0.5 0.5l1.5 1.5t3 2t5 1q5 0 7.5 -2t5.5 -5q0 -1 0.5 -1.5l1.5 -1.5q2 -2 4 -4.5t5 -5.5q8 -8 19.5 -15t23.5 -11q5 -1 9.5 -2t9.5 -1q50 0 90 57.5t74 126.5
q4 8 7.5 15.5t7.5 15.5q-16 -4 -37 -11t-47 -20l-34 58q5 2 9.5 4t9.5 4q23 9 48 15t58 12q7 1 14.5 2.5t15.5 2.5q41 77 66 116t42 63q5 7 9.5 13t7.5 12q1 0 1.5 1l0.5 1q5 8 10.5 16.5t13.5 20.5q-29 -4 -94 -25t-160 -88l-49 78q106 68 216 90.5t235 22.5
q26 0 52.5 -0.5t53.5 -2.5v0z" />
    <glyph glyph-name="glyph42" unicode="G" horiz-adv-x="571" 
d="M642 466l-72 46q5 4 10 8.5t11 10.5q8 9 15.5 19.5t12.5 21.5q3 6 4.5 11.5t1.5 11.5v3.5t-1 3.5q-2 13 -13 23.5t-33 10.5q-25 0 -53 -9.5t-56 -26.5q-66 -40 -126 -113t-89 -152q-10 -27 -15.5 -54t-5.5 -52q0 -47 20.5 -78.5t63.5 -31.5q79 0 136 62.5t69 144.5l89 -4
q-7 -43 -20.5 -98t-34.5 -112q-42 -114 -116.5 -210.5t-189.5 -96.5q-46 0 -79.5 18t-53.5 40q-17 18 -25 33.5t-8 21.5q0 3 2 5.5t5 3.5l1.5 1.5t1.5 0.5l54 30l1.5 1.5t0.5 1.5q2 1 4.5 2t5.5 1q1 0 2.5 -0.5t2.5 -0.5q3 -3 7.5 -10t12.5 -22l2 -4l2 -4q10 -20 26.5 -36.5
t54.5 -16.5q19 0 35.5 5.5t33.5 18.5q31 25 66 80t85 153l-11 5q-12 -13 -23 -24.5t-23 -20.5q-26 -21 -53 -30.5t-59 -9.5q-88 0 -135.5 50t-47.5 131q0 10 0.5 20t1.5 20q17 134 120.5 252.5t224.5 159.5q25 8 49 12.5t48 4.5q59 0 94 -31t35 -78q0 -8 -1 -15.5t-4 -15.5
q-7 -26 -24.5 -50t-39.5 -42v0z" />
    <glyph glyph-name="glyph43" unicode="H" horiz-adv-x="639" 
d="M666 132l-28 -76q-4 -2 -8 -4.5t-8 -4.5q-13 -7 -27.5 -13.5t-28.5 -12.5q-24 -9 -46 -15t-37 -6h-5.5t-5.5 1q-20 3 -36 19t-16 47q0 38 24.5 96t75.5 165q-43 1 -87 -3t-88 -12q-26 -48 -42 -78t-30 -57q-3 -7 -7 -14t-8 -15l-11.5 -23l-10.5 -21q-1 -1 -1.5 -2
t-1.5 -2q-11 -21 -23.5 -45t-31.5 -59l-94 27q21 39 36.5 66.5t29.5 51.5l2 4l2 4q4 7 8.5 14.5t9.5 15.5q15 27 25.5 45.5t19.5 35.5l4 8l4 8q2 5 4.5 10l5.5 11q-16 -3 -28 -5.5t-21 -5.5q-16 -6 -24 -11t-14 -8q-2 -1 -5.5 -2t-7.5 -1q-1 0 -2 0.5t-2 0.5q-3 1 -5 4t-2 7
v2.5t1 2.5l18 51q4 10 24.5 21t108.5 22q15 29 25 49l19 38q5 9 9.5 18.5t9.5 19.5q18 38 43 87.5t59 111.5l81 -42q-21 -38 -56.5 -105t-86.5 -169q4 0 8 0.5t8 1.5q15 1 33 2t37 2h19.5h18.5h21.5t18.5 -1q5 -1 8 -0.5t4 4.5l0.5 0.5t0.5 1.5l0.5 0.5l0.5 0.5
q7 15 14.5 29t15.5 27q4 6 7.5 13t7.5 13q9 14 16.5 27.5t14.5 25.5l1.5 3l1.5 3q18 31 39 65t57 85l72 -48q-58 -89 -90.5 -143t-56.5 -100q-2 -2 -3 -4.5t-2 -4.5q13 -1 24.5 -2t22.5 -3l-25 -60q-2 0 -6 0.5t-9 0.5q-2 0 -4.5 0.5t-4.5 0.5q-8 0 -15 0.5t-10 0.5
q-6 0 -19 -23t-28 -55q-4 -9 -8 -17.5t-7 -17.5q-14 -34 -24.5 -64.5t-10.5 -42.5v-4t1 -4q1 -5 5.5 -10t15.5 -5q9 0 25 5.5t33 13.5q5 3 9.5 5t8.5 4q12 6 22.5 12l17.5 10v0z" />
    <glyph glyph-name="glyph44" unicode="I" horiz-adv-x="434" 
d="M578 669l38 -55q-27 -27 -47 -50.5t-35 -46.5t-26.5 -47t-22.5 -51q-6 -14 -11.5 -28t-11.5 -30q-10 -27 -29.5 -74t-47.5 -99q-42 -74 -104 -135.5t-146 -61.5q-29 0 -46 4.5t-31 12.5l-10 6t-11 6q-10 5 -15 9t-7 7q-1 1 -1 2v2v2v2t0.5 2t1.5 2l44 63l1 1.5t3 2.5v0v0
q1 2 2.5 3l1.5 1h0.5h1.5h1.5h0.5q2 -1 4 -2.5t4 -3.5l0.5 -0.5l1.5 -1.5q25 -28 47 -36.5t37 -8.5q53 0 84.5 53t58.5 117q1 4 3 8t3 8q2 5 4 9.5t4 9.5q31 74 54 126.5t44 90.5q23 41 48 67t61 46l-5 10q-3 -1 -7 -1.5t-9 -1.5q-7 -1 -14.5 -2.5t-15.5 -2.5
q-9 -1 -17.5 -1.5t-15.5 -0.5q-10 0 -20.5 1.5t-21.5 3.5q-5 1 -10 2.5t-11 3.5q-6 1 -13 3t-14 3q-3 0 -6.5 0.5t-6.5 0.5q-7 0 -16 -1.5t-18 -4.5q-10 -4 -19.5 -10.5t-17.5 -15.5l-57 78q34 27 63.5 32t51.5 5q24 0 44 -4t38 -10q7 -2 13.5 -3.5t12.5 -3.5
q35 -10 57.5 -14t41.5 -4q5 0 10 0.5t11 1.5q5 0 10 1.5t10 2.5v0z" />
    <glyph glyph-name="glyph45" unicode="J" horiz-adv-x="434" 
d="M578 669l38 -55q-27 -25 -75 -95.5t-113 -236.5q-11 -28 -21.5 -54.5t-21.5 -51.5q-69 -167 -145 -269t-186 -102q-7 0 -13.5 0.5t-13.5 1.5q-27 4 -52 14.5t-35 21.5q-3 3 -4.5 6t-1.5 6v3v2q1 1 1 1.5t1 1.5l43 62q1 1 2 2.5t3 2.5v0v0q1 2 2.5 3l1.5 1h0.5h1.5h1.5
h0.5q2 -1 4 -2.5t3 -3.5h0.5h0.5v-1.5t1 -1.5q11 -15 25 -24.5t29 -14.5q8 -3 15.5 -4t14.5 -1q37 0 90 80.5t161 338.5q52 125 85 183.5t63 85.5q11 10 22.5 17.5t23.5 14.5l-5 10q-3 -1 -7 -1.5t-9 -1.5q-7 -1 -14.5 -2.5t-15.5 -2.5q-9 -1 -17.5 -1.5t-15.5 -0.5
q-10 0 -20.5 1.5t-21.5 3.5q-5 1 -10 2.5t-11 3.5q-6 1 -13 3t-14 3q-3 0 -6.5 0.5t-6.5 0.5q-7 0 -16 -1.5t-18 -4.5q-10 -4 -19.5 -10.5t-17.5 -15.5l-57 78q34 27 63.5 32t51.5 5q24 0 44 -4t38 -10q7 -2 13.5 -3.5t12.5 -3.5q35 -10 57.5 -14t41.5 -4q5 0 10 0.5t11 1.5
q5 0 10 1.5t10 2.5v0z" />
    <glyph glyph-name="glyph46" unicode="K" horiz-adv-x="611" 
d="M399 667l83 -46l-139 -248l2.5 2.5l2.5 2.5q6 5 12.5 8t15.5 3h6h6q3 -1 7 -1.5t9 -0.5q4 -1 7.5 -1h6.5h3.5t3.5 1h3h3q18 1 36.5 8.5t37.5 19.5q46 29 90.5 81.5t80.5 108.5q15 24 28 47t24 44l83 -43q-22 -42 -45 -76.5t-47 -62.5q-79 -97 -149.5 -130.5t-96.5 -39.5
q-3 -1 -5.5 -1.5t-5.5 -0.5q-17 -4 -31.5 -10.5t-14.5 -27.5q0 -17 3 -46t9 -61q10 -46 28 -84.5t48 -38.5q11 0 25.5 4.5t29.5 11.5q9 4 17 8.5t16 9.5q14 8 25.5 15.5t17.5 12.5l-24 -73q-47 -37 -80 -50t-53 -13q-73 0 -112 86t-39 196v18t1 18q0 8 1 17l2 18l-182 -365
l-93 29l343 650v0z" />
    <glyph glyph-name="glyph47" unicode="L" horiz-adv-x="531" 
d="M471 129l69 -37q-4 -8 -8.5 -18t-11.5 -20q-17 -26 -47.5 -47t-80.5 -21q-13 0 -26.5 1.5t-26.5 4.5q-10 2 -19.5 4.5t-19.5 3.5q-3 1 -7 2l-8 2q-22 6 -45.5 10.5t-52.5 4.5q-11 0 -21.5 -0.5t-21.5 -2.5q-25 -3 -51.5 -9.5t-58.5 -17.5l-20 58q36 12 62.5 39t51.5 71
q24 43 50 105.5t61 147.5q10 24 21 51t25 55q35 70 89.5 129t140.5 59q60 0 101 -33t41 -98q0 -43 -18 -77.5t-40 -57.5q-5 -6 -10.5 -11.5t-10.5 -9.5l-73 43q10 7 18 13.5t15 13.5q27 28 32.5 52.5t5.5 32.5q0 28 -12.5 41.5t-27.5 17.5q-7 2 -14 3t-12 1q-45 0 -75 -40
t-58 -103q-20 -47 -41.5 -102t-49.5 -112q-24 -52 -55.5 -101.5t-72.5 -93.5l5 -7q9 3 18.5 6.5t19.5 5.5q14 4 28 6.5t25 2.5q19 0 37.5 -2.5t36.5 -7.5q5 -1 9 -2.5t9 -2.5q4 -1 8.5 -2.5t9.5 -2.5q8 -2 17 -3.5t18 -1.5q7 0 18 2t23 11q8 6 16 16.5t15 27.5v0z" />
    <glyph glyph-name="glyph48" unicode="M" horiz-adv-x="879" 
d="M904 131l-25 -68q-3 -4 -7.5 -7.5t-9.5 -7.5q-13 -11 -30 -21t-35 -18q-16 -7 -31 -10.5t-28 -3.5q-22 0 -40 17.5t-18 61.5q0 21 5.5 38.5t12.5 33.5q4 8 8 15.5t8 15.5q2 5 4 8.5t4 6.5v1l1 1q1 4 3 8l5 10l-7 4q-91 -98 -153.5 -159.5t-117.5 -61.5q-29 0 -45 20
t-16 45q0 17 5 38t12 43l10 26t10 25t10.5 23t9.5 20l-7 2q-3 -2 -4.5 -4t-3.5 -4l-1.5 -1.5l-1.5 -1.5q-1 -2 -2.5 -4t-3.5 -4q-14 -17 -39.5 -44.5t-57.5 -57.5q-29 -25 -60.5 -49.5t-64.5 -42.5q-26 -13 -51 -21t-49 -8q-42 0 -61 16.5t-24 36.5q-2 7 -3 13.5t-1 12.5
q0 10 2.5 21.5t6.5 24.5q7 19 18 37t22 29q5 5 10.5 7.5t10.5 2.5q2 0 4.5 -0.5t4.5 -2.5l51 -35q2 -1 3 -2.5t2 -2.5q1 -2 1 -3.5v-2.5q0 -4 -2 -7.5t-5 -6.5l-1.5 -1.5l-1.5 -1.5q-11 -12 -13.5 -20.5t-2.5 -11.5q0 -9 4 -14t9 -7q3 -1 6 -1.5t5 -0.5q45 0 97 38t106 99
q43 49 85.5 108t81.5 120q43 68 79.5 133.5t61.5 116.5l82 -47q-157 -287 -206.5 -380.5t-49.5 -146.5v-1.5v-2.5v-4.5t1 -4.5q1 -5 4 -9.5t11 -4.5q7 0 16.5 5.5t20.5 12.5q3 3 7 6t7 6q11 8 19 15.5t12 11.5q53 53 91.5 98t70.5 88q18 24 35 49t33 51q28 45 57 97t66 117
l83 -51q-17 -30 -48.5 -83.5t-65.5 -114.5q-6 -10 -11.5 -20t-11.5 -20q-42 -78 -74.5 -148t-32.5 -101q0 -12 4.5 -18t9.5 -8q4 -1 7.5 -1.5t5.5 -0.5q9 0 20 3.5t23 9.5q7 4 14.5 8t14.5 8q9 6 17 12t13 10v0z" />
    <glyph glyph-name="glyph49" unicode="N" horiz-adv-x="601" 
d="M387 695l88 -11q5 -149 8.5 -230.5t4.5 -149.5q1 -27 1 -54.5v-59.5l12 -2q10 37 23 75.5t29 77.5q47 117 113.5 226.5t143.5 179.5l99 -40q-113 -85 -182.5 -192.5t-130.5 -256.5q-23 -58 -47 -123t-51 -137l-89 9q-7 165 -9 280t-1 200l-13 3q-31 -113 -65.5 -194.5
t-69.5 -137.5q-68 -107 -130 -140t-97 -40l-38 84q95 19 155.5 86.5t113.5 189.5q31 70 62.5 159t69.5 198v0z" />
    <glyph glyph-name="glyph50" unicode="O" horiz-adv-x="611" 
d="M716 607l-62 -58l-6 8l-6 8q-17 21 -41 38.5t-51 17.5q-25 0 -52 -11.5t-55 -31.5q-59 -43 -112.5 -115.5t-83.5 -151.5q-13 -34 -20 -67t-7 -64q0 -49 17.5 -74t38.5 -35q9 -4 18 -5.5t16 -1.5q5 0 9.5 0.5t9.5 0.5q96 14 176 144t80 291q0 11 -0.5 22t-1.5 22l101 -60
v-6v-6q-6 -172 -117 -317.5t-243 -158.5q-5 0 -10.5 -0.5t-11.5 -0.5q-73 0 -124.5 53.5t-51.5 151.5q0 142 91.5 267.5t200.5 183.5q34 18 68 28t65 10q52 0 90.5 -20.5t74.5 -61.5v0z" />
    <glyph glyph-name="glyph51" unicode="P" horiz-adv-x="602" 
d="M240 451l-60 55q48 61 100.5 97.5t106.5 54.5q43 16 85.5 21.5t83.5 5.5q88 0 130 -42t52 -92q2 -10 3 -19.5t1 -19.5q0 -16 -4 -33t-12 -34q-23 -46 -75 -87.5t-135 -57.5l-36 52q3 1 6.5 1.5t6.5 1.5q58 16 106 60t48 96q0 7 -1 14.5t-2 15.5q-5 23 -18.5 43.5
t-36.5 27.5q-32 -36 -55 -74t-44 -82q-19 -40 -39.5 -87.5t-47.5 -105.5q-10 -22 -24 -49.5t-32 -56.5q-38 -61 -96 -111t-140 -50q-30 0 -56 9.5t-41 20.5q-6 6 -10 11.5t-4 9.5q0 5 1 8.5t3 6.5l36 45l0.5 0.5t0.5 1.5l0.5 0.5l0.5 0.5q2 3 4.5 5t6.5 2t6 -2t3 -5
l0.5 -0.5t0.5 -1.5q2 -3 6.5 -7.5t11.5 -8.5q10 -8 24.5 -14t29.5 -7h2h2q19 0 43.5 11.5t53.5 48.5q28 36 47.5 74t37.5 79q18 42 38 88t49 99q26 48 39.5 69t23.5 33l3.5 3.5l3.5 3.5q7 8 16.5 17t23.5 25q-47 1 -116.5 -30t-161.5 -141v0z" />
    <glyph glyph-name="glyph52" unicode="Q" horiz-adv-x="611" 
d="M716 608l-62 -58l-6 8l-6 8q-17 21 -41 38.5t-51 17.5q-25 0 -52 -11.5t-55 -31.5q-59 -43 -112.5 -115.5t-83.5 -151.5q-13 -34 -20 -67t-7 -64q0 -54 27 -85.5t66 -30.5q10 0 20.5 2.5t20.5 6.5q-4 5 -16.5 18t-49.5 37l37 55q11 -6 33 -21t46 -41q3 -4 6.5 -7.5
t6.5 -7.5q55 47 88.5 101.5t52.5 109.5q15 46 21 90.5t6 85.5q0 14 -0.5 26.5t-1.5 24.5l101 -60v-10v-10q-6 -120 -65 -232t-160 -181q34 -43 57.5 -88.5t42.5 -100.5l-75 -50q-4 18 -10 36.5t-14 36.5q-11 29 -24.5 56.5t-27.5 50.5q-4 6 -8 11.5t-8 10.5
q-25 -12 -48.5 -16t-41.5 -4q-12 0 -24.5 2t-25.5 5q-48 15 -87 62.5t-39 136.5q0 143 92 269t202 183q34 18 67 27.5t64 9.5q52 0 90.5 -20.5t74.5 -61.5v0z" />
    <glyph glyph-name="glyph53" unicode="R" horiz-adv-x="742" 
d="M254 451l-61 55q80 97 172 138t204 41q98 0 162 -51t64 -125q0 -69 -52 -113t-115 -67q-12 -4 -24.5 -7.5t-24.5 -6.5q0 -19 0.5 -41t1.5 -44q4 -61 20 -111.5t58 -50.5q8 0 30 10.5t78 51.5l-24 -74q-50 -38 -81.5 -49.5t-49.5 -11.5q-67 0 -95.5 81.5t-28.5 203.5
q0 8 0.5 15.5t0.5 14.5q0 8 0.5 15.5t0.5 14.5q70 11 111.5 32.5t62.5 45.5q25 27 30.5 50.5t5.5 31.5t-1 16.5t-3 16.5q-8 26 -29 48.5t-64 30.5q-43 -49 -70 -99.5t-51 -105.5q-2 -5 -4.5 -10.5t-4.5 -10.5q-11 -24 -21.5 -49.5t-22.5 -51.5q-50 -109 -120 -199.5
t-184 -90.5q-9 0 -22.5 2.5t-27.5 8.5q-16 5 -30.5 12.5t-22.5 14.5q-4 4 -6 7.5t-2 6.5q0 6 1 9.5t3 5.5l35 45q3 3 4.5 5t3.5 3q1 1 2 1.5t3 0.5q3 0 4.5 -1t2.5 -3q1 -1 2 -2.5t2 -2.5q1 -2 2.5 -3.5l3.5 -3.5q10 -11 28.5 -20.5t40.5 -9.5q14 0 25 3t21 10q2 1 4.5 3
t5.5 4q40 34 84 131t105 207q28 51 61.5 100.5t72.5 92.5q-40 0 -110.5 -27.5t-166.5 -143.5v0z" />
    <glyph glyph-name="glyph54" unicode="S" horiz-adv-x="482" 
d="M28 128l89 53q1 -5 3 -10.5t4 -11.5q14 -32 44 -59t82 -27q58 0 93.5 32.5t43.5 71.5q1 5 1.5 10.5t0.5 10.5q0 23 -11.5 44.5t-25.5 38.5q-6 9 -12.5 16t-11.5 13q-3 3 -6 6.5t-6 7.5q-30 33 -52.5 70.5t-22.5 89.5q0 83 56 150.5t151 67.5q82 0 125.5 -39.5
t48.5 -103.5l-92 -36q1 5 1 10v10v5.5v4.5q-2 29 -19 52.5t-57 23.5q-7 0 -14.5 -1t-15.5 -3q-36 -9 -65.5 -40t-29.5 -87q0 -32 16 -59t35 -50q5 -5 10 -10.5t9 -10.5q7 -8 14.5 -16.5t15.5 -17.5q21 -24 38.5 -54.5t17.5 -68.5q0 -16 -4 -34.5t-12 -37.5
q-24 -54 -83.5 -99t-157.5 -45q-58 0 -111.5 25.5t-89.5 107.5v0z" />
    <glyph glyph-name="glyph55" unicode="T" horiz-adv-x="607" 
d="M34 78l44 48l0.5 0.5l1.5 1.5t3 2t5 1q5 0 7.5 -2t5.5 -5q0 -1 0.5 -1.5l1.5 -1.5q2 -2 4 -4.5t5 -5.5q8 -8 19.5 -15t23.5 -11q5 -1 9.5 -2t9.5 -1q12 0 23.5 5t23.5 15q52 44 118 176.5t201 324.5q-35 -3 -75 -13t-80 -24q-42 -16 -83 -36.5t-77 -45.5l-44 75
q75 60 193 88.5t359 28.5h13h13q11 -1 20.5 -1.5t18.5 -0.5h18h15h1h1q8 -1 16.5 -1h18.5l-36 -70h-212q-24 -43 -39.5 -71t-28.5 -54q-1 -1 -1.5 -2t-0.5 -2q-9 -16 -18 -33.5t-20 -38.5l-37 -74t-44 -81q-53 -95 -125.5 -173.5t-165.5 -78.5q-30 0 -55 12t-40 27
q-8 8 -12.5 15.5t-4.5 13.5q0 5 1.5 8.5t4.5 6.5v0z" />
    <glyph glyph-name="glyph56" unicode="U" horiz-adv-x="614" 
d="M385 695l81 -49l-173 -311q-38 -68 -53.5 -100t-25.5 -57l-0.5 -1t-0.5 -2q-2 -4 -4 -8.5t-4 -9.5q-3 -7 -5.5 -14.5t-2.5 -16.5q0 -7 3.5 -11t8.5 -6q2 -1 4.5 -1.5t4.5 -0.5q9 0 26 10t35 23q5 4 9.5 7.5t8.5 7.5q6 4 11.5 9t10.5 9q47 41 81.5 73t62.5 62q17 18 32 36
t29 38q35 47 73 110.5t95 161.5l76 -51q-10 -15 -47.5 -78t-80.5 -140q-5 -8 -9.5 -16.5t-8.5 -16.5q-45 -80 -79 -150.5t-34 -94.5q0 -12 5 -17.5t11 -6.5q4 -1 7 -1.5t5 -0.5q5 0 29.5 6.5t72.5 43.5l-25 -68q-45 -48 -79 -58t-53 -10q-4 0 -9 0.5t-10 0.5q-19 4 -35 17.5
t-16 50.5q0 24 6 46t14 40q4 10 7.5 18t6.5 14q1 3 2.5 5.5t2.5 5.5q0 1 0.5 2t1.5 2q2 5 5 10.5t7 13.5l-5 5l-6 -6l-5 -5l-9.5 -9.5l-12.5 -12.5q-16 -16 -37 -36.5t-45 -41.5q-14 -12 -29 -24.5t-31 -24.5q-40 -30 -77.5 -50.5t-62.5 -20.5h-5.5t-5.5 1q-19 2 -34.5 16.5
t-15.5 52.5q0 56 62 182t239 448v0z" />
    <glyph glyph-name="glyph57" unicode="V" horiz-adv-x="425" 
d="M242 699l102 -26q-9 -61 -20.5 -136t-35.5 -223q-2 -11 -3.5 -21t-3.5 -19q-2 -15 -4.5 -30t-5.5 -36l11 -3q20 37 38.5 70.5t36.5 65.5q11 20 22.5 40t23.5 40q38 63 84.5 128t114.5 145l75 -53q-136 -149 -241 -310.5t-189 -339.5l-79 22q4 33 6.5 57t4.5 47v2v1
q2 20 4 41t5 47q20 200 32 309.5t22 181.5v0z" />
    <glyph glyph-name="W" unicode="W" horiz-adv-x="729" 
d="M547 209l12 -4q18 35 37.5 69.5t41.5 68.5q52 84 117 169.5t148 181.5l78 -53q-85 -82 -165.5 -181t-145.5 -202q-45 -69 -80.5 -137t-59.5 -130l-82 23q5 34 8 55.5t5 39.5q1 2 1 4t1 4l2 16t3 18q4 29 8 55.5t7 52.5q5 36 9.5 73.5t7.5 79.5l-9 4q-56 -83 -98.5 -145.5
t-73.5 -121.5q-21 -38 -37.5 -76.5t-29.5 -81.5l-84 22q4 36 8 78t8 88q3 42 7 86.5t7 89.5q7 95 13 186t8 159l102 -28q-10 -82 -15.5 -126.5t-9.5 -81.5q-4 -42 -10.5 -94.5t-20.5 -160.5l8 -3q38 73 68.5 121.5t59.5 89.5q4 6 8 11.5t8 11.5l18 24t18 25q7 10 13 18
t11 15q1 2 2.5 3.5l2.5 2.5q5 7 11 14t14 16l5 107l62 -11l19 11l78 -54l-83 -89q-5 -50 -7.5 -74t-5.5 -43v-0.5v-1.5q-1 -12 -2.5 -25t-3.5 -33q-1 -10 -2 -19t-2 -17q-1 -12 -2.5 -23t-3.5 -21q-2 -13 -5 -26.5t-7 -29.5v0z" />
    <glyph glyph-name="glyph59" unicode="X" horiz-adv-x="645" 
d="M670 131l-25 -71q-46 -41 -79.5 -50.5t-47.5 -9.5q-7 0 -25 3t-38 20t-38 55t-25 107q-18 -17 -38.5 -36.5t-42.5 -39.5q-20 -18 -41.5 -36t-43.5 -34q-39 -30 -77.5 -49t-70.5 -19q-5 0 -15.5 1.5t-21.5 6.5q-15 8 -28 24t-13 48q0 17 3 29t7 23q2 5 4.5 10l5.5 11
q2 3 3.5 6.5t2.5 6.5q5 10 11.5 18.5t16.5 8.5q3 0 5 -0.5t4 -1.5q1 -1 2.5 -1.5t2.5 -1.5l42 -27q1 -1 2 -1.5t2 -0.5q4 -2 6.5 -5t2.5 -10q0 -4 -2 -8t-7 -11q-1 -2 -2.5 -4t-2.5 -4q-1 -3 -1.5 -6t-0.5 -8q0 -2 0.5 -4.5t0.5 -4.5q2 -5 6 -9t13 -4q14 0 48 23t116 96
q16 14 28.5 25t23.5 22q2 1 3 2.5t2 2.5q10 9 19.5 18.5t21.5 20.5q3 81 9.5 147t18.5 130q7 39 17 79t23 83l94 -38q-25 -67 -40 -130t-23 -125q-1 -14 -2.5 -28t-2.5 -28q58 56 99.5 96t79.5 76l6 6l6 6q27 26 56.5 52.5t65.5 58.5l73 -45q-43 -33 -80 -62t-71 -57
q-11 -8 -21 -16.5t-21 -17.5q-45 -37 -92 -79.5t-104 -97.5q-1 -7 -1 -16.5v-19.5q0 -11 0.5 -23t1.5 -25q4 -42 20 -77.5t54 -35.5q11 0 24 4t27 11q11 5 21.5 11t19.5 13q6 4 12 8.5t11 8.5v0z" />
    <glyph glyph-name="glyph60" unicode="Y" horiz-adv-x="541" 
d="M346 703l82 -44q-9 -14 -23.5 -40t-30.5 -57q-6 -10 -11 -20.5t-10 -21.5q-18 -37 -30.5 -71t-12.5 -56q0 -14 6.5 -20t14.5 -7q1 -1 3 -1h3q41 0 118.5 72t171.5 222l82 -43q-42 -74 -71.5 -135t-55.5 -117q-2 -4 -4 -8.5t-4 -8.5q-64 -136 -139 -243.5t-205 -107.5
q-44 0 -76.5 18t-52.5 40q-16 17 -23.5 32t-7.5 22q0 3 2 5.5t5 3.5l1.5 1.5t1.5 0.5l54 32q2 2 5 3t7 1t8 -3.5t7 -9.5q4 -7 8 -15.5t9 -17.5q10 -17 26.5 -31.5t46.5 -14.5q29 0 53.5 14.5t47.5 42.5q28 33 56.5 84t63.5 120q6 12 10.5 21.5t9.5 17.5q1 3 2 5t3 4
q5 10 11 20t13 22l-8 7q-4 -5 -9 -10.5t-10 -10.5q-26 -28 -59.5 -54t-68.5 -42q-21 -10 -41.5 -16t-39.5 -6q-30 0 -44.5 13.5t-20.5 30.5q-4 10 -5 19.5t-1 15.5q0 29 20.5 99.5t111.5 242.5v0z" />
    <glyph glyph-name="glyph61" unicode="Z" horiz-adv-x="540" 
d="M561 601l-5 7q-19 -9 -40 -17.5t-42 -13.5q-19 -5 -37 -8t-35 -3q-56 0 -91.5 29t-34.5 70q0 9 1.5 18t5.5 18l4.5 9t5.5 9l86 -11q-2 -5 -3.5 -10.5t-0.5 -10.5q0 -19 20 -32.5t69 -13.5q20 0 42 5t43 13q19 8 37 17.5t35 20.5l59 -54q-38 -34 -93 -94.5t-137 -170.5
q5 1 10 1h11h12t12 -1q25 -2 45 -8t20 -18q0 -6 -3.5 -13.5t-8.5 -15.5l-0.5 -1t-0.5 -2q-2 -2 -3 -4l-2 -4t-1.5 -3.5t-1.5 -2.5q-2 -4 -5.5 -6t-12.5 -2q-5 0 -9.5 0.5t-9.5 0.5q-6 1 -12 1.5t-12 1.5q-11 2 -23 3t-27 1q-9 0 -18.5 -0.5t-20.5 -2.5q-12 -16 -22.5 -28
t-20.5 -23q-2 -2 -3.5 -4t-3.5 -4q-10 -11 -21 -23t-24 -26q-12 -13 -22.5 -24t-21.5 -21q-4 -5 -9 -9.5t-10 -9.5q-12 -11 -26.5 -22.5t-32.5 -25.5l5 -7q8 3 15.5 6t15.5 5q18 6 36 9t34 3q21 0 41.5 -3t40.5 -8q5 -1 9 -2.5t9 -2.5q2 -1 4 -1.5t4 -1.5l26 -6t26 -3
q8 0 19.5 2.5t23.5 11.5q9 6 17.5 17t15.5 27l69 -37q-3 -9 -8.5 -19t-12.5 -20q-17 -25 -48 -46t-80 -21q-13 0 -26 1.5t-27 4.5q-10 2 -20 4.5t-21 4.5q-11 3 -22.5 6t-22.5 5q-16 3 -32.5 5t-33.5 2q-9 0 -18 -0.5t-18 -1.5q-27 -3 -55 -10t-61 -18l-35 58
q15 11 27.5 20.5t23.5 19.5q11 9 20.5 18.5t18.5 19.5q10 11 20.5 22.5t22.5 25.5q15 17 27 31.5t23 27.5t22.5 26t24.5 29q-2 8 -3 15t-1 13q0 32 21 48.5t50 16.5h3.5h2.5q2 -1 3.5 -1h2.5q89 114 133 157t77 65v0z" />
    <glyph glyph-name="glyph62" unicode="[" horiz-adv-x="504" 
d="M672 690l-42 -76q-4 1 -9 2.5t-12 2.5q-13 3 -30.5 5t-41.5 2h-15t-17 -1l-267 -721q-1 -3 -2.5 -7t-1.5 -8q-1 -2 -1 -4v-4q0 -12 9.5 -21.5t37.5 -10.5h10.5h10.5h7.5h7.5q8 0 17 1t20 3l-21 -55q-4 0 -11 -0.5t-15 -1.5q-6 0 -12 -0.5t-12 -1.5q-17 -1 -32 -2t-20 -1
q-44 0 -67 17.5t-23 47.5q0 16 3.5 27t7.5 22l272 713l-13 -2l-15 55q3 1 5.5 2.5t5.5 2.5q26 11 54.5 17.5t66.5 6.5q40 0 75.5 -1.5t69.5 -8.5v0z" />
    <glyph glyph-name="glyph63" unicode="\" horiz-adv-x="701" 
d="M199 761l63 32l440 -821l-63 -32l-440 821v0z" />
    <glyph glyph-name="glyph64" unicode="]" horiz-adv-x="560" 
d="M0 -200l43 76q16 -4 38.5 -7.5t53.5 -3.5h16t17 1l267 720q2 7 3.5 13t1.5 10q0 15 -9 21.5t-19 9.5q-5 1 -10 1.5t-9 0.5h-10.5h-10.5h-12.5h-10.5q-6 -1 -13 -1.5t-16 -2.5l20 54q4 1 11 1.5t15 1.5q6 0 12 0.5t12 1.5q17 1 32.5 2t20.5 1q39 0 58 -12t25 -27
q4 -7 5 -14t1 -12q0 -13 -3 -23.5t-6 -19.5q0 -1 -0.5 -2.5t-1.5 -3.5l-271 -714l13 2l15 -55q-2 0 -3.5 -0.5t-2.5 -1.5q-28 -11 -57.5 -18.5t-68.5 -7.5t-75 1.5t-71 8.5v-1z" />
    <glyph glyph-name="glyph65" unicode="^" horiz-adv-x="681" 
d="M342 700h196l184 -251h-108l-174 214l-173 -214h-108l183 251v0z" />
    <glyph glyph-name="glyph66" unicode="_" horiz-adv-x="527" 
d="M0 -196v56h527v-56h-527v0z" />
    <glyph glyph-name="glyph67" unicode="`" horiz-adv-x="308" 
d="M256 613l38 3q6 1 10 1.5t7 0.5t4.5 -1.5l3.5 -3.5q2 -4 4.5 -11t6.5 -20q2 -7 4.5 -13t5.5 -12q13 -30 24 -44t13 -21v-1.5v-0.5v-1.5v-1.5q-1 -9 -11.5 -13.5t-22.5 -4.5q-9 0 -21.5 8t-26.5 20q-9 9 -18.5 19.5t-18.5 21.5q-11 15 -18 29.5t-7 24.5q0 9 4 13t9 6
q3 1 5.5 1.5t4.5 0.5v0z" />
    <glyph glyph-name="glyph68" unicode="a" horiz-adv-x="480" 
d="M427 372l72 -38l-88 -172q-2 -4 -4.5 -9.5t-5.5 -11.5q-1 -2 -1.5 -4t-1.5 -4q-4 -10 -7 -19t-3 -12v-3t1 -3q1 -5 4 -8.5t8 -3.5q6 0 21 6t31 14q2 1 4.5 2t4.5 2q14 7 26 13.5t17 9.5l-21 -68q-7 -5 -16 -11.5t-20 -13.5q-9 -5 -18.5 -10.5t-18.5 -10.5q-16 -7 -31 -12
t-27 -5q-25 0 -40.5 14.5t-15.5 33.5q0 5 1 10t2 11q2 4 3.5 8.5t2.5 9.5q3 7 5.5 12.5t3.5 8.5q1 1 1.5 2t0.5 2q1 1 2 3t2 5l-4 1q-1 -1 -2.5 -2t-2.5 -2l-0.5 -1t-1.5 -1q-1 -2 -2 -3l-3 -3q-6 -7 -21 -21.5t-35 -30.5q-18 -14 -39 -27t-43 -21q-11 -4 -22.5 -6.5
t-22.5 -2.5q-5 0 -10 0.5t-10 2.5q-22 6 -41 29.5t-19 68.5q0 24 11.5 52.5t31.5 58.5q30 45 73 86t89 65q22 11 42.5 17t40.5 6q26 0 43.5 -7t28.5 -15q4 -4 8 -7.5t6 -6.5l11 22v0zM345 216l51 96q-4 5 -8 8t-8 5q-8 5 -15.5 6.5t-13.5 1.5q-17 0 -41 -11.5t-50 -31.5
q-28 -21 -54 -48t-43 -56q-9 -17 -14.5 -33t-5.5 -31q0 -25 9 -34t20 -9q14 0 35 11.5t43 29.5q10 7 19.5 15.5t19.5 16.5q20 19 35.5 36.5t20.5 27.5v0z" />
    <glyph glyph-name="glyph69" unicode="b" horiz-adv-x="432" 
d="M77 -2l-71 19q22 47 39 83.5t32 71.5q1 3 2.5 6.5t3.5 6.5q9 22 19.5 45.5t21.5 50.5q11 25 20.5 47.5t18.5 43.5q20 47 42.5 100.5t56.5 138.5l81 -28l-138 -293l9 -5q71 77 113.5 95t62.5 18q5 0 11 -0.5t12 -2.5q23 -6 42 -28.5t19 -69.5q0 -10 -1.5 -20.5t-3.5 -20.5
q-16 -68 -71 -130.5t-119 -97.5q-27 -15 -53.5 -23t-50.5 -8q-8 0 -17.5 1.5t-19.5 6.5t-19.5 13.5t-17.5 22.5l-24 -43v0zM124 86q12 -16 26 -21.5t35 -5.5q15 0 31 6.5t32 17.5q28 18 54 46.5t45 59.5q14 23 22.5 45.5t8.5 40.5t-8 28.5t-23 10.5q-24 0 -57 -22.5
t-68 -60.5q-26 -29 -51 -66t-47 -79v0z" />
    <glyph glyph-name="glyph70" unicode="c" horiz-adv-x="351" 
d="M374 236l-64 38l2.5 5l3.5 7l1.5 3l1.5 3q2 5 3.5 9.5t1.5 7.5q0 6 -5.5 10.5t-15.5 4.5q-13 0 -31 -11t-36 -30q-20 -20 -38.5 -45.5t-32.5 -52.5q-10 -21 -16 -41t-6 -37q0 -15 6.5 -22.5t14.5 -10.5q6 -3 11.5 -3.5t8.5 -0.5q13 0 51 8t139 53l-22 -68
q-73 -33 -121 -48t-91 -15q-44 0 -71 22t-27 73q0 19 5 39t14 41q27 61 84 117t120 84q22 9 43 14t41 5q33 0 48.5 -18t18.5 -39q1 -5 1.5 -9.5t0.5 -8.5q0 -3 -0.5 -6t-0.5 -6q-4 -19 -14.5 -36.5t-23.5 -30.5l-2.5 -2.5l-2.5 -2.5v0z" />
    <glyph glyph-name="glyph71" unicode="d" horiz-adv-x="499" 
d="M527 611l87 -27q-106 -223 -162.5 -343t-56.5 -144v-2.5t1 -3.5q1 -3 4.5 -6t9.5 -3q8 0 29.5 9.5t82.5 38.5l-20 -68q-8 -5 -18 -10.5t-22 -10.5q-6 -4 -13 -7.5t-15 -6.5q-24 -11 -46 -19t-35 -8q-22 0 -36.5 14.5t-14.5 33.5q0 9 1.5 17.5t4.5 17.5t7.5 17.5t9.5 17.5
l-6 4q-69 -80 -118.5 -101t-78.5 -21q-4 0 -8.5 0.5t-8.5 1.5q-24 6 -43.5 29t-19.5 70q0 21 7.5 44t20.5 46q27 48 73 92.5t95 71.5q27 15 53 23.5t49 8.5q9 0 23 -3.5t29 -12.5q6 -4 12 -9t12 -12q29 65 57 130t54 131v0zM396 312q-6 8 -14 12.5t-16 6.5q-3 1 -7 1.5
t-8 0.5q-17 0 -39 -10.5t-44 -27.5q-25 -19 -49 -44.5t-41 -51.5q-16 -23 -25.5 -45.5t-9.5 -40.5q0 -16 8.5 -25t26.5 -9q14 0 29.5 5.5t30.5 15.5q31 21 61 55.5t54 71.5q14 23 25 44.5t18 40.5v0z" />
    <glyph glyph-name="glyph72" unicode="e" horiz-adv-x="345" 
d="M22 127l22 14q22 68 78.5 126.5t119.5 90.5q27 13 53.5 20.5t50.5 7.5q40 0 59 -18.5t21 -40.5v-2.5v-2.5q0 -21 -15.5 -54.5t-71.5 -69.5q-33 -20 -82.5 -40.5t-121.5 -38.5q-1 -3 -1.5 -6t-0.5 -7q1 -17 16 -28.5t44 -11.5q21 0 52 8.5t64 23.5q15 6 29.5 14t28.5 16
l-22 -65q-19 -13 -41 -23t-44 -18q-32 -11 -63 -16.5t-54 -5.5q-40 0 -71.5 23.5t-31.5 62.5l-40 -25l22 66v0zM154 177q35 9 61.5 21t45.5 24q32 20 46.5 38t18.5 25l2 4l2 4t1.5 5t0.5 6q0 9 -4 13.5t-13 4.5q-13 0 -28.5 -7t-31.5 -19q-17 -12 -34 -29t-31 -35
q-12 -14 -21 -28.5t-15 -26.5v0z" />
    <glyph glyph-name="glyph73" unicode="f" horiz-adv-x="246" 
d="M17 -238l-94 18q2 3 41 91.5t87 193.5q46 103 85 190.5t43 95.5q-19 -1 -46.5 -5t-65.5 -14l12 61q45 9 73.5 12t47.5 4l30 73q28 68 62 104t96 36q39 0 58.5 -15.5t28.5 -34.5q6 -15 7.5 -28.5t1.5 -18.5q0 -8 -0.5 -15.5t-2.5 -14.5q-1 -4 -2 -7.5t-2 -7.5l-85 -4
q4 8 5.5 15t2.5 13q1 4 1 7.5v6.5q0 13 -5.5 19.5t-11.5 8.5q-3 1 -5.5 1.5t-4.5 0.5q-23 0 -35.5 -16.5t-20.5 -36.5q-2 -4 -3.5 -8.5t-3.5 -8.5l-0.5 -1t-0.5 -2l-25 -61h15h14q36 0 59 -3t42 -8l-40 -61q-14 5 -34 8t-49 3h-15t-16 -1q-21 -46 -50.5 -114.5t-60.5 -143.5
q-3 -6 -5.5 -12.5t-5.5 -12.5q-38 -91 -72 -175t-50 -131v-1z" />
    <glyph glyph-name="glyph74" unicode="g" horiz-adv-x="449" 
d="M449 369l70 -37l-175 -332q-1 0 -1.5 -1.5t-1.5 -3.5t-2.5 -4.5t-2.5 -4.5q-44 -84 -97.5 -152.5t-156.5 -68.5q-9 0 -17.5 1t-17.5 2q-23 5 -45.5 15.5t-42.5 26.5l46 69q14 -14 35 -26.5t49 -12.5q56 0 87.5 35.5t57.5 84.5q6 12 13 25t14 25q11 19 23 38.5t27 37.5
l-9 6q-49 -42 -90.5 -67t-82.5 -25q-35 0 -53 14t-25 31q-6 11 -7.5 22t-1.5 17q0 18 4.5 37t13.5 38q25 55 76.5 107t107.5 84q30 17 59.5 26.5t54.5 9.5q23 0 39 -8t30 -22q2 -1 4 -3l4 -4l14 20v0zM409 304q-6 13 -16.5 19.5t-22.5 6.5q-16 0 -33 -6t-35 -17
q-28 -17 -55 -42.5t-48 -53.5q-22 -28 -35.5 -54t-13.5 -43q0 -3 0.5 -6t1.5 -6q2 -8 8 -14.5t16 -6.5q21 0 57 20t74 58q28 27 54.5 63.5t47.5 81.5v0z" />
    <glyph glyph-name="glyph75" unicode="h" horiz-adv-x="427" 
d="M72 -5l-66 22q99 206 129.5 277t46.5 117q11 31 27 72.5t53 127.5l81 -28l-181 -382l8 -6q10 12 21 25t23 27q18 21 38 41.5t40 35.5q20 16 40 26t39 10q23 0 40.5 -17t17.5 -48q0 -17 -15 -43.5t-49 -88.5q-18 -33 -21 -42.5t-3 -12.5q0 -1 0.5 -2.5t0.5 -3.5
q2 -3 4.5 -5t6.5 -2q10 0 30 8t69 28l-22 -68q-73 -43 -100.5 -53t-36.5 -10q-4 0 -8.5 0.5t-9.5 2.5q-13 4 -23.5 16t-10.5 35q0 32 19 66.5t43 82.5q10 20 14 29t4 14v2t-1 2q-1 3 -4 5t-8 2t-39.5 -26t-138.5 -162q-5 -6 -8.5 -10.5t-7.5 -9.5q-7 -10 -16 -21.5
t-26 -31.5v-1z" />
    <glyph glyph-name="glyph76" unicode="i" horiz-adv-x="238" 
d="M261 131l-24 -68q-8 -5 -22 -12.5t-30 -15.5q-7 -3 -13.5 -6t-13.5 -6q-22 -10 -41.5 -16.5t-32.5 -6.5q-27 0 -41.5 18.5t-14.5 41.5q0 20 27 78.5t147 265.5l70 -35l-127 -231q-9 -16 -11.5 -24.5t-2.5 -14.5q0 -5 2.5 -7.5t5.5 -2.5q2 -1 3.5 -1h2.5q15 0 37.5 9
t78.5 34v0zM302 588h34h4.5h5.5q6 -1 11.5 -4.5t5.5 -13.5q0 -7 -3 -15.5t-8 -17.5q-11 -19 -30 -35t-40 -16v0v0h-1v0h-5t-6 1q-6 1 -12 4.5t-8 11.5q-1 2 -1 4v4v1.5t1 1.5v1.5v1.5q5 25 15.5 42t21.5 24q4 3 7.5 4t7.5 1v0z" />
    <glyph glyph-name="glyph77" unicode="j" horiz-adv-x="183" 
d="M10 -229l-94 16q14 47 53 144.5t150 312.5q1 3 2.5 5.5t3.5 5.5q0 1 0.5 2l0.5 1q14 26 30 57.5t42 86.5l70 -34q-33 -59 -57 -109t-46 -98q-1 -2 -2 -4.5t-3 -4.5q-1 -3 -2.5 -6t-2.5 -6q-77 -166 -104 -237t-39 -123q-1 -2 -1.5 -4t-0.5 -4v-1zM281 588h34h0.5h0.5h5h5
q6 -1 11 -4.5t7 -13.5q0 -1 0.5 -2t0.5 -2v-2v-2v-1.5v-1.5q-1 -1 -1 -1.5v-1.5q-1 -6 -4 -13.5t-7 -16.5q-9 -15 -24.5 -27.5t-38.5 -12.5h-6.5t-7.5 1q-8 2 -14 8.5t-6 21.5q0 6 1.5 13.5t4.5 15.5q5 16 15 29t24 13v0z" />
    <glyph glyph-name="glyph78" unicode="k" horiz-adv-x="402" 
d="M74 -8l-68 25q22 44 81.5 175t174.5 419l81 -28l-199 -424l8 -2q36 41 79.5 80.5t89.5 73.5q29 22 58.5 41.5t56.5 35.5l36 -65q-24 -11 -50.5 -25t-53.5 -30q-32 -20 -63.5 -41.5t-57.5 -45.5l3 -5q3 0 6 0.5t7 1.5h5.5h4.5q17 0 23.5 -9t7.5 -19v-3.5v-3.5
q0 -6 -2 -11.5t-5 -10.5q0 -1 -0.5 -2t-0.5 -2q-1 -2 -2 -3.5t-2 -3.5q-2 -6 -3.5 -12t-2.5 -12v-2v-1v-2v-2t1 -3l2 -4q2 -4 7 -7.5t13 -3.5q10 0 25 6.5t30 16.5q7 4 13 8t12 9q12 8 22 16t16 14l-22 -68q-46 -49 -79 -61t-55 -12q-5 0 -13.5 0.5t-16.5 3.5
q-14 4 -25.5 15.5t-11.5 37.5q0 4 0.5 10.5t0.5 13.5q1 6 1.5 12t1.5 10q3 13 4.5 17.5t1.5 7.5v1.5v0.5q0 4 -2.5 7t-5.5 3q-6 0 -17.5 -9t-28.5 -26q-18 -18 -38.5 -40.5t-47.5 -61.5v-1z" />
    <glyph glyph-name="glyph79" unicode="l" horiz-adv-x="225" 
d="M254 612l86 -28q-16 -33 -29 -61t-26 -55q0 -1 -0.5 -1.5t-0.5 -1.5q-12 -24 -23.5 -48.5t-25.5 -53.5q-76 -158 -94.5 -206t-18.5 -60q0 -9 4.5 -11.5t9.5 -2.5t19.5 4.5t45.5 20.5q3 1 5 2.5t4 2.5h0.5h0.5q5 3 13 6.5t24 11.5l-20 -68q-78 -45 -108.5 -54t-37.5 -9
q-4 0 -9 0.5t-10 2.5q-13 3 -24 15.5t-11 39.5q0 32 12.5 66.5t34.5 80.5q18 37 38.5 82.5t42.5 93.5q4 9 7.5 18t7.5 18q23 52 44.5 102.5t38.5 92.5v0z" />
    <glyph glyph-name="glyph80" unicode="m" horiz-adv-x="556" 
d="M197 398l70 -36l-81 -149l9 -6q13 10 22.5 18.5t17.5 16.5l3.5 3.5l2.5 2.5l10.5 10.5l11.5 11.5q56 56 87.5 70.5t45.5 14.5q4 0 10 -1t13 -4q10 -4 18.5 -13t8.5 -26q0 -13 -6.5 -27.5t-15.5 -29.5q-4 -5 -8 -11l-8 -12l-6 -8t-5 -8q-1 -1 -1 -1.5t-1 -0.5
q-3 -5 -7 -10.5t-10 -11.5l10 -6q82 82 121.5 101.5t56.5 19.5q3 0 7 -0.5t8 -2.5q10 -3 18 -12t8 -25q0 -18 -9.5 -39t-30.5 -55q-22 -35 -34 -51.5t-12 -27.5q0 -4 1.5 -6t3.5 -3q1 -1 2 -1h2q2 0 22 7.5t99 40.5l-22 -68q-80 -43 -111.5 -55.5t-51.5 -12.5q-16 0 -28 6
t-17 23q-1 5 -1.5 9.5t-0.5 8.5v4t1 4q0 2 0.5 4t0.5 4q4 17 12.5 32.5t17.5 29.5q5 7 9 13.5t8 13.5q11 18 16 26.5t6 14.5v0.5v1.5q0 4 -2.5 6.5t-6.5 2.5q-13 0 -41 -24.5t-59 -56.5q-6 -6 -11 -12t-11 -12q-30 -33 -54.5 -62.5t-30.5 -37.5l-73 19l110 210q0 1 0.5 2
t0.5 2q1 1 1 2v2q0 3 -1.5 5t-3.5 2q-5 0 -18.5 -11t-48.5 -43t-74.5 -73.5t-86.5 -117.5l-74 21l191 384v0z" />
    <glyph glyph-name="glyph81" unicode="n" horiz-adv-x="441" 
d="M196 400l64 -32l-83 -167l7 -6q8 11 28 32.5t46 44.5q9 9 18 17t19 16q27 22 51.5 37.5t41.5 15.5q24 0 39.5 -17.5t15.5 -45.5q0 -17 -15 -43.5t-49 -88.5q-18 -33 -21 -42.5t-3 -12.5q0 -1 0.5 -2.5t0.5 -3.5q2 -3 4.5 -5t6.5 -2q10 0 30 8t69 28l-22 -68
q-73 -43 -100.5 -53t-36.5 -10q-4 0 -8.5 0.5t-9.5 2.5q-13 4 -23.5 16t-10.5 35q0 32 19 66.5t43 82.5q8 17 13 27t5 16q0 4 -2 6.5t-5 3.5q-1 0 -2 0.5t-2 0.5q-5 0 -11.5 -3t-12.5 -8q-3 -2 -6 -4.5t-6 -5.5q-7 -6 -32 -31t-78 -86q-8 -10 -14.5 -17.5t-11.5 -14.5
q-13 -15 -29 -34.5t-51 -56.5l-66 21l190 383v0z" />
    <glyph glyph-name="glyph82" unicode="o" horiz-adv-x="378" 
d="M338 413l16 -58q-59 -19 -104 -54.5t-73 -74.5q-21 -30 -32.5 -58.5t-11.5 -49.5q0 -25 10 -37t23 -15q2 0 5 -0.5t6 -0.5q10 0 20 3t20 10q37 21 67 73.5t30 124.5q0 8 -0.5 16.5t-1.5 17.5l90 25q1 -6 2 -11.5t1 -11.5q1 -6 1 -11.5v-11.5q0 -105 -69.5 -187.5
t-153.5 -98.5l-16 -2t-16 -1q-64 0 -86.5 33.5t-22.5 74.5q0 95 86 178t210 127v0z" />
    <glyph glyph-name="glyph83" unicode="p" horiz-adv-x="421" 
d="M235 506l66 -32l-138 -266l10 -6q84 85 128 117.5t73 32.5q21 0 33.5 -14t14.5 -31q1 -2 1 -4.5v-4.5q0 -18 -8 -37.5t-19 -40.5q-29 -58 -45 -81t-16 -37q0 -4 2 -7t5 -5q1 0 2.5 -0.5t2.5 -0.5q7 0 23 6.5t34 15.5q1 0 2 1t2 1q11 5 20.5 10t17.5 8l-22 -68
q-8 -5 -19 -12t-24 -14q-8 -5 -16 -9l-16 -8q-18 -9 -35 -14.5t-30 -5.5q-26 0 -37.5 12t-13.5 27q-1 2 -1 4.5v4.5q0 17 8 41t32 64q24 41 34.5 56.5t11.5 24.5v2v2v2v2v2.5t-1 2.5q-1 3 -4 5t-11 2q-9 0 -22.5 -6.5t-27.5 -20.5q-12 -11 -23 -22.5t-21 -22.5
q-53 -59 -88 -120t-67 -131q-17 -38 -34.5 -79.5t-36.5 -88.5l-73 17q23 59 89 220t155 344q20 41 40.5 81.5t41.5 80.5v0z" />
    <glyph glyph-name="glyph84" unicode="q" horiz-adv-x="449" 
d="M448 369l71 -37q-150 -270 -211.5 -399t-77.5 -166l-92 29q62 124 98 180t55 83q11 17 16.5 24.5t8.5 13.5q1 0 1.5 1l0.5 1q0 1 0.5 2t1.5 2l-4 2q-1 0 -1.5 -0.5l-1.5 -1.5q-3 -2 -6 -5l-10 -10q-59 -56 -103 -72t-67 -16q-6 0 -13 1t-15 3q-21 6 -39 24.5t-18 55.5
q0 25 10.5 53.5t29.5 58.5q35 57 92.5 107.5t119.5 71.5q16 5 32 8t31 3q23 0 41.5 -8.5t35.5 -28.5l14 20v0zM409 304q-5 11 -15 18.5t-24 7.5q-18 0 -38 -8t-41 -21q-29 -19 -56 -45.5t-47 -54.5q-18 -24 -28 -46.5t-10 -40.5q0 -14 6 -21.5t13 -10.5q2 0 3.5 -0.5
t3.5 -0.5q17 0 61 23t94 81q20 23 40 52.5t38 66.5v0z" />
    <glyph glyph-name="glyph85" unicode="r" horiz-adv-x="329" 
d="M181 399l68 -30l-75 -157l7 -3q32 37 60 66.5t55 50.5q26 20 53 31t58 11q17 0 30 -5t25 -17l-55 -95q-8 11 -18.5 18t-25.5 7q-23 0 -55 -23t-67 -57q-15 -16 -30.5 -33t-30.5 -34q-24 -29 -44.5 -56.5t-33.5 -48.5l-19 -31l-77 22l175 384v0z" />
    <glyph glyph-name="glyph86" unicode="s" horiz-adv-x="285" 
d="M379 307l-62 -29q-4 14 -10.5 22t-13.5 13q-8 5 -15 6.5t-11 1.5q-16 0 -27 -7.5t-16 -16.5l-2 -6t-1 -6q0 -12 9.5 -28t20.5 -33q4 -6 8 -12.5t8 -12.5q9 -16 15 -34.5t6 -37.5q0 -11 -2.5 -23t-7.5 -24q-15 -34 -51.5 -61.5t-98.5 -27.5q-58 0 -83.5 21.5t-25.5 50.5
q0 8 2.5 17t6.5 18l84 11q-4 -6 -6 -12.5t-2 -13.5q0 -13 9 -22.5t26 -9.5q24 0 38.5 13.5t19.5 29.5q1 4 1.5 7.5t0.5 7.5q0 19 -13 40.5t-28 46.5q-1 2 -2.5 4t-2.5 4q-1 1 -1.5 2t-1.5 2q-9 16 -16.5 33t-7.5 34q0 47 40 82.5t107 35.5q41 0 70.5 -22.5t35.5 -63.5v0z
" />
    <glyph glyph-name="glyph87" unicode="t" horiz-adv-x="270" 
d="M276 131l-21 -68q-70 -40 -101 -51.5t-44 -11.5q-22 0 -38 14t-16 45q0 23 14.5 63t34.5 84q5 10 10 21t10 21q14 28 27 52.5t23 42.5q-34 -1 -56.5 -5.5t-39.5 -9.5l17 61q9 1 13.5 2t8.5 2h0.5h1.5q2 1 4.5 1.5t5.5 0.5q1 0 1.5 0.5t1.5 0.5q14 3 30.5 5.5t43.5 3.5
q16 30 27 50t20 37q2 2 3 4l2 4q5 8 10 16.5t11 17.5l72 -26q-5 -7 -9.5 -13.5t-8.5 -12.5q-2 -4 -4.5 -7.5t-4.5 -7.5q-7 -12 -14.5 -25t-16.5 -30q8 0 15.5 0.5t14.5 0.5h16.5h18.5q15 0 26 -0.5t21 -1.5q5 -1 9 -2t9 -2l-36 -65q-3 1 -6.5 2t-7.5 2q-8 2 -18.5 3.5
t-22.5 1.5h-14h-15q-11 0 -22 -0.5t-19 -1.5q-61 -118 -87.5 -174t-26.5 -76q0 -10 4.5 -13t10.5 -3q17 0 46 14.5t66 33.5v0z" />
    <glyph glyph-name="glyph88" unicode="u" 
d="M398 361l67 -34l-107 -203q-4 -7 -5 -12t-1 -8q0 -1 0.5 -3t1.5 -4q1 -4 4 -6.5t9 -2.5q9 0 20 5.5l25 12.5l4 2t4 3q1 0 2 0.5t2 1.5q7 3 15.5 7.5t22.5 10.5l-22 -68q-8 -5 -20.5 -12t-26.5 -14q-6 -4 -12 -7t-13 -6q-21 -10 -41 -17t-31 -7q-3 0 -6.5 0.5t-6.5 1.5
q-10 3 -19.5 11.5t-11.5 25.5q-1 2 -1 4.5v5.5v2t1 2v2v2q2 20 16 45t39 61l-4 5q-5 -4 -9.5 -8t-7.5 -7l-2 -2l-1 -1l-10.5 -10.5l-12.5 -12.5q-94 -94 -135.5 -110.5t-52.5 -16.5q-3 0 -8.5 1t-11.5 4q-9 4 -16.5 15t-7.5 31q0 28 30.5 91.5t136.5 261.5l68 -35l-117 -221
l-5.5 -11t-3.5 -10v-1.5v-0.5v-1.5v-1.5q0 -5 2 -7.5t4 -3.5t3 -1h2q11 0 28.5 12.5t65.5 57.5q7 7 14.5 13.5t14.5 13.5q34 32 65.5 67.5t61.5 86.5v0z" />
    <glyph glyph-name="glyph89" unicode="v" horiz-adv-x="381" 
d="M507 376l-12 -59l-69 -26v-2.5v-3.5q0 -23 -17.5 -56.5t-46.5 -69.5q-26 -33 -59 -64.5t-67 -54.5q-27 -18 -53.5 -29t-49.5 -11q-5 0 -9.5 0.5t-9.5 1.5q-27 7 -49.5 34t-22.5 82q0 40 16 89.5t46 101.5q16 28 35.5 55.5t42.5 53.5l71 -42q-9 -11 -18.5 -23t-19.5 -26
q-17 -24 -34 -51t-29 -55q-10 -24 -16.5 -47.5t-6.5 -44.5v-6.5t1 -7.5q1 -10 6.5 -18.5t21.5 -8.5q14 0 35.5 15t45.5 37q11 12 23 24.5t22 25.5q20 24 34 46.5t17 37.5q-10 -4 -20.5 -5.5t-20.5 -1.5h-2.5t-3.5 1h-2.5h-3.5l-9 51q5 5 9.5 10t9.5 9q13 13 27 20.5t34 7.5
q23 0 36 -7.5t20 -19.5l98 37v0z" />
    <glyph glyph-name="glyph90" unicode="w" horiz-adv-x="638" 
d="M182 418l71 -42q-9 -11 -19 -24t-21 -27q-16 -23 -31.5 -49t-27.5 -52q-12 -25 -18.5 -49t-6.5 -46v-6t1 -6q1 -12 7 -21.5t23 -9.5q13 0 31 11.5t38 28.5q7 6 14.5 13t14.5 14q14 13 26 26t20 23q0 68 24 111t88 43q3 0 6 -0.5t6 -1.5q7 -3 12.5 -10t5.5 -22
q0 -21 -8 -39.5t-18 -35.5q-3 -6 -7 -12t-7 -12q-5 -9 -8.5 -18.5t-6.5 -18.5q-4 -15 -6 -29.5t-2 -26.5v-8t1 -9q2 -10 8.5 -18.5t22.5 -8.5q14 0 31.5 12t45.5 40q62 61 79.5 89.5t20.5 46.5q-10 -4 -20.5 -5.5t-20.5 -1.5h-2.5t-3.5 1h-2.5h-3.5l-8 51q5 6 9.5 11t8.5 9
q13 13 27.5 20t34.5 7t33 -6.5t22 -20.5l98 37l-12 -59l-69 -26v-2.5v-3.5q0 -23 -17.5 -56.5t-46.5 -69.5q-26 -33 -59 -64.5t-67 -54.5q-27 -18 -53.5 -29t-49.5 -11h-2.5h-3.5q-31 2 -57.5 29t-26.5 72l-10 -10l-10 -10q-32 -30 -70 -55.5t-77 -25.5q-5 0 -10.5 0.5
t-11.5 2.5q-26 7 -47.5 34t-21.5 81q0 40 16 89.5t46 101.5q16 28 35.5 55.5t42.5 53.5v0z" />
    <glyph glyph-name="glyph91" unicode="x" horiz-adv-x="401" 
d="M182 426l75 -37v-14v-14v-19t1 -18q0 -19 1 -38t2 -42q34 32 55.5 52.5t38.5 36.5q9 8 16 14.5t13 12.5h0.5h0.5q6 6 12.5 12t14.5 14l63 -33q-29 -22 -58 -45.5t-56 -46.5q-25 -22 -48 -43.5t-43 -41.5q4 -34 17 -62t38 -28q8 0 22 5t29 13q4 2 8.5 4t8.5 5q9 5 17 9.5
t14 8.5l-22 -68q-5 -5 -14 -12.5t-20 -15.5q-9 -7 -18.5 -13.5t-19.5 -11.5q-10 -4 -19 -7t-18 -3q-26 0 -50 27.5t-37 101.5q-3 -4 -5 -6.5t-5 -4.5v0v0l-6 -8t-9 -11q-7 -8 -16.5 -19.5t-22.5 -23.5q-21 -21 -49 -38.5t-58 -17.5q-5 0 -12 1t-14 3q-13 6 -24.5 19.5
t-11.5 41.5q0 11 1 21t5 20l77 38q0 -2 -1 -4.5t-1 -6.5q-1 -3 -2 -7.5t-1 -9.5v-2v-2q0 -13 5 -21.5t18 -8.5q16 0 45 28.5t75 79.5q-8 56 -11 99t-3 77q0 17 0.5 32t1.5 28v0z" />
    <glyph glyph-name="glyph92" unicode="y" horiz-adv-x="383" 
d="M191 409l70 -36l-92 -170q-31 -58 -36.5 -73t-5.5 -17q0 -8 3 -11t6 -3h0.5h1.5h2h2h2h2q28 4 92.5 67t136.5 180q2 4 4.5 7.5t4.5 7.5l69 -35q-24 -42 -58 -104.5t-70 -133.5q-11 -22 -21.5 -43.5t-21.5 -43.5q-29 -60 -54 -118.5t-42 -108.5l-84 17q11 38 32 85.5
t48 97.5q11 21 23 41t23 41q3 3 5 6.5t4 7.5q8 14 13.5 22.5t9.5 16.5l6 10t7 11l-7 3l-11.5 -11.5l-11.5 -11.5q-14 -14 -29 -27t-29 -26q-30 -24 -58.5 -40t-52.5 -16q-4 0 -9.5 1.5t-11.5 4.5q-9 6 -17 18.5t-8 34.5q0 7 21.5 76.5t141.5 272.5v0z" />
    <glyph glyph-name="glyph93" unicode="z" horiz-adv-x="361" 
d="M123 333l38 84h3.5h3.5q22 0 46 -3.5t48 -9.5q35 -9 69 -22t62 -26l8 -4l8 -4l-25 -73q-22 -11 -48 -27.5t-53 -36.5q-22 -16 -43.5 -33.5t-40.5 -35.5q-18 -17 -33 -33.5t-25 -31.5q13 -4 27.5 -8t29.5 -5q3 -1 6 -1h6q21 0 50 4t60 13q14 4 28.5 9.5t27.5 11.5l-21 -63
q-12 -5 -24.5 -9.5t-24.5 -7.5q-41 -12 -78.5 -16.5t-55.5 -4.5q-41 0 -69.5 6t-46.5 14q-12 5 -20 10t-11 8l12 55q15 23 67.5 74t215.5 139q-31 12 -74 19t-123 8v0z" />
    <glyph glyph-name="glyph94" unicode="{" horiz-adv-x="527" 
d="M254 278v70q40 4 60 28t27 52q5 18 6 34.5t1 28.5v14.5t-1 14.5q0 7 -0.5 14.5t-0.5 14.5t-0.5 14t-0.5 14q-1 7 -1 14v14q0 101 50.5 138t111.5 40h1.5h1.5v-56q-28 -7 -43 -21t-22 -30q-7 -15 -8 -29t-1 -21v-14t1 -14q0 -7 0.5 -14t1.5 -14t1.5 -15t0.5 -15
q1 -8 1 -15.5v-15.5q0 -71 -28.5 -117t-93.5 -75v-8q65 -30 93.5 -75.5t28.5 -116.5v-15t-1 -15q0 -8 -0.5 -15.5t-1.5 -15.5q-1 -7 -1.5 -14t-0.5 -14q-1 -7 -1 -14v-14q0 -6 1 -20t8 -29q7 -16 22 -30t43 -21v-57q-73 4 -107.5 35.5t-46.5 69.5q-7 20 -9 39t-2 34v14t1 14
q0 7 0.5 14t0.5 14t0.5 14.5t0.5 14.5q1 7 1 14.5v14.5q0 68 -22 98.5t-48 39.5q-6 2 -12 3l-12 2v0z" />
    <glyph glyph-name="glyph95" unicode="|" horiz-adv-x="368" 
d="M254 -196v1053h60v-1053h-60v0z" />
    <glyph glyph-name="glyph96" unicode="}" horiz-adv-x="527" 
d="M473 348v-70h-2.5t-3.5 -1q-33 -4 -60.5 -36t-27.5 -106q0 -10 0.5 -22.5t0.5 -25.5q1 -3 1 -6v-6q1 -16 1.5 -30t0.5 -24q0 -92 -44.5 -130t-98.5 -45q-5 -1 -11 -1.5t-11 -0.5v55q30 9 45.5 24.5t21.5 33.5q5 12 6 23.5t1 19.5v14t-1 14q0 7 -0.5 14t-1.5 14
q-1 8 -1.5 15.5t-0.5 15.5q-1 7 -1 15v15q0 71 28.5 116.5t93.5 75.5v8q-65 29 -93.5 75t-28.5 117v15.5t1 15.5q0 7 0.5 15t1.5 15t1.5 14t0.5 14q1 7 1 14v14q0 9 -1 20.5t-6 23.5q-6 18 -21.5 33.5t-45.5 23.5v56q14 0 31.5 -3t35.5 -10q37 -14 67.5 -51t30.5 -114
q0 -10 -0.5 -24t-1.5 -30q0 -4 -0.5 -8t-0.5 -8q0 -12 -0.5 -23t-0.5 -21q0 -61 18 -91t39 -41q10 -6 19.5 -8t17.5 -3v0z" />
    <glyph glyph-name="glyph97" unicode="~" horiz-adv-x="604" 
d="M528 380h83q-19 -56 -44.5 -85.5t-72.5 -29.5q-33 0 -64.5 8t-61.5 18q-4 1 -8 2.5t-8 2.5q-13 3 -25 5t-26 2h-5.5t-5.5 -1q-9 -2 -18.5 -8.5t-15.5 -21.5h-81q9 44 29.5 68t43.5 34q12 5 22.5 7t20.5 2q7 0 16 -1t17 -2t15.5 -2.5t14.5 -2.5q5 -2 10 -3t8 -2
q6 -1 11 -3t10 -3q26 -8 48.5 -14.5t39.5 -6.5q3 0 11 1.5t16 7.5q6 4 11 11t9 17v0z" />
    <glyph glyph-name="uni007F" 
 />
    <glyph glyph-name="F" horiz-adv-x="665" 
d="M579 669l37 -55q-34 -33 -56 -61.5t-38 -55.5q-10 -17 -18.5 -34.5t-16.5 -36.5q-3 -8 -6.5 -16t-6.5 -16q-5 -14 -9.5 -24.5t-8.5 -19.5q-1 -2 -2 -4.5t-2 -4.5q-3 -8 -7 -16l-9 -18l6 -5q18 14 39.5 26t43.5 21q26 11 50.5 17t43.5 6q60 0 83 -49t23 -120
q0 -17 -2.5 -35t-6.5 -36q-24 -92 -94.5 -175.5t-151.5 -123.5q-26 -14 -52 -21t-50 -7q-7 0 -13.5 0.5t-13.5 1.5q-30 4 -56 15t-35 24q-1 2 -2 4.5t-1 4.5v3v2q1 1 1 1.5t1 1.5l44 62q0 1 1 2.5t3 2.5v0v0l3 3l1 1h0.5h1.5h1.5h0.5q3 -1 4.5 -2.5t2.5 -3.5h0.5h0.5
q0 -1 0.5 -1.5l1.5 -1.5q11 -15 25 -24.5t29 -14.5q8 -3 15.5 -4t14.5 -1q17 0 37.5 10.5t41.5 28.5q36 32 69.5 81t51.5 101q8 23 12.5 45.5t4.5 43.5v1.5v1.5q0 8 -0.5 20t-2.5 24q-3 20 -12 37t-29 17t-62 -17.5t-125 -83.5q-49 -89 -108.5 -144.5t-141.5 -55.5
q-7 0 -13.5 0.5t-13.5 1.5q-26 4 -50 13t-35 20q-5 3 -7 7t-2 7v2v2t0.5 2t1.5 2l44 63l1 1.5t3 2.5v0v0q1 2 2.5 3l1.5 1h0.5h1.5h1.5h0.5q2 -1 4 -2.5t4 -3.5l0.5 -0.5l1.5 -1.5q25 -28 47 -36.5t37 -8.5q44 0 73.5 39t50.5 86q10 22 18 43.5t15 38.5q29 71 51.5 122
t42.5 88q24 43 50 70.5t63 47.5l-5 10q-3 -1 -7 -1.5t-9 -1.5q-7 -1 -14.5 -2.5t-15.5 -2.5q-9 -1 -17.5 -1.5t-15.5 -0.5q-10 0 -20.5 1.5t-21.5 3.5q-5 1 -10 2.5t-11 3.5q-6 1 -13 3t-14 3q-3 0 -6.5 0.5t-6.5 0.5q-7 0 -16 -1.5t-18 -4.5q-10 -4 -19.5 -10.5
t-17.5 -15.5l-57 78q34 27 63.5 32t51.5 5q24 0 44 -4t38 -10q7 -2 13.5 -3.5t12.5 -3.5q35 -9 58 -13.5t42 -4.5q5 0 10 0.5t11 1.5q5 0 10 1.5t10 2.5v0z" />
    <glyph glyph-name="F" unicode="&#x402;" horiz-adv-x="665" 
d="M579 669l37 -55q-34 -33 -56 -61.5t-38 -55.5q-10 -17 -18.5 -34.5t-16.5 -36.5q-3 -8 -6.5 -16t-6.5 -16q-5 -14 -9.5 -24.5t-8.5 -19.5q-1 -2 -2 -4.5t-2 -4.5q-3 -8 -7 -16l-9 -18l6 -5q18 14 39.5 26t43.5 21q26 11 50.5 17t43.5 6q60 0 83 -49t23 -120
q0 -17 -2.5 -35t-6.5 -36q-24 -92 -94.5 -175.5t-151.5 -123.5q-26 -14 -52 -21t-50 -7q-7 0 -13.5 0.5t-13.5 1.5q-30 4 -56 15t-35 24q-1 2 -2 4.5t-1 4.5v3v2q1 1 1 1.5t1 1.5l44 62q0 1 1 2.5t3 2.5v0v0l3 3l1 1h0.5h1.5h1.5h0.5q3 -1 4.5 -2.5t2.5 -3.5h0.5h0.5
q0 -1 0.5 -1.5l1.5 -1.5q11 -15 25 -24.5t29 -14.5q8 -3 15.5 -4t14.5 -1q17 0 37.5 10.5t41.5 28.5q36 32 69.5 81t51.5 101q8 23 12.5 45.5t4.5 43.5v1.5v1.5q0 8 -0.5 20t-2.5 24q-3 20 -12 37t-29 17t-62 -17.5t-125 -83.5q-49 -89 -108.5 -144.5t-141.5 -55.5
q-7 0 -13.5 0.5t-13.5 1.5q-26 4 -50 13t-35 20q-5 3 -7 7t-2 7v2v2t0.5 2t1.5 2l44 63l1 1.5t3 2.5v0v0q1 2 2.5 3l1.5 1h0.5h1.5h1.5h0.5q2 -1 4 -2.5t4 -3.5l0.5 -0.5l1.5 -1.5q25 -28 47 -36.5t37 -8.5q44 0 73.5 39t50.5 86q10 22 18 43.5t15 38.5q29 71 51.5 122
t42.5 88q24 43 50 70.5t63 47.5l-5 10q-3 -1 -7 -1.5t-9 -1.5q-7 -1 -14.5 -2.5t-15.5 -2.5q-9 -1 -17.5 -1.5t-15.5 -0.5q-10 0 -20.5 1.5t-21.5 3.5q-5 1 -10 2.5t-11 3.5q-6 1 -13 3t-14 3q-3 0 -6.5 0.5t-6.5 0.5q-7 0 -16 -1.5t-18 -4.5q-10 -4 -19.5 -10.5
t-17.5 -15.5l-57 78q34 27 63.5 32t51.5 5q24 0 44 -4t38 -10q7 -2 13.5 -3.5t12.5 -3.5q35 -9 58 -13.5t42 -4.5q5 0 10 0.5t11 1.5q5 0 10 1.5t10 2.5v0z" />
    <glyph glyph-name="asciitilde" horiz-adv-x="501" 
d="M767 682l-28 -68h-13.5h-12.5h-30.5t-35.5 1h-6h-5q-13 0 -22 -2t-17 -10q-11 -10 -24 -32.5t-35 -65.5q-17 -34 -35 -69.5t-36 -72.5q-71 -138 -156.5 -253t-198.5 -115q-30 0 -55 12t-40 27q-8 8 -12.5 15.5t-4.5 13.5q0 5 1.5 8.5t4.5 6.5l44 48l0.5 0.5l1.5 1.5t3 2
t5 1q5 0 7.5 -2t5.5 -5q0 -1 0.5 -1.5l1.5 -1.5q2 -2 4 -4.5t5 -5.5q8 -8 19.5 -15t23.5 -11q5 -1 9.5 -2t9.5 -1q12 0 66.5 75t117.5 169q3 5 6.5 10.5t7.5 10.5q59 88 108 165t61 95q-29 -4 -94 -25t-160 -88l-49 78q106 68 216 90.5t235 22.5q26 0 52.5 -0.5t53.5 -2.5v0
z" />
    <glyph glyph-name="asciitilde" unicode="&#x403;" horiz-adv-x="501" 
d="M767 682l-28 -68h-13.5h-12.5h-30.5t-35.5 1h-6h-5q-13 0 -22 -2t-17 -10q-11 -10 -24 -32.5t-35 -65.5q-17 -34 -35 -69.5t-36 -72.5q-71 -138 -156.5 -253t-198.5 -115q-30 0 -55 12t-40 27q-8 8 -12.5 15.5t-4.5 13.5q0 5 1.5 8.5t4.5 6.5l44 48l0.5 0.5l1.5 1.5t3 2
t5 1q5 0 7.5 -2t5.5 -5q0 -1 0.5 -1.5l1.5 -1.5q2 -2 4 -4.5t5 -5.5q8 -8 19.5 -15t23.5 -11q5 -1 9.5 -2t9.5 -1q12 0 66.5 75t117.5 169q3 5 6.5 10.5t7.5 10.5q59 88 108 165t61 95q-29 -4 -94 -25t-160 -88l-49 78q106 68 216 90.5t235 22.5q26 0 52.5 -0.5t53.5 -2.5v0
z" />
    <glyph glyph-name="D" horiz-adv-x="611" 
d="M399 667l83 -46l-139 -248l2.5 2.5l2.5 2.5q6 5 12.5 8t15.5 3h6h6q3 -1 7 -1.5t9 -0.5q4 -1 7.5 -1h6.5h3.5t3.5 1h3h3q18 1 36.5 8.5t37.5 19.5q46 29 90.5 81.5t80.5 108.5q15 24 28 47t24 44l83 -43q-22 -42 -45 -76.5t-47 -62.5q-79 -97 -149.5 -130.5t-96.5 -39.5
q-3 -1 -5.5 -1.5t-5.5 -0.5q-17 -4 -31.5 -10.5t-14.5 -27.5q0 -17 3 -46t9 -61q10 -46 28 -84.5t48 -38.5q11 0 25.5 4.5t29.5 11.5q9 4 17 8.5t16 9.5q14 8 25.5 15.5t17.5 12.5l-24 -73q-47 -37 -80 -50t-53 -13q-73 0 -112 86t-39 196v18t1 18q0 8 1 17l2 18l-182 -365
l-93 29l343 650v0z" />
    <glyph glyph-name="D" unicode="&#x40c;" horiz-adv-x="611" 
d="M399 667l83 -46l-139 -248l2.5 2.5l2.5 2.5q6 5 12.5 8t15.5 3h6h6q3 -1 7 -1.5t9 -0.5q4 -1 7.5 -1h6.5h3.5t3.5 1h3h3q18 1 36.5 8.5t37.5 19.5q46 29 90.5 81.5t80.5 108.5q15 24 28 47t24 44l83 -43q-22 -42 -45 -76.5t-47 -62.5q-79 -97 -149.5 -130.5t-96.5 -39.5
q-3 -1 -5.5 -1.5t-5.5 -0.5q-17 -4 -31.5 -10.5t-14.5 -27.5q0 -17 3 -46t9 -61q10 -46 28 -84.5t48 -38.5q11 0 25.5 4.5t29.5 11.5q9 4 17 8.5t16 9.5q14 8 25.5 15.5t17.5 12.5l-24 -73q-47 -37 -80 -50t-53 -13q-73 0 -112 86t-39 196v18t1 18q0 8 1 17l2 18l-182 -365
l-93 29l343 650v0z" />
    <glyph glyph-name="N" horiz-adv-x="704" 
d="M579 669l37 -55q-21 -21 -38 -40.5t-31 -38.5q-20 -27 -35 -55.5t-29 -62.5q-8 -18 -15.5 -37.5t-16.5 -41.5l7 -4q24 19 53.5 36t60.5 27q14 5 28 7.5t28 2.5q35 0 52.5 -23.5t17.5 -52.5q0 -16 -13 -43.5t-44 -80.5q-28 -47 -38 -68t-10 -35q0 -15 6.5 -21t13.5 -6
q8 0 24 4.5t33 11.5q6 2 11 4l10 4q12 6 22 10.5t16 8.5l-25 -64q-7 -5 -17 -11.5t-21 -12.5q-14 -8 -28.5 -15t-30.5 -13q-13 -4 -26 -6.5t-25 -2.5q-4 0 -7.5 0.5t-7.5 1.5q-15 3 -28 17.5t-13 50.5v1.5v1.5q1 32 16 69.5t55 98.5q17 26 23 42.5t6 26.5q0 2 -0.5 3.5
t-1.5 3.5q-3 5 -8.5 8.5t-14.5 3.5q-17 0 -41.5 -11t-51.5 -27q-13 -8 -26 -17t-25 -19q-9 -6 -16.5 -12.5t-14.5 -12.5q-25 -58 -53 -98.5t-56 -67.5q-43 -40 -83.5 -54t-72.5 -14q-7 0 -13.5 0.5t-13.5 1.5q-26 4 -50 13t-35 20q-5 3 -7 7t-2 7v2v2t0.5 2t1.5 2l44 63
l1 1.5t3 2.5v0v0q1 2 2.5 3l1.5 1h0.5h1.5h1.5h0.5q2 -1 4 -2.5t4 -3.5l0.5 -0.5l1.5 -1.5q25 -28 47 -36.5t37 -8.5q44 0 73.5 39t50.5 86q10 22 18 43.5t15 38.5q29 71 51.5 122t42.5 88q24 43 50 70.5t63 47.5l-5 10q-3 -1 -7 -1.5t-9 -1.5q-7 -1 -14.5 -2.5t-15.5 -2.5
q-9 -1 -17.5 -1.5t-15.5 -0.5q-15 0 -26.5 2t-21.5 5q-3 1 -5.5 1.5t-5.5 1.5q-10 3 -21.5 5.5t-22.5 2.5q-7 0 -16 -1.5t-18 -4.5q-10 -4 -19.5 -10.5t-17.5 -15.5l-57 78q34 27 63.5 32t51.5 5q24 0 44 -4t38 -10q7 -2 13.5 -3.5t12.5 -3.5q35 -9 58 -13.5t42 -4.5
q5 0 10 0.5t11 1.5q5 0 10 1.5t10 2.5v0z" />
    <glyph glyph-name="N" unicode="&#x40b;" horiz-adv-x="704" 
d="M579 669l37 -55q-21 -21 -38 -40.5t-31 -38.5q-20 -27 -35 -55.5t-29 -62.5q-8 -18 -15.5 -37.5t-16.5 -41.5l7 -4q24 19 53.5 36t60.5 27q14 5 28 7.5t28 2.5q35 0 52.5 -23.5t17.5 -52.5q0 -16 -13 -43.5t-44 -80.5q-28 -47 -38 -68t-10 -35q0 -15 6.5 -21t13.5 -6
q8 0 24 4.5t33 11.5q6 2 11 4l10 4q12 6 22 10.5t16 8.5l-25 -64q-7 -5 -17 -11.5t-21 -12.5q-14 -8 -28.5 -15t-30.5 -13q-13 -4 -26 -6.5t-25 -2.5q-4 0 -7.5 0.5t-7.5 1.5q-15 3 -28 17.5t-13 50.5v1.5v1.5q1 32 16 69.5t55 98.5q17 26 23 42.5t6 26.5q0 2 -0.5 3.5
t-1.5 3.5q-3 5 -8.5 8.5t-14.5 3.5q-17 0 -41.5 -11t-51.5 -27q-13 -8 -26 -17t-25 -19q-9 -6 -16.5 -12.5t-14.5 -12.5q-25 -58 -53 -98.5t-56 -67.5q-43 -40 -83.5 -54t-72.5 -14q-7 0 -13.5 0.5t-13.5 1.5q-26 4 -50 13t-35 20q-5 3 -7 7t-2 7v2v2t0.5 2t1.5 2l44 63
l1 1.5t3 2.5v0v0q1 2 2.5 3l1.5 1h0.5h1.5h1.5h0.5q2 -1 4 -2.5t4 -3.5l0.5 -0.5l1.5 -1.5q25 -28 47 -36.5t37 -8.5q44 0 73.5 39t50.5 86q10 22 18 43.5t15 38.5q29 71 51.5 122t42.5 88q24 43 50 70.5t63 47.5l-5 10q-3 -1 -7 -1.5t-9 -1.5q-7 -1 -14.5 -2.5t-15.5 -2.5
q-9 -1 -17.5 -1.5t-15.5 -0.5q-15 0 -26.5 2t-21.5 5q-3 1 -5.5 1.5t-5.5 1.5q-10 3 -21.5 5.5t-22.5 2.5q-7 0 -16 -1.5t-18 -4.5q-10 -4 -19.5 -10.5t-17.5 -15.5l-57 78q34 27 63.5 32t51.5 5q24 0 44 -4t38 -10q7 -2 13.5 -3.5t12.5 -3.5q35 -9 58 -13.5t42 -4.5
q5 0 10 0.5t11 1.5q5 0 10 1.5t10 2.5v0z" />
    <glyph glyph-name="bullet" horiz-adv-x="614" 
d="M350 92l42 -16l-109 -269l-74 34l141 251v0zM385 695l81 -49l-173 -311q-38 -68 -53.5 -100t-25.5 -57l-0.5 -1t-0.5 -2q-2 -4 -4 -8.5t-4 -9.5q-3 -7 -5.5 -14.5t-2.5 -16.5q0 -7 3.5 -11t8.5 -6q2 -1 4.5 -1.5t4.5 -0.5q9 0 26 10t35 23q5 4 9.5 7.5t8.5 7.5
q6 4 11.5 9t10.5 9q47 41 81.5 73t62.5 62q17 18 32 36t29 38q35 47 73 110.5t95 161.5l76 -51q-10 -15 -47.5 -78t-80.5 -140q-5 -8 -9.5 -16.5t-8.5 -16.5q-45 -80 -79 -150.5t-34 -94.5q0 -12 5 -17.5t11 -6.5q4 -1 7 -1.5t5 -0.5q5 0 29.5 6.5t72.5 43.5l-25 -68
q-45 -48 -79 -58t-53 -10q-4 0 -9 0.5t-10 0.5q-19 4 -35 17.5t-16 50.5q0 24 6 46t14 40q4 10 7.5 18t6.5 14q1 3 2.5 5.5t2.5 5.5q0 1 0.5 2t1.5 2q2 5 5 10.5t7 13.5l-5 5l-6 -6l-5 -5l-9.5 -9.5l-12.5 -12.5q-16 -16 -37 -36.5t-45 -41.5q-14 -12 -29 -24.5t-31 -24.5
q-40 -30 -77.5 -50.5t-62.5 -20.5h-5.5t-5.5 1q-19 2 -34.5 16.5t-15.5 52.5q0 56 62 182t239 448v0z" />
    <glyph glyph-name="bullet" unicode="&#x40f;" horiz-adv-x="614" 
d="M350 92l42 -16l-109 -269l-74 34l141 251v0zM385 695l81 -49l-173 -311q-38 -68 -53.5 -100t-25.5 -57l-0.5 -1t-0.5 -2q-2 -4 -4 -8.5t-4 -9.5q-3 -7 -5.5 -14.5t-2.5 -16.5q0 -7 3.5 -11t8.5 -6q2 -1 4.5 -1.5t4.5 -0.5q9 0 26 10t35 23q5 4 9.5 7.5t8.5 7.5
q6 4 11.5 9t10.5 9q47 41 81.5 73t62.5 62q17 18 32 36t29 38q35 47 73 110.5t95 161.5l76 -51q-10 -15 -47.5 -78t-80.5 -140q-5 -8 -9.5 -16.5t-8.5 -16.5q-45 -80 -79 -150.5t-34 -94.5q0 -12 5 -17.5t11 -6.5q4 -1 7 -1.5t5 -0.5q5 0 29.5 6.5t72.5 43.5l-25 -68
q-45 -48 -79 -58t-53 -10q-4 0 -9 0.5t-10 0.5q-19 4 -35 17.5t-16 50.5q0 24 6 46t14 40q4 10 7.5 18t6.5 14q1 3 2.5 5.5t2.5 5.5q0 1 0.5 2t1.5 2q2 5 5 10.5t7 13.5l-5 5l-6 -6l-5 -5l-9.5 -9.5l-12.5 -12.5q-16 -16 -37 -36.5t-45 -41.5q-14 -12 -29 -24.5t-31 -24.5
q-40 -30 -77.5 -50.5t-62.5 -20.5h-5.5t-5.5 1q-19 2 -34.5 16.5t-15.5 52.5q0 56 62 182t239 448v0z" />
    <glyph glyph-name="guilsinglleft" horiz-adv-x="412" 
d="M172 235l5 -1q67 93 115 109t56 16q4 0 17 -1.5t27 -10.5q15 -9 28.5 -28t16.5 -54q0 -3 0.5 -5.5t0.5 -4.5v-4.5v-5.5v-4.5v-4.5q-1 -3 -1 -5.5v-4.5q-4 -41 -20.5 -87.5t-46.5 -94.5q-48 -77 -130 -150.5t-196 -121.5l-18 39q38 22 70 43.5t59 42.5q123 99 151.5 187
t28.5 122q0 26 -8 39t-18 18q-5 2 -9.5 3t-8.5 1q-34 0 -86 -54.5t-123 -212.5l-76 29l174 409q-18 -2 -41.5 -7.5t-60.5 -20.5l3 56q8 3 18.5 6.5t24.5 7.5q15 5 35 9.5t45 7.5l54 123l87 -42l-38 -74q3 0 12 0.5t21 0.5t25.5 0.5t28.5 0.5h2.5h3.5q19 0 34 -2t30 -5
q2 -1 5 -1.5t6 -1.5l-47 -69q-21 6 -38.5 10t-34.5 5q-9 1 -18 1.5t-19 0.5h-20t-21 -1l-105 -208v0z" />
    <glyph glyph-name="guilsinglleft" unicode="&#x452;" horiz-adv-x="412" 
d="M172 235l5 -1q67 93 115 109t56 16q4 0 17 -1.5t27 -10.5q15 -9 28.5 -28t16.5 -54q0 -3 0.5 -5.5t0.5 -4.5v-4.5v-5.5v-4.5v-4.5q-1 -3 -1 -5.5v-4.5q-4 -41 -20.5 -87.5t-46.5 -94.5q-48 -77 -130 -150.5t-196 -121.5l-18 39q38 22 70 43.5t59 42.5q123 99 151.5 187
t28.5 122q0 26 -8 39t-18 18q-5 2 -9.5 3t-8.5 1q-34 0 -86 -54.5t-123 -212.5l-76 29l174 409q-18 -2 -41.5 -7.5t-60.5 -20.5l3 56q8 3 18.5 6.5t24.5 7.5q15 5 35 9.5t45 7.5l54 123l87 -42l-38 -74q3 0 12 0.5t21 0.5t25.5 0.5t28.5 0.5h2.5h3.5q19 0 34 -2t30 -5
q2 -1 5 -1.5t6 -1.5l-47 -69q-21 6 -38.5 10t-34.5 5q-9 1 -18 1.5t-19 0.5h-20t-21 -1l-105 -208v0z" />
    <glyph glyph-name="O" horiz-adv-x="422" 
d="M198 395l67 -40l-111 -196l5 -2q6 6 11 10.5t10 8.5q0 1 0.5 1.5l1.5 1.5l9 9l11 11q35 36 89.5 84t151.5 105l35 -65q-92 -43 -137.5 -75t-65.5 -49q-2 -1 -3.5 -2.5l-2.5 -2.5q-2 -1 -3.5 -2.5l-2.5 -2.5l-4 -4t-4 -5l1 -5q3 1 5.5 1.5t4.5 0.5q3 1 6.5 1h7.5
q15 0 21 -9t7 -19v-3.5v-3.5q0 -6 -2.5 -11.5t-4.5 -10.5q-1 -1 -1 -1.5v-0.5q-2 -2 -3 -4.5t-2 -4.5l-4 -12t-3 -12v-2v-2v-2v-2v-3.5t1 -5.5q2 -4 5 -7.5t10 -3.5q10 0 30.5 8.5t42.5 20.5q7 3 13 6.5t13 7.5q14 8 25.5 16t19.5 14l-22 -68q-64 -56 -106.5 -66t-62.5 -10
q-26 0 -38.5 11.5t-16.5 26.5q-2 6 -2.5 11.5t-0.5 10.5q0 4 1 10l2 12q1 7 3 13.5t4 10.5q4 8 6 11t3 5q0 1 0.5 2t0.5 3q0 1 0.5 2.5t0.5 3.5v0.5v1.5v1.5v0.5q-1 2 -2.5 3.5t-3.5 1.5q0 1 -0.5 1h-1.5q-9 0 -30.5 -20t-45.5 -47q-5 -6 -9.5 -11t-8.5 -10
q-11 -13 -21.5 -26t-18.5 -23l-72 20l192 382v0z" />
    <glyph glyph-name="O" unicode="&#x45c;" horiz-adv-x="422" 
d="M198 395l67 -40l-111 -196l5 -2q6 6 11 10.5t10 8.5q0 1 0.5 1.5l1.5 1.5l9 9l11 11q35 36 89.5 84t151.5 105l35 -65q-92 -43 -137.5 -75t-65.5 -49q-2 -1 -3.5 -2.5l-2.5 -2.5q-2 -1 -3.5 -2.5l-2.5 -2.5l-4 -4t-4 -5l1 -5q3 1 5.5 1.5t4.5 0.5q3 1 6.5 1h7.5
q15 0 21 -9t7 -19v-3.5v-3.5q0 -6 -2.5 -11.5t-4.5 -10.5q-1 -1 -1 -1.5v-0.5q-2 -2 -3 -4.5t-2 -4.5l-4 -12t-3 -12v-2v-2v-2v-2v-3.5t1 -5.5q2 -4 5 -7.5t10 -3.5q10 0 30.5 8.5t42.5 20.5q7 3 13 6.5t13 7.5q14 8 25.5 16t19.5 14l-22 -68q-64 -56 -106.5 -66t-62.5 -10
q-26 0 -38.5 11.5t-16.5 26.5q-2 6 -2.5 11.5t-0.5 10.5q0 4 1 10l2 12q1 7 3 13.5t4 10.5q4 8 6 11t3 5q0 1 0.5 2t0.5 3q0 1 0.5 2.5t0.5 3.5v0.5v1.5v1.5v0.5q-1 2 -2.5 3.5t-3.5 1.5q0 1 -0.5 1h-1.5q-9 0 -30.5 -20t-45.5 -47q-5 -6 -9.5 -11t-8.5 -10
q-11 -13 -21.5 -26t-18.5 -23l-72 20l192 382v0z" />
    <glyph glyph-name="tilde" horiz-adv-x="419" 
d="M258 620l87 -42l-38 -74q3 0 12 0.5t21 0.5t25.5 0.5t28.5 0.5h2.5h3.5q19 0 34 -2t30 -5q2 -1 5 -1.5t6 -1.5l-47 -69q-21 6 -38.5 10t-34.5 5q-9 1 -18 1.5t-19 0.5h-20t-21 -1l-122 -242l7 -6q6 6 12 12.5t12 13.5q11 13 23.5 25.5l24.5 24.5q37 36 72.5 61.5
t59.5 25.5q26 0 38.5 -16t15.5 -36q1 -3 1 -5.5v-5.5q0 -18 -13 -42.5t-29 -51.5q-4 -6 -7 -12t-7 -12q-1 -3 -3 -6.5t-4 -7.5q-17 -34 -21 -43t-4 -12q0 -1 0.5 -2t0.5 -3q1 -3 4.5 -5.5t7.5 -2.5q9 0 29 8t69 28l-21 -68q-68 -39 -95 -51t-42 -12h-1.5h-1.5
q-19 1 -34.5 14t-15.5 40q0 14 11 46t51 103q1 2 3 5t3 6q2 2 3 5t3 6q2 5 4 11t2 10t-1.5 6t-3.5 3q-1 0 -1.5 0.5l-0.5 0.5h-1.5h-0.5h-1.5h-1.5q-9 -1 -26.5 -12.5t-65.5 -66.5q-6 -7 -11.5 -13.5t-11.5 -12.5q-28 -33 -54 -68t-50 -83l-76 29l174 409q-18 -2 -41.5 -7.5
t-60.5 -20.5l3 56q8 3 18.5 6.5t24.5 7.5q15 5 35 9.5t45 7.5l54 123v0z" />
    <glyph glyph-name="tilde" unicode="&#x45b;" horiz-adv-x="419" 
d="M258 620l87 -42l-38 -74q3 0 12 0.5t21 0.5t25.5 0.5t28.5 0.5h2.5h3.5q19 0 34 -2t30 -5q2 -1 5 -1.5t6 -1.5l-47 -69q-21 6 -38.5 10t-34.5 5q-9 1 -18 1.5t-19 0.5h-20t-21 -1l-122 -242l7 -6q6 6 12 12.5t12 13.5q11 13 23.5 25.5l24.5 24.5q37 36 72.5 61.5
t59.5 25.5q26 0 38.5 -16t15.5 -36q1 -3 1 -5.5v-5.5q0 -18 -13 -42.5t-29 -51.5q-4 -6 -7 -12t-7 -12q-1 -3 -3 -6.5t-4 -7.5q-17 -34 -21 -43t-4 -12q0 -1 0.5 -2t0.5 -3q1 -3 4.5 -5.5t7.5 -2.5q9 0 29 8t69 28l-21 -68q-68 -39 -95 -51t-42 -12h-1.5h-1.5
q-19 1 -34.5 14t-15.5 40q0 14 11 46t51 103q1 2 3 5t3 6q2 2 3 5t3 6q2 5 4 11t2 10t-1.5 6t-3.5 3q-1 0 -1.5 0.5l-0.5 0.5h-1.5h-0.5h-1.5h-1.5q-9 -1 -26.5 -12.5t-65.5 -66.5q-6 -7 -11.5 -13.5t-11.5 -12.5q-28 -33 -54 -68t-50 -83l-76 29l174 409q-18 -2 -41.5 -7.5
t-60.5 -20.5l3 56q8 3 18.5 6.5t24.5 7.5q15 5 35 9.5t45 7.5l54 123v0z" />
    <glyph glyph-name="uni00A0" unicode="&#xa0;" 
 />
    <glyph glyph-name="Z" unicode="&#xa1;" horiz-adv-x="542" 
d="M331 703l82 -44q-9 -15 -24 -41.5t-31 -57.5l-10 -20l-10 -20q-18 -37 -30.5 -71t-12.5 -56q0 -14 6.5 -20t14.5 -7q1 -1 3 -1h3q41 0 118.5 72t171.5 222l82 -43q-42 -74 -71.5 -135t-55.5 -117q-2 -4 -4 -8.5t-4 -8.5q-64 -136 -139 -243.5t-205 -107.5q-44 0 -76.5 18
t-52.5 40q-16 17 -23.5 32t-7.5 22q0 3 2 5.5t5 3.5l1.5 1.5t1.5 0.5l54 32q2 2 5 3t7 1t8 -3.5t7 -9.5q4 -7 8 -15.5t9 -17.5q10 -17 26.5 -31.5t46.5 -14.5q29 0 53.5 14.5t47.5 42.5q28 33 56.5 84t63.5 120q6 12 10.5 21.5t9.5 17.5q1 3 2 5t3 4q5 10 11 20t13 22l-8 7
q-4 -5 -9 -10.5t-10 -10.5q-26 -28 -59.5 -54t-68.5 -42q-21 -10 -41.5 -16t-39.5 -6q-30 0 -44.5 13.5t-20.5 30.5q-4 10 -5 19.5t-1 15.5q0 29 20.5 99.5t111.5 242.5v0zM419 821l82 3v-2.5v-2.5q-1 -1 -1 -2.5v-2.5q1 -23 15 -40t41 -17q3 0 6 0.5t5 0.5q20 4 39.5 18
t34.5 30q7 8 13.5 15t11.5 13l39 -32q-28 -40 -76 -71.5t-104 -31.5q-51 0 -75.5 27t-29.5 60q-1 5 -1.5 10t-0.5 10v7.5t1 7.5v0z" />
    <glyph glyph-name="Z" unicode="&#x40e;" horiz-adv-x="542" 
d="M331 703l82 -44q-9 -15 -24 -41.5t-31 -57.5l-10 -20l-10 -20q-18 -37 -30.5 -71t-12.5 -56q0 -14 6.5 -20t14.5 -7q1 -1 3 -1h3q41 0 118.5 72t171.5 222l82 -43q-42 -74 -71.5 -135t-55.5 -117q-2 -4 -4 -8.5t-4 -8.5q-64 -136 -139 -243.5t-205 -107.5q-44 0 -76.5 18
t-52.5 40q-16 17 -23.5 32t-7.5 22q0 3 2 5.5t5 3.5l1.5 1.5t1.5 0.5l54 32q2 2 5 3t7 1t8 -3.5t7 -9.5q4 -7 8 -15.5t9 -17.5q10 -17 26.5 -31.5t46.5 -14.5q29 0 53.5 14.5t47.5 42.5q28 33 56.5 84t63.5 120q6 12 10.5 21.5t9.5 17.5q1 3 2 5t3 4q5 10 11 20t13 22l-8 7
q-4 -5 -9 -10.5t-10 -10.5q-26 -28 -59.5 -54t-68.5 -42q-21 -10 -41.5 -16t-39.5 -6q-30 0 -44.5 13.5t-20.5 30.5q-4 10 -5 19.5t-1 15.5q0 29 20.5 99.5t111.5 242.5v0zM419 821l82 3v-2.5v-2.5q-1 -1 -1 -2.5v-2.5q1 -23 15 -40t41 -17q3 0 6 0.5t5 0.5q20 4 39.5 18
t34.5 30q7 8 13.5 15t11.5 13l39 -32q-28 -40 -76 -71.5t-104 -31.5q-51 0 -75.5 27t-29.5 60q-1 5 -1.5 10t-0.5 10v7.5t1 7.5v0z" />
    <glyph glyph-name="slash" unicode="&#xa2;" horiz-adv-x="468" 
d="M191 409l70 -36l-92 -170q-31 -58 -36.5 -73t-5.5 -17q0 -8 3 -11t6 -3h0.5h1.5h2h2h2h2q28 4 92.5 67t136.5 180q2 4 4.5 7.5t4.5 7.5l69 -35q-24 -42 -58 -104.5t-70 -133.5q-11 -22 -21.5 -43.5t-21.5 -43.5q-29 -60 -54 -118.5t-42 -108.5l-84 17q11 38 32 85.5
t48 97.5q11 21 23 41t23 41q3 3 5 6.5t4 7.5q8 14 13.5 22.5t9.5 16.5l6 10t7 11l-7 3l-11.5 -11.5l-11.5 -11.5q-14 -14 -29 -27t-29 -26q-30 -24 -58.5 -40t-52.5 -16q-4 0 -9.5 1.5t-11.5 4.5q-9 6 -17 18.5t-8 34.5q0 7 21.5 76.5t141.5 272.5v0zM251 590l82 4
q0 -6 0.5 -13.5t3.5 -15.5q4 -15 15.5 -27t35.5 -12q3 0 6 0.5t5 0.5q20 4 39.5 18t34.5 30q7 8 13.5 15t11.5 13l40 -32l-4 -4l-3 -3l-0.5 -0.5l-0.5 -0.5q-2 -2 -5 -5.5t-8 -8.5q-6 -6 -12.5 -13t-14.5 -15q-22 -19 -54.5 -35.5t-78.5 -16.5q-48 0 -70.5 22t-30.5 48
q-3 10 -4 20.5t-1 19.5v6v5v0z" />
    <glyph glyph-name="slash" unicode="&#x45e;" horiz-adv-x="468" 
d="M191 409l70 -36l-92 -170q-31 -58 -36.5 -73t-5.5 -17q0 -8 3 -11t6 -3h0.5h1.5h2h2h2h2q28 4 92.5 67t136.5 180q2 4 4.5 7.5t4.5 7.5l69 -35q-24 -42 -58 -104.5t-70 -133.5q-11 -22 -21.5 -43.5t-21.5 -43.5q-29 -60 -54 -118.5t-42 -108.5l-84 17q11 38 32 85.5
t48 97.5q11 21 23 41t23 41q3 3 5 6.5t4 7.5q8 14 13.5 22.5t9.5 16.5l6 10t7 11l-7 3l-11.5 -11.5l-11.5 -11.5q-14 -14 -29 -27t-29 -26q-30 -24 -58.5 -40t-52.5 -16q-4 0 -9.5 1.5t-11.5 4.5q-9 6 -17 18.5t-8 34.5q0 7 21.5 76.5t141.5 272.5v0zM251 590l82 4
q0 -6 0.5 -13.5t3.5 -15.5q4 -15 15.5 -27t35.5 -12q3 0 6 0.5t5 0.5q20 4 39.5 18t34.5 30q7 8 13.5 15t11.5 13l40 -32l-4 -4l-3 -3l-0.5 -0.5l-0.5 -0.5q-2 -2 -5 -5.5t-8 -8.5q-6 -6 -12.5 -13t-14.5 -15q-22 -19 -54.5 -35.5t-78.5 -16.5q-48 0 -70.5 22t-30.5 48
q-3 10 -4 20.5t-1 19.5v6v5v0z" />
    <glyph glyph-name="endash" unicode="&#xa3;" horiz-adv-x="434" 
d="M578 669l38 -55q-27 -25 -75 -95.5t-113 -236.5q-11 -28 -21.5 -54.5t-21.5 -51.5q-69 -167 -145 -269t-186 -102q-7 0 -13.5 0.5t-13.5 1.5q-27 4 -52 14.5t-35 21.5q-3 3 -4.5 6t-1.5 6v3v2q1 1 1 1.5t1 1.5l43 62q1 1 2 2.5t3 2.5v0v0q1 2 2.5 3l1.5 1h0.5h1.5h1.5
h0.5q2 -1 4 -2.5t3 -3.5h0.5h0.5v-1.5t1 -1.5q11 -15 25 -24.5t29 -14.5q8 -3 15.5 -4t14.5 -1q37 0 90 80.5t161 338.5q52 125 85 183.5t63 85.5q11 10 22.5 17.5t23.5 14.5l-5 10q-3 -1 -7 -1.5t-9 -1.5q-7 -1 -14.5 -2.5t-15.5 -2.5q-9 -1 -17.5 -1.5t-15.5 -0.5
q-10 0 -20.5 1.5t-21.5 3.5q-5 1 -10 2.5t-11 3.5q-6 1 -13 3t-14 3q-3 0 -6.5 0.5t-6.5 0.5q-7 0 -16 -1.5t-18 -4.5q-10 -4 -19.5 -10.5t-17.5 -15.5l-57 78q34 27 63.5 32t51.5 5q24 0 44 -4t38 -10q7 -2 13.5 -3.5t12.5 -3.5q35 -10 57.5 -14t41.5 -4q5 0 10 0.5t11 1.5
q5 0 10 1.5t10 2.5v0z" />
    <glyph glyph-name="endash" unicode="&#x408;" horiz-adv-x="434" 
d="M578 669l38 -55q-27 -25 -75 -95.5t-113 -236.5q-11 -28 -21.5 -54.5t-21.5 -51.5q-69 -167 -145 -269t-186 -102q-7 0 -13.5 0.5t-13.5 1.5q-27 4 -52 14.5t-35 21.5q-3 3 -4.5 6t-1.5 6v3v2q1 1 1 1.5t1 1.5l43 62q1 1 2 2.5t3 2.5v0v0q1 2 2.5 3l1.5 1h0.5h1.5h1.5
h0.5q2 -1 4 -2.5t3 -3.5h0.5h0.5v-1.5t1 -1.5q11 -15 25 -24.5t29 -14.5q8 -3 15.5 -4t14.5 -1q37 0 90 80.5t161 338.5q52 125 85 183.5t63 85.5q11 10 22.5 17.5t23.5 14.5l-5 10q-3 -1 -7 -1.5t-9 -1.5q-7 -1 -14.5 -2.5t-15.5 -2.5q-9 -1 -17.5 -1.5t-15.5 -0.5
q-10 0 -20.5 1.5t-21.5 3.5q-5 1 -10 2.5t-11 3.5q-6 1 -13 3t-14 3q-3 0 -6.5 0.5t-6.5 0.5q-7 0 -16 -1.5t-18 -4.5q-10 -4 -19.5 -10.5t-17.5 -15.5l-57 78q34 27 63.5 32t51.5 5q24 0 44 -4t38 -10q7 -2 13.5 -3.5t12.5 -3.5q35 -10 57.5 -14t41.5 -4q5 0 10 0.5t11 1.5
q5 0 10 1.5t10 2.5v0z" />
    <glyph glyph-name="currency" unicode="&#xa4;" horiz-adv-x="774" 
d="M762 648l40 -40l-101 -100q23 -27 37 -57t20 -60q4 -15 5.5 -30t1.5 -30t-1.5 -30t-5.5 -30q-6 -30 -20 -60t-37 -57l101 -100l-40 -40l-100 101q-27 -22 -57 -36.5t-60 -20.5q-15 -4 -30 -5.5t-30 -1.5t-30 1.5t-30 5.5q-30 6 -60 20.5t-57 36.5l-100 -101l-40 40
l101 100q-22 27 -36.5 57t-20.5 60q-4 15 -5.5 30t-1.5 30t1.5 30t5.5 30q6 30 20.5 60t36.5 57l-101 100l40 40l100 -101q27 23 57 37t60 20q15 4 30 5.5t30 1.5t30 -1.5t30 -5.5q30 -6 60 -20t57 -37l100 101v0zM261 331q0 -96 66.5 -163t157.5 -67q92 0 158 67t66 163
t-66 163t-158 67q-91 0 -157.5 -67t-66.5 -163v0z" />
    <glyph glyph-name="emdash" unicode="&#xa5;" horiz-adv-x="502" 
d="M604 612q-4 -5 -7.5 -9.5t-6.5 -9.5q-4 -5 -7.5 -10.5t-7.5 -10.5q-14 -24 -32 -58t-49 -95q-16 -32 -34 -67t-38 -71q-58 -108 -133.5 -197t-176.5 -89q-30 0 -55 12t-40 27q-8 8 -12.5 15.5t-4.5 13.5q0 5 1.5 8.5t4.5 6.5l44 48l0.5 0.5l1.5 1.5t3 2t5 1q5 0 7.5 -2
t5.5 -5q0 -1 0.5 -1.5l1.5 -1.5q2 -2 4 -4.5t5 -5.5q8 -8 19.5 -15t23.5 -11q5 -1 9.5 -2t9.5 -1q38 0 69.5 34t55.5 75q14 24 25 47t19 39q21 42 40.5 78t38.5 70q19 31 37 60t38 58q10 16 21 32t23 32q-29 -4 -94 -25t-160 -88l-49 78q101 64 199 86.5t186 22.5h30t33 -1
q23 0 44.5 -1t37.5 -2q6 16 11.5 28t11.5 23q4 9 9 17t11 16q0 1 0.5 1.5l1.5 1.5h85q-12 -21 -21.5 -37t-16.5 -31q-6 -12 -11.5 -24.5t-10.5 -27.5q-3 -7 -5.5 -16t-5.5 -19q-33 2 -68.5 3t-72.5 1h-26.5t-27.5 -1v0z" />
    <glyph glyph-name="emdash" unicode="&#x490;" horiz-adv-x="502" 
d="M604 612q-4 -5 -7.5 -9.5t-6.5 -9.5q-4 -5 -7.5 -10.5t-7.5 -10.5q-14 -24 -32 -58t-49 -95q-16 -32 -34 -67t-38 -71q-58 -108 -133.5 -197t-176.5 -89q-30 0 -55 12t-40 27q-8 8 -12.5 15.5t-4.5 13.5q0 5 1.5 8.5t4.5 6.5l44 48l0.5 0.5l1.5 1.5t3 2t5 1q5 0 7.5 -2
t5.5 -5q0 -1 0.5 -1.5l1.5 -1.5q2 -2 4 -4.5t5 -5.5q8 -8 19.5 -15t23.5 -11q5 -1 9.5 -2t9.5 -1q38 0 69.5 34t55.5 75q14 24 25 47t19 39q21 42 40.5 78t38.5 70q19 31 37 60t38 58q10 16 21 32t23 32q-29 -4 -94 -25t-160 -88l-49 78q101 64 199 86.5t186 22.5h30t33 -1
q23 0 44.5 -1t37.5 -2q6 16 11.5 28t11.5 23q4 9 9 17t11 16q0 1 0.5 1.5l1.5 1.5h85q-12 -21 -21.5 -37t-16.5 -31q-6 -12 -11.5 -24.5t-10.5 -27.5q-3 -7 -5.5 -16t-5.5 -19q-33 2 -68.5 3t-72.5 1h-26.5t-27.5 -1v0z" />
    <glyph glyph-name="circumflex" unicode="&#xa6;" horiz-adv-x="350" 
d="M173 93h34h0.5h0.5h6t8 -2q6 -1 11 -6t5 -16q0 -6 -2 -13t-6 -14q-9 -18 -26.5 -32.5t-36.5 -17.5h-2.5h-2.5v0v0h-1v0q-2 0 -7 0.5t-10 1.5q-7 3 -12.5 8t-5.5 16q0 6 1.5 14t4.5 17q5 16 15.5 30t25.5 14v0zM299 373h34h0.5h0.5h6t8 -2q6 -1 11 -6t5 -16q0 -6 -2 -13
t-6 -14q-9 -18 -26.5 -33t-36.5 -18h-2.5h-2.5v0v0h-1v0q-2 0 -7 0.5t-10 1.5q-7 3 -12.5 8.5t-5.5 16.5q0 6 1.5 14t4.5 17q5 16 15.5 30t25.5 14v0z" />
    <glyph glyph-name="scaron" unicode="&#xa7;" horiz-adv-x="574" 
d="M669 520l-88 1q0 1 0.5 4t1.5 6v2v1q1 5 1.5 9t0.5 5q0 23 -11 39t-30 16q-5 0 -10 -0.5t-11 -2.5q-17 -6 -32 -23.5t-15 -55.5q0 -12 1 -24t3 -24l2 -12l2 -12q3 -12 6 -23.5t6 -23.5q7 -30 13.5 -61.5t6.5 -64.5q0 -90 -50 -166t-151 -87v-7.5v-7.5q0 -80 -50 -129
t-119 -49q-55 0 -85.5 39t-32.5 85v3.5v2.5q0 6 0.5 12t1.5 11l102 -1v-25q0 -3 0.5 -7.5t1.5 -9.5q2 -15 10.5 -27t24.5 -12q3 0 6 0.5t6 1.5q17 5 30.5 22.5t13.5 50.5q0 9 -0.5 17t-0.5 17q-1 9 -2 17.5t-3 17.5q-2 12 -4.5 24t-5.5 24q-6 29 -11.5 59.5t-5.5 61.5
q0 92 44 164t111 84l18 -59q-38 -14 -54.5 -50t-21.5 -76q-1 -11 -1.5 -22t-0.5 -21q0 -15 4 -35t10 -60q1 -5 1.5 -9t1.5 -8v-1.5v-0.5q1 -7 2.5 -15.5t3.5 -23.5q48 3 78.5 48.5t30.5 122.5q0 21 -3 42t-7 42q-1 5 -2 10.5t-2 10.5q-13 70 -16 104t-3 56q0 9 1.5 17.5
t4.5 17.5q13 45 57 82.5t105 37.5t89.5 -37t28.5 -81v-1.5v-1.5v-8t-1 -7q0 -4 -0.5 -8t-1.5 -8v0z" />
    <glyph glyph-name="H" unicode="&#xa8;" horiz-adv-x="543" 
d="M502 205l59 -66q-15 -14 -30.5 -27t-30.5 -25q-53 -42 -107 -67t-114 -25q-71 0 -111 30.5t-51 67.5q-3 7 -4 15t-1 15q0 22 10.5 59t53.5 77q22 20 55 40t79 38v8h-8q-43 0 -65 26t-22 63q0 79 61.5 141.5t136.5 96.5q34 16 68 24.5t61 8.5q53 0 90 -30t37 -83
q0 -12 -3 -25t-9 -27q-6 -13 -15.5 -26.5t-21.5 -25.5l-71 51q2 4 5.5 9t7.5 11q1 2 2.5 4t2.5 5q5 8 8.5 16t3.5 13q0 19 -10.5 31t-27.5 12q-20 0 -45 -11t-51 -29q-28 -19 -54 -43.5t-46 -50.5q-18 -23 -28.5 -45t-10.5 -40q0 -17 14 -25.5t30 -8.5q9 0 20 2t22 6
q10 3 19.5 7t17.5 8q4 1 7 2.5t6 3.5l31 -56q-8 -5 -13.5 -8t-11.5 -6q-1 -1 -2 -1.5t-2 -1.5q-4 -1 -7.5 -3t-7.5 -4q-139 -76 -178 -132t-39 -88q0 -5 0.5 -10t2.5 -11q4 -14 15.5 -25.5t35.5 -11.5q16 0 33 4.5t34 11.5q33 15 64.5 38.5t59.5 48.5q13 12 24 23l21 21v0z
M458 821l33 -1h0.5h1.5h4h5q6 -1 11.5 -4.5t5.5 -12.5q0 -13 -4.5 -21t-9.5 -15q-14 -18 -22.5 -28t-15.5 -15q-7 -3 -13.5 -4t-16.5 -1q-11 0 -20 3t-12 14q0 1 -0.5 2t-0.5 2v2v2v1.5t1 1.5v1.5v1.5t0.5 2t0.5 2q2 6 5 12t8 17q12 29 22 33.5t16 4.5h1v0v0zM626 821l33 -1
h0.5h1.5h4h5q6 -1 11.5 -4.5t5.5 -12.5q0 -13 -4.5 -21t-9.5 -15q-14 -18 -22.5 -28t-15.5 -15q-7 -3 -13.5 -4t-16.5 -1q-11 0 -20 3t-12 14q0 1 -0.5 2t-0.5 2v2v2v1.5t1 1.5v1.5v1.5t0.5 2t0.5 2q2 6 5 12t8 17q12 29 22 33.5t16 4.5h1v0v0z" />
    <glyph glyph-name="H" unicode="&#x401;" horiz-adv-x="543" 
d="M502 205l59 -66q-15 -14 -30.5 -27t-30.5 -25q-53 -42 -107 -67t-114 -25q-71 0 -111 30.5t-51 67.5q-3 7 -4 15t-1 15q0 22 10.5 59t53.5 77q22 20 55 40t79 38v8h-8q-43 0 -65 26t-22 63q0 79 61.5 141.5t136.5 96.5q34 16 68 24.5t61 8.5q53 0 90 -30t37 -83
q0 -12 -3 -25t-9 -27q-6 -13 -15.5 -26.5t-21.5 -25.5l-71 51q2 4 5.5 9t7.5 11q1 2 2.5 4t2.5 5q5 8 8.5 16t3.5 13q0 19 -10.5 31t-27.5 12q-20 0 -45 -11t-51 -29q-28 -19 -54 -43.5t-46 -50.5q-18 -23 -28.5 -45t-10.5 -40q0 -17 14 -25.5t30 -8.5q9 0 20 2t22 6
q10 3 19.5 7t17.5 8q4 1 7 2.5t6 3.5l31 -56q-8 -5 -13.5 -8t-11.5 -6q-1 -1 -2 -1.5t-2 -1.5q-4 -1 -7.5 -3t-7.5 -4q-139 -76 -178 -132t-39 -88q0 -5 0.5 -10t2.5 -11q4 -14 15.5 -25.5t35.5 -11.5q16 0 33 4.5t34 11.5q33 15 64.5 38.5t59.5 48.5q13 12 24 23l21 21v0z
M458 821l33 -1h0.5h1.5h4h5q6 -1 11.5 -4.5t5.5 -12.5q0 -13 -4.5 -21t-9.5 -15q-14 -18 -22.5 -28t-15.5 -15q-7 -3 -13.5 -4t-16.5 -1q-11 0 -20 3t-12 14q0 1 -0.5 2t-0.5 2v2v2v1.5t1 1.5v1.5v1.5t0.5 2t0.5 2q2 6 5 12t8 17q12 29 22 33.5t16 4.5h1v0v0zM626 821l33 -1
h0.5h1.5h4h5q6 -1 11.5 -4.5t5.5 -12.5q0 -13 -4.5 -21t-9.5 -15q-14 -18 -22.5 -28t-15.5 -15q-7 -3 -13.5 -4t-16.5 -1q-11 0 -20 3t-12 14q0 1 -0.5 2t-0.5 2v2v2v1.5t1 1.5v1.5v1.5t0.5 2t0.5 2q2 6 5 12t8 17q12 29 22 33.5t16 4.5h1v0v0z" />
    <glyph glyph-name="I" unicode="&#xa9;" horiz-adv-x="840" 
d="M168 336q0 158 107.5 253t236.5 97h3.5h2.5q147 0 248.5 -103.5t101.5 -246.5q0 -142 -101.5 -245.5t-248.5 -103.5q-144 0 -247 101t-103 248v0zM224 336q0 -124 87 -209t207 -85q123 0 208.5 87t85.5 207t-85.5 207t-208.5 87q-120 0 -207 -85t-87 -209v0zM568 391
q15 21 18 32.5t3 16.5q0 2 -0.5 4t-0.5 4q-2 8 -10 15t-21 7q-11 0 -23.5 -5.5t-24.5 -15.5q-32 -25 -58 -72.5t-26 -103.5q0 -25 10 -39.5t23 -19.5q5 -3 10.5 -4t9.5 -1q10 0 21 3t22 8q8 3 16.5 7.5t16.5 8.5q11 7 21 13t16 10l26 -42q-6 -5 -13 -10l-14 -10
q-20 -13 -43 -25t-47 -19q-10 -2 -19 -3.5t-18 -1.5q-8 0 -17.5 1t-18.5 4q-29 9 -52.5 35t-23.5 80q0 87 53 159t117 97q13 5 26 7.5t25 2.5q4 0 9 -0.5t9 -1.5q23 -4 42 -20t19 -49q0 -11 -2 -24t-6 -25q-4 -11 -9 -21.5t-11 -20.5l-55 19v0z" />
    <glyph glyph-name="J" unicode="&#xaa;" horiz-adv-x="531" 
d="M523 145l-26 -82q-25 -18 -56 -32.5t-63 -23.5q-21 -6 -41 -8.5t-39 -2.5q-66 0 -119 49t-53 150q0 8 0.5 15.5t0.5 14.5q12 147 116.5 277.5t226.5 176.5q26 9 51 14t49 5q59 0 94 -31t35 -78q0 -31 -16 -59t-36 -47q-3 -3 -5.5 -6t-5.5 -5l-73 44q4 3 8 7l8 8
q9 9 17.5 21t12.5 24q2 5 3 9.5t1 9.5v3.5t-1 3.5q-2 13 -13 23.5t-33 10.5q-30 0 -71.5 -20t-85.5 -58q-35 -31 -69 -72.5t-62 -93.5q49 19 84.5 22.5t61.5 3.5q29 0 52 -11.5t23 -31.5q0 -4 -1.5 -9.5t-4.5 -10.5l-22 -37q-6 -9 -13.5 -5.5t-16.5 10.5l-0.5 0.5l-0.5 0.5
q-3 2 -7 5t-10 6q-12 6 -30.5 11t-45.5 5q-9 0 -19.5 -1.5t-20.5 -3.5q-12 -2 -24 -5.5t-22 -7.5l-6 -2l-6 -2q-7 -18 -13 -39.5t-10 -43.5q-2 -13 -3.5 -26t-1.5 -25q0 -70 31 -100t89 -30q12 0 24 2t24 5q37 9 71.5 29.5t62.5 43.5v0z" />
    <glyph glyph-name="J" unicode="&#x404;" horiz-adv-x="531" 
d="M523 145l-26 -82q-25 -18 -56 -32.5t-63 -23.5q-21 -6 -41 -8.5t-39 -2.5q-66 0 -119 49t-53 150q0 8 0.5 15.5t0.5 14.5q12 147 116.5 277.5t226.5 176.5q26 9 51 14t49 5q59 0 94 -31t35 -78q0 -31 -16 -59t-36 -47q-3 -3 -5.5 -6t-5.5 -5l-73 44q4 3 8 7l8 8
q9 9 17.5 21t12.5 24q2 5 3 9.5t1 9.5v3.5t-1 3.5q-2 13 -13 23.5t-33 10.5q-30 0 -71.5 -20t-85.5 -58q-35 -31 -69 -72.5t-62 -93.5q49 19 84.5 22.5t61.5 3.5q29 0 52 -11.5t23 -31.5q0 -4 -1.5 -9.5t-4.5 -10.5l-22 -37q-6 -9 -13.5 -5.5t-16.5 10.5l-0.5 0.5l-0.5 0.5
q-3 2 -7 5t-10 6q-12 6 -30.5 11t-45.5 5q-9 0 -19.5 -1.5t-20.5 -3.5q-12 -2 -24 -5.5t-22 -7.5l-6 -2l-6 -2q-7 -18 -13 -39.5t-10 -43.5q-2 -13 -3.5 -26t-1.5 -25q0 -70 31 -100t89 -30q12 0 24 2t24 5q37 9 71.5 29.5t62.5 43.5v0z" />
    <glyph glyph-name="ampersand" unicode="&#xab;" horiz-adv-x="490" 
d="M263 360l47 -43q-50 -48 -66 -63.5t-24 -23.5q-1 0 -1.5 -0.5l-0.5 -0.5q-2 -2 -4 -3t-4 -3q-13 -9 -18.5 -14t-5.5 -9q0 -10 23 -40.5t73 -98.5l-58 -42q-26 45 -46 75t-39 58q-1 1 -1.5 2t-1.5 2q-17 25 -20.5 33.5t-3.5 10.5q0 5 6.5 13.5t28.5 27.5q9 8 18 16.5
t19 17.5q11 11 22.5 23t22.5 24q9 9 17.5 19t16.5 19v0zM432 347l44 -40q-62 -67 -89.5 -84t-28.5 -23v-1v0q0 -1 12 -17t73 -91l-58 -43q-17 28 -30.5 47.5t-25.5 37.5q-2 2 -3.5 4t-2.5 4q-3 4 -6.5 8.5t-6.5 9.5q-16 22 -18.5 30.5t-2.5 10.5q0 3 3 7.5t8 9.5q1 2 3 3.5
t3 3.5q5 5 9.5 8.5t6.5 5.5q23 20 45 41.5t43 44.5q6 5 11.5 11t10.5 12v0z" />
    <glyph glyph-name="quotesingle" unicode="&#xac;" horiz-adv-x="672" 
d="M175 324v56h504v-195h-60v139h-444v0z" />
    <glyph glyph-name="daggerdbl" unicode="&#xad;" horiz-adv-x="406" 
d="M116 199l26 38q2 3 4 5.5t5 4.5q5 4 10.5 4.5t12.5 0.5h1.5h1.5h13.5h12.5q6 -1 12.5 -1h13.5q20 0 43.5 2t61.5 6q17 2 24 3t13 1q1 1 2.5 1h2.5h1.5h1.5h0.5h0.5h2h2q3 -1 4.5 -2.5t2.5 -3.5q0 -1 0.5 -2t0.5 -2q0 -37 -21.5 -54t-47.5 -23q-15 -3 -29.5 -4t-24.5 -1
h-14h-14q-15 0 -29 0.5t-29 -0.5h-14h-15h-3.5h-3.5h-3.5h-3.5t-4 0.5t-4 0.5q-7 1 -13.5 4t-6.5 10q0 3 1.5 6t2.5 6v0z" />
    <glyph glyph-name="dagger" unicode="&#xae;" horiz-adv-x="840" 
d="M168 336q0 147 103 248.5t247 101.5q147 0 248.5 -103.5t101.5 -246.5q0 -142 -101.5 -245.5t-248.5 -103.5q-144 0 -247 101t-103 248v0zM224 336q0 -124 87 -209t207 -85q123 0 208.5 87t85.5 207t-85.5 207t-208.5 87q-120 0 -207 -85t-87 -209v0zM415 405l-47 39
q45 53 95.5 74t115.5 21q58 0 93.5 -29.5t35.5 -73.5q0 -38 -19.5 -61.5t-43.5 -36.5q-13 -8 -25 -12.5t-21 -6.5v-7v-6v-13t1 -11q0 -5 0.5 -10t1.5 -10q0 -4 0.5 -8.5t1.5 -9.5q2 -8 5.5 -15.5t10.5 -9.5h2h2v0h1h1h1q2 0 9 3.5t27 16.5l24 -42q-30 -20 -45 -27.5
t-28 -9.5h-4h-4q-33 0 -46.5 37.5t-15.5 82.5q-1 9 -1 17.5v17.5v24.5t1 21.5q4 1 7.5 1.5t7.5 0.5q32 7 59.5 22t27.5 49q0 18 -12.5 32.5t-32.5 15.5q-6 -5 -11.5 -11t-10.5 -13q-17 -22 -36 -59t-47 -104q-4 -9 -8.5 -19t-9.5 -20q-18 -38 -46.5 -69.5t-71.5 -30.5h-6.5
t-7.5 1q-2 0 -3.5 0.5t-3.5 0.5l-10 56q5 -1 9.5 -1.5t8.5 -0.5q32 0 52.5 26t39.5 66q6 13 12 27t12 29q5 11 10 23t11 24q12 23 27.5 45t36.5 38q-10 0 -20 -2.5t-20 -7.5q-26 -11 -51 -31.5t-42 -43.5v0z" />
    <glyph glyph-name="macron" unicode="&#xaf;" horiz-adv-x="434" 
d="M578 669l38 -55q-28 -27 -48 -51.5t-35 -47.5q-16 -25 -28 -49.5t-23 -53.5q-5 -11 -9.5 -23.5t-9.5 -25.5q-10 -27 -29 -74.5t-48 -99.5q-41 -74 -103.5 -136t-147.5 -62q-31 0 -55.5 8t-41.5 17q-11 8 -17.5 14.5t-6.5 9.5v0.5t1 1.5v1.5v0.5v0.5v1.5t0.5 1.5l0.5 0.5
l44 63l1.5 1.5l2.5 2.5l3 3l1 1h0.5h1.5h1.5h0.5q2 -1 4.5 -2t6.5 -6l1.5 -1.5l1.5 -1.5l0.5 -0.5l0.5 -0.5q16 -15 34 -28t45 -13q54 0 86 54.5t58 119.5q1 2 2 3.5t1 3.5q3 6 5.5 12t4.5 12q32 75 54.5 127.5t43.5 89.5q23 40 48 66t61 47l-5 10q-8 -2 -18 -3.5t-20 -3.5
q-11 -1 -21.5 -2t-19.5 -1q-10 0 -20.5 1.5t-21.5 3.5q-5 1 -10 2.5t-11 3.5q-6 1 -13 3t-14 3q-3 0 -6.5 0.5t-6.5 0.5q-7 0 -16 -1.5t-18 -4.5q-10 -4 -19.5 -10.5t-17.5 -15.5l-57 78q34 27 63.5 32t51.5 5q24 0 44 -4t38 -10q7 -2 13.5 -3.5t12.5 -3.5q35 -10 58 -14
t41 -4q11 0 21 1.5t20 4.5v0zM509 858h38h6t6 -1q7 -1 13 -4.5t6 -13.5q0 -8 -2.5 -16.5t-7.5 -17.5q-12 -23 -34 -41.5t-48 -18.5h-7.5t-8.5 2q-6 2 -11 5.5t-7 11.5q0 1 -0.5 2t-0.5 2v1v2v4.5t1 4.5q1 7 3 12.5t5 11.5q2 3 3.5 6t2.5 6q13 27 21.5 34t16.5 8h2.5h2.5v0z
M655 859l38 -1h6t6 -1q7 -1 13 -4.5t6 -13.5q0 -8 -2.5 -16.5t-7.5 -17.5q-12 -23 -34 -41.5t-48 -18.5h-7.5t-8.5 2q-6 2 -11 5.5t-7 11.5q0 1 -0.5 2t-0.5 2v1v2v4.5t1 4.5q2 7 4 12.5t4 11.5q2 3 3.5 6t2.5 6q13 27 21.5 34.5t16.5 8.5h2.5h2.5v0z" />
    <glyph glyph-name="macron" unicode="&#x407;" horiz-adv-x="434" 
d="M578 669l38 -55q-28 -27 -48 -51.5t-35 -47.5q-16 -25 -28 -49.5t-23 -53.5q-5 -11 -9.5 -23.5t-9.5 -25.5q-10 -27 -29 -74.5t-48 -99.5q-41 -74 -103.5 -136t-147.5 -62q-31 0 -55.5 8t-41.5 17q-11 8 -17.5 14.5t-6.5 9.5v0.5t1 1.5v1.5v0.5v0.5v1.5t0.5 1.5l0.5 0.5
l44 63l1.5 1.5l2.5 2.5l3 3l1 1h0.5h1.5h1.5h0.5q2 -1 4.5 -2t6.5 -6l1.5 -1.5l1.5 -1.5l0.5 -0.5l0.5 -0.5q16 -15 34 -28t45 -13q54 0 86 54.5t58 119.5q1 2 2 3.5t1 3.5q3 6 5.5 12t4.5 12q32 75 54.5 127.5t43.5 89.5q23 40 48 66t61 47l-5 10q-8 -2 -18 -3.5t-20 -3.5
q-11 -1 -21.5 -2t-19.5 -1q-10 0 -20.5 1.5t-21.5 3.5q-5 1 -10 2.5t-11 3.5q-6 1 -13 3t-14 3q-3 0 -6.5 0.5t-6.5 0.5q-7 0 -16 -1.5t-18 -4.5q-10 -4 -19.5 -10.5t-17.5 -15.5l-57 78q34 27 63.5 32t51.5 5q24 0 44 -4t38 -10q7 -2 13.5 -3.5t12.5 -3.5q35 -10 58 -14
t41 -4q11 0 21 1.5t20 4.5v0zM509 858h38h6t6 -1q7 -1 13 -4.5t6 -13.5q0 -8 -2.5 -16.5t-7.5 -17.5q-12 -23 -34 -41.5t-48 -18.5h-7.5t-8.5 2q-6 2 -11 5.5t-7 11.5q0 1 -0.5 2t-0.5 2v1v2v4.5t1 4.5q1 7 3 12.5t5 11.5q2 3 3.5 6t2.5 6q13 27 21.5 34t16.5 8h2.5h2.5v0z
M655 859l38 -1h6t6 -1q7 -1 13 -4.5t6 -13.5q0 -8 -2.5 -16.5t-7.5 -17.5q-12 -23 -34 -41.5t-48 -18.5h-7.5t-8.5 2q-6 2 -11 5.5t-7 11.5q0 1 -0.5 2t-0.5 2v1v2v4.5t1 4.5q2 7 4 12.5t4 11.5q2 3 3.5 6t2.5 6q13 27 21.5 34.5t16.5 8.5h2.5h2.5v0z" />
    <glyph glyph-name="zero" unicode="&#xb0;" horiz-adv-x="318" 
d="M427 682l-13 -55q-7 2 -13 2.5t-12 -0.5q-39 0 -65.5 -21t-38.5 -47q-4 -9 -6.5 -18.5t-2.5 -17.5q0 -24 13 -35.5t29 -12.5h1.5h1.5q4 0 8 0.5t8 2.5q19 6 34.5 25.5t15.5 48.5q0 10 -2 20t-7 21l71 23q5 -13 7 -26t2 -26q0 -61 -43.5 -104t-98.5 -43q-47 0 -76.5 30.5
t-29.5 70.5v5.5v5.5q5 58 56.5 106.5t123.5 48.5h9.5t9.5 -1q4 0 9 -1t9 -2v0z" />
    <glyph glyph-name="at" unicode="&#xb1;" horiz-adv-x="672" 
d="M175 56v56h504v-56h-504v0zM455 175h-56v170h-224v56h224v209h56v-209h224v-56h-224v-170v0z" />
    <glyph glyph-name="P" unicode="&#xb2;" horiz-adv-x="434" 
d="M578 669l38 -55q-27 -27 -47 -50.5t-35 -46.5t-26.5 -47t-22.5 -51q-6 -14 -11.5 -28t-11.5 -30q-10 -27 -29.5 -74t-47.5 -99q-42 -74 -104 -135.5t-146 -61.5q-29 0 -46 4.5t-31 12.5l-10 6t-11 6q-10 5 -15 9t-7 7q-1 1 -1 2v2v2v2t0.5 2t1.5 2l44 63l1 1.5t3 2.5v0v0
q1 2 2.5 3l1.5 1h0.5h1.5h1.5h0.5q2 -1 4 -2.5t4 -3.5l0.5 -0.5l1.5 -1.5q25 -28 47 -36.5t37 -8.5q53 0 84.5 53t58.5 117q1 4 3 8t3 8q2 5 4 9.5t4 9.5q31 74 54 126.5t44 90.5q23 41 48 67t61 46l-5 10q-3 -1 -7 -1.5t-9 -1.5q-7 -1 -14.5 -2.5t-15.5 -2.5
q-9 -1 -17.5 -1.5t-15.5 -0.5q-10 0 -20.5 1.5t-21.5 3.5q-5 1 -10 2.5t-11 3.5q-6 1 -13 3t-14 3q-3 0 -6.5 0.5t-6.5 0.5q-7 0 -16 -1.5t-18 -4.5q-10 -4 -19.5 -10.5t-17.5 -15.5l-57 78q34 27 63.5 32t51.5 5q24 0 44 -4t38 -10q7 -2 13.5 -3.5t12.5 -3.5
q35 -10 57.5 -14t41.5 -4q5 0 10 0.5t11 1.5q5 0 10 1.5t10 2.5v0z" />
    <glyph glyph-name="P" unicode="&#x406;" horiz-adv-x="434" 
d="M578 669l38 -55q-27 -27 -47 -50.5t-35 -46.5t-26.5 -47t-22.5 -51q-6 -14 -11.5 -28t-11.5 -30q-10 -27 -29.5 -74t-47.5 -99q-42 -74 -104 -135.5t-146 -61.5q-29 0 -46 4.5t-31 12.5l-10 6t-11 6q-10 5 -15 9t-7 7q-1 1 -1 2v2v2v2t0.5 2t1.5 2l44 63l1 1.5t3 2.5v0v0
q1 2 2.5 3l1.5 1h0.5h1.5h1.5h0.5q2 -1 4 -2.5t4 -3.5l0.5 -0.5l1.5 -1.5q25 -28 47 -36.5t37 -8.5q53 0 84.5 53t58.5 117q1 4 3 8t3 8q2 5 4 9.5t4 9.5q31 74 54 126.5t44 90.5q23 41 48 67t61 46l-5 10q-3 -1 -7 -1.5t-9 -1.5q-7 -1 -14.5 -2.5t-15.5 -2.5
q-9 -1 -17.5 -1.5t-15.5 -0.5q-10 0 -20.5 1.5t-21.5 3.5q-5 1 -10 2.5t-11 3.5q-6 1 -13 3t-14 3q-3 0 -6.5 0.5t-6.5 0.5q-7 0 -16 -1.5t-18 -4.5q-10 -4 -19.5 -10.5t-17.5 -15.5l-57 78q34 27 63.5 32t51.5 5q24 0 44 -4t38 -10q7 -2 13.5 -3.5t12.5 -3.5
q35 -10 57.5 -14t41.5 -4q5 0 10 0.5t11 1.5q5 0 10 1.5t10 2.5v0z" />
    <glyph glyph-name="S" unicode="&#xb3;" horiz-adv-x="238" 
d="M261 131l-24 -68q-8 -5 -22 -12.5t-30 -15.5q-7 -3 -13.5 -6t-13.5 -6q-22 -10 -41.5 -16.5t-32.5 -6.5q-27 0 -41.5 18.5t-14.5 41.5q0 20 27 78.5t147 265.5l70 -35l-127 -231q-9 -16 -11.5 -24.5t-2.5 -14.5q0 -5 2.5 -7.5t5.5 -2.5q2 -1 3.5 -1h2.5q15 0 37.5 9
t78.5 34v0zM302 588h34h4.5h5.5q6 -1 11.5 -4.5t5.5 -13.5q0 -7 -3 -15.5t-8 -17.5q-11 -19 -30 -35t-40 -16v0v0h-1v0h-5t-6 1q-6 1 -12 4.5t-8 11.5q-1 2 -1 4v4v1.5t1 1.5v1.5v1.5q5 25 15.5 42t21.5 24q4 3 7.5 4t7.5 1v0z" />
    <glyph glyph-name="S" unicode="&#x456;" horiz-adv-x="238" 
d="M261 131l-24 -68q-8 -5 -22 -12.5t-30 -15.5q-7 -3 -13.5 -6t-13.5 -6q-22 -10 -41.5 -16.5t-32.5 -6.5q-27 0 -41.5 18.5t-14.5 41.5q0 20 27 78.5t147 265.5l70 -35l-127 -231q-9 -16 -11.5 -24.5t-2.5 -14.5q0 -5 2.5 -7.5t5.5 -2.5q2 -1 3.5 -1h2.5q15 0 37.5 9
t78.5 34v0zM302 588h34h4.5h5.5q6 -1 11.5 -4.5t5.5 -13.5q0 -7 -3 -15.5t-8 -17.5q-11 -19 -30 -35t-40 -16v0v0h-1v0h-5t-6 1q-6 1 -12 4.5t-8 11.5q-1 2 -1 4v4v1.5t1 1.5v1.5v1.5q5 25 15.5 42t21.5 24q4 3 7.5 4t7.5 1v0z" />
    <glyph glyph-name="T" unicode="&#xb4;" horiz-adv-x="331" 
d="M189 328l-45 1l29 61q10 -1 22 -2t23 -1q19 -1 37 -2t31 -1h14.5h15.5q20 1 39.5 2.5t36.5 3.5q7 14 11 27.5t6 27.5h81q-6 -28 -15.5 -57.5t-23.5 -59.5q-4 -1 -9 -1.5t-10 -1.5q-15 -2 -34 -3.5t-41 -1.5h-21.5t-22.5 1q-12 0 -23.5 0.5t-21.5 1.5l-159 -330l-81 25
l161 310v0z" />
    <glyph glyph-name="T" unicode="&#x491;" horiz-adv-x="331" 
d="M189 328l-45 1l29 61q10 -1 22 -2t23 -1q19 -1 37 -2t31 -1h14.5h15.5q20 1 39.5 2.5t36.5 3.5q7 14 11 27.5t6 27.5h81q-6 -28 -15.5 -57.5t-23.5 -59.5q-4 -1 -9 -1.5t-10 -1.5q-15 -2 -34 -3.5t-41 -1.5h-21.5t-22.5 1q-12 0 -23.5 0.5t-21.5 1.5l-159 -330l-81 25
l161 310v0z" />
    <glyph glyph-name="U" unicode="&#xb5;" horiz-adv-x="495" 
d="M453 361l67 -34l-107 -203q-4 -7 -5 -12t-1 -8q0 -1 0.5 -3t1.5 -4q1 -4 4 -6.5t9 -2.5q5 0 18.5 5.5t28.5 12.5l4 2t3 2q14 7 25.5 13t15.5 8l-22 -68q-8 -5 -20.5 -12t-26.5 -14q-6 -4 -12 -7t-13 -6q-21 -10 -41 -17t-31 -7h-1.5h-1.5q-16 1 -29 14t-13 44
q0 8 2.5 16.5t6.5 17.5q5 10 11 19.5t12 17.5l1.5 1.5l1.5 1.5l-7 6q-67 -76 -103.5 -107t-59.5 -31q-2 0 -4 0.5t-5 0.5q-12 4 -22.5 16.5t-10.5 31.5q0 5 1.5 11t3.5 12h-10q-6 -14 -11.5 -28t-11.5 -27q-18 -39 -41.5 -84t-59.5 -112l-84 37q47 59 91 125.5t85 134.5
q45 76 85.5 150t72.5 136l68 -35l-113 -215q-1 -1 -1.5 -2t-0.5 -2t-0.5 -1t-0.5 -1q-3 -6 -5.5 -12t-2.5 -14q0 -9 3.5 -13.5t7.5 -6.5q2 -1 4 -1.5t4 -0.5q12 0 28.5 10.5t33.5 25.5q7 6 14 13l14 14q18 18 32 34.5t20 23.5q8 10 15.5 19.5t14.5 18.5q4 5 8.5 10.5
t8.5 11.5q12 16 24.5 35.5t26.5 44.5v0z" />
    <glyph glyph-name="V" unicode="&#xb6;" horiz-adv-x="526" 
d="M317 -196v588q-77 2 -121 48.5t-52 101.5q-1 6 -1.5 12.5t-0.5 12.5v7t1 7q4 59 48.5 108.5t125.5 52.5h84v-938h-84v0zM471 -196v938h84v-938h-84v0z" />
    <glyph glyph-name="quoteleft" unicode="&#xb8;" horiz-adv-x="344" 
d="M22 127l22 14q22 68 78.5 126.5t119.5 90.5q27 13 53.5 20.5t50.5 7.5q40 0 59 -18.5t21 -40.5v-2.5v-2.5q0 -21 -15.5 -54.5t-71.5 -69.5q-33 -20 -82.5 -40.5t-121.5 -38.5q-1 -3 -1.5 -6t-0.5 -7q1 -17 16 -28.5t44 -11.5q21 0 52 8.5t64 23.5q15 6 29.5 14t28.5 16
l-22 -65q-19 -13 -41 -23t-44 -18q-32 -11 -63 -16.5t-54 -5.5q-40 0 -71.5 23.5t-31.5 62.5l-40 -25l22 66v0zM154 177q35 9 61.5 21t45.5 24q32 20 46.5 38t18.5 25l2 4l2 4t1.5 5t0.5 6q0 9 -4 13.5t-13 4.5q-13 0 -28.5 -7t-31.5 -19q-17 -12 -34 -29t-31 -35
q-12 -14 -21 -28.5t-15 -26.5v0zM296 588h34q17 0 22 -5t5 -13q0 -24 -17.5 -45.5t-38.5 -31.5q-7 -3 -13.5 -5t-12.5 -2h-5t-6 1q-6 1 -12 4.5t-8 11.5q0 1 -0.5 2t-0.5 2v2v2v1.5t1 1.5v1.5v1.5q5 25 15.5 42t21.5 24q4 3 7.5 4t7.5 1v0zM464 588h34q17 0 22 -5t5 -13
q0 -24 -17.5 -45.5t-38.5 -31.5q-7 -3 -13.5 -5t-12.5 -2h-5t-6 1q-6 1 -12 4.5t-8 11.5q0 1 -0.5 2t-0.5 2v2v2v1.5t1 1.5v1.5v1.5q5 25 15.5 42t21.5 24q4 3 7.5 4t7.5 1v0z" />
    <glyph glyph-name="quoteleft" unicode="&#x451;" horiz-adv-x="344" 
d="M22 127l22 14q22 68 78.5 126.5t119.5 90.5q27 13 53.5 20.5t50.5 7.5q40 0 59 -18.5t21 -40.5v-2.5v-2.5q0 -21 -15.5 -54.5t-71.5 -69.5q-33 -20 -82.5 -40.5t-121.5 -38.5q-1 -3 -1.5 -6t-0.5 -7q1 -17 16 -28.5t44 -11.5q21 0 52 8.5t64 23.5q15 6 29.5 14t28.5 16
l-22 -65q-19 -13 -41 -23t-44 -18q-32 -11 -63 -16.5t-54 -5.5q-40 0 -71.5 23.5t-31.5 62.5l-40 -25l22 66v0zM154 177q35 9 61.5 21t45.5 24q32 20 46.5 38t18.5 25l2 4l2 4t1.5 5t0.5 6q0 9 -4 13.5t-13 4.5q-13 0 -28.5 -7t-31.5 -19q-17 -12 -34 -29t-31 -35
q-12 -14 -21 -28.5t-15 -26.5v0zM296 588h34q17 0 22 -5t5 -13q0 -24 -17.5 -45.5t-38.5 -31.5q-7 -3 -13.5 -5t-12.5 -2h-5t-6 1q-6 1 -12 4.5t-8 11.5q0 1 -0.5 2t-0.5 2v2v2v1.5t1 1.5v1.5v1.5q5 25 15.5 42t21.5 24q4 3 7.5 4t7.5 1v0zM464 588h34q17 0 22 -5t5 -13
q0 -24 -17.5 -45.5t-38.5 -31.5q-7 -3 -13.5 -5t-12.5 -2h-5t-6 1q-6 1 -12 4.5t-8 11.5q0 1 -0.5 2t-0.5 2v2v2v1.5t1 1.5v1.5v1.5q5 25 15.5 42t21.5 24q4 3 7.5 4t7.5 1v0z" />
    <glyph glyph-name="one" unicode="&#xb9;" horiz-adv-x="952" 
d="M365 656l84 -14q5 -60 7.5 -94t4.5 -60q1 -4 1.5 -8t0.5 -9q1 -11 2.5 -23t2.5 -26q2 -21 4 -40t3 -38q3 -36 6 -75.5t5 -93.5l12 -2q13 50 33.5 109.5t47.5 120.5q39 87 90 168t111 135l101 -39q-123 -89 -192.5 -217t-128.5 -296q-13 -39 -27 -79.5t-28 -82.5l-90 14
q-3 26 -6 56.5t-6 64.5q-6 68 -11.5 151t-9.5 180l-13 3q-29 -135 -65 -222.5t-74 -141.5q-50 -72 -97 -95t-77 -28l-42 80q128 15 194.5 144t119.5 322q9 33 18.5 67t18.5 69v0zM858 84l-32 -77q-43 -4 -88 -5.5t-93 -1.5h-14.5t-14.5 1h-15h-15l31 69q16 -1 30.5 -1h28.5
q56 0 99 4t70 9q4 0 7 0.5t6 1.5v0zM867 424l12 -55q-4 0 -8 -1t-9 -2q-39 -9 -73 -41.5t-39 -92.5v-6v-6v-2.5v-3.5q2 -16 11.5 -26t19.5 -14q3 0 5.5 -0.5t4.5 -0.5q4 0 7.5 0.5t7.5 2.5q23 8 41.5 37.5t18.5 71.5q0 7 -1.5 14.5t-3.5 14.5l-4 10l-4 10l64 34
q9 -11 13.5 -26.5t5.5 -31.5q1 -9 1.5 -16.5t0.5 -15.5q0 -54 -40 -94t-88 -52q-9 -2 -17 -3t-16 -1q-5 0 -11 0.5t-11 2.5q-27 6 -49 27.5t-22 59.5q0 15 3 31.5t8 33.5q17 52 60.5 95.5t111.5 45.5v0z" />
    <glyph glyph-name="one" unicode="&#x2116;" horiz-adv-x="952" 
d="M365 656l84 -14q5 -60 7.5 -94t4.5 -60q1 -4 1.5 -8t0.5 -9q1 -11 2.5 -23t2.5 -26q2 -21 4 -40t3 -38q3 -36 6 -75.5t5 -93.5l12 -2q13 50 33.5 109.5t47.5 120.5q39 87 90 168t111 135l101 -39q-123 -89 -192.5 -217t-128.5 -296q-13 -39 -27 -79.5t-28 -82.5l-90 14
q-3 26 -6 56.5t-6 64.5q-6 68 -11.5 151t-9.5 180l-13 3q-29 -135 -65 -222.5t-74 -141.5q-50 -72 -97 -95t-77 -28l-42 80q128 15 194.5 144t119.5 322q9 33 18.5 67t18.5 69v0zM858 84l-32 -77q-43 -4 -88 -5.5t-93 -1.5h-14.5t-14.5 1h-15h-15l31 69q16 -1 30.5 -1h28.5
q56 0 99 4t70 9q4 0 7 0.5t6 1.5v0zM867 424l12 -55q-4 0 -8 -1t-9 -2q-39 -9 -73 -41.5t-39 -92.5v-6v-6v-2.5v-3.5q2 -16 11.5 -26t19.5 -14q3 0 5.5 -0.5t4.5 -0.5q4 0 7.5 0.5t7.5 2.5q23 8 41.5 37.5t18.5 71.5q0 7 -1.5 14.5t-3.5 14.5l-4 10l-4 10l64 34
q9 -11 13.5 -26.5t5.5 -31.5q1 -9 1.5 -16.5t0.5 -15.5q0 -54 -40 -94t-88 -52q-9 -2 -17 -3t-16 -1q-5 0 -11 0.5t-11 2.5q-27 6 -49 27.5t-22 59.5q0 15 3 31.5t8 33.5q17 52 60.5 95.5t111.5 45.5v0z" />
    <glyph glyph-name="G" unicode="&#xba;" horiz-adv-x="350" 
d="M373 131l-21 -68q-73 -33 -121 -48t-91 -15q-44 0 -71 22t-27 73q0 20 5.5 41.5t15.5 42.5q28 60 84.5 114.5t117.5 81.5q22 10 43 15t41 5q35 0 52 -20t17 -48q0 -6 -1 -12l-2 -12q-2 -7 -4.5 -13t-5.5 -12l-91 6q5 6 7 12t2 12q0 8 -4 12t-13 4q-7 0 -14 -2.5t-14 -6.5
q-9 -5 -17.5 -11.5t-17.5 -13.5q-1 -1 -2 -1.5t-2 -1.5q-42 -31 -49.5 -45.5t-7.5 -20.5q1 1 2.5 1.5t3.5 0.5q9 3 20 6t24 3h15t16 -1q15 -2 29 -7t23 -17l-50 -53q-13 8 -29.5 14.5t-38.5 6.5q-14 0 -24.5 -2t-17.5 -4q-3 -7 -6 -19t-5 -25q0 -5 -0.5 -9.5t-0.5 -8.5
q0 -3 1 -7.5t3 -8.5q3 -8 12 -14.5t25 -6.5q20 0 59 10.5t130 50.5v0z" />
    <glyph glyph-name="G" unicode="&#x454;" horiz-adv-x="350" 
d="M373 131l-21 -68q-73 -33 -121 -48t-91 -15q-44 0 -71 22t-27 73q0 20 5.5 41.5t15.5 42.5q28 60 84.5 114.5t117.5 81.5q22 10 43 15t41 5q35 0 52 -20t17 -48q0 -6 -1 -12l-2 -12q-2 -7 -4.5 -13t-5.5 -12l-91 6q5 6 7 12t2 12q0 8 -4 12t-13 4q-7 0 -14 -2.5t-14 -6.5
q-9 -5 -17.5 -11.5t-17.5 -13.5q-1 -1 -2 -1.5t-2 -1.5q-42 -31 -49.5 -45.5t-7.5 -20.5q1 1 2.5 1.5t3.5 0.5q9 3 20 6t24 3h15t16 -1q15 -2 29 -7t23 -17l-50 -53q-13 8 -29.5 14.5t-38.5 6.5q-14 0 -24.5 -2t-17.5 -4q-3 -7 -6 -19t-5 -25q0 -5 -0.5 -9.5t-0.5 -8.5
q0 -3 1 -7.5t3 -8.5q3 -8 12 -14.5t25 -6.5q20 0 59 10.5t130 50.5v0z" />
    <glyph glyph-name="bracketleft" unicode="&#xbb;" horiz-adv-x="490" 
d="M296 19l-47 43q50 48 65.5 63.5t23.5 22.5l1.5 1.5t1.5 0.5q2 2 4 3t4 3q14 9 19 14t5 9q0 10 -23 40.5t-73 98.5l58 42q26 -45 41 -67.5t27 -39.5q1 -2 8 -12t14 -22l1.5 -1.5l1.5 -1.5q8 -13 14 -23.5t6 -13.5t-5 -10.5t-31 -30.5q-5 -5 -9.5 -9t-9.5 -9
q-4 -3 -7.5 -6.5l-6.5 -6.5q-19 -18 -39 -39t-44 -49v0zM127 32l-43 40q58 66 86 82.5t31 23.5v1.5v0.5q0 2 -12 17.5t-73 90.5l58 43q17 -27 30.5 -47t25.5 -38q2 -2 3.5 -4t2.5 -4q3 -4 6.5 -8.5t6.5 -9.5q16 -22 18.5 -30.5t2.5 -10.5q0 -3 -3 -7.5t-8 -9.5
q-1 -2 -3 -3.5t-3 -3.5q-5 -5 -9.5 -8.5t-6.5 -5.5q-23 -20 -45 -41.5t-43 -44.5q-6 -5 -11.5 -11t-10.5 -12v0z" />
    <glyph glyph-name="w" unicode="&#xbc;" horiz-adv-x="183" 
d="M10 -229l-94 16q14 47 53 144.5t150 312.5q1 3 2.5 5.5t3.5 5.5q0 1 0.5 2l0.5 1q14 26 30 57.5t42 86.5l70 -34q-33 -59 -57 -109t-46 -98q-1 -2 -2 -4.5t-3 -4.5q-1 -3 -2.5 -6t-2.5 -6q-77 -166 -104 -237t-39 -123q-1 -2 -1.5 -4t-0.5 -4v-1zM281 588h34h0.5h0.5h5h5
q6 -1 11 -4.5t7 -13.5q0 -1 0.5 -2t0.5 -2v-2v-2v-1.5v-1.5q-1 -1 -1 -1.5v-1.5q-1 -6 -4 -13.5t-7 -16.5q-9 -15 -24.5 -27.5t-38.5 -12.5h-6.5t-7.5 1q-8 2 -14 8.5t-6 21.5q0 6 1.5 13.5t4.5 15.5q5 16 15 29t24 13v0z" />
    <glyph glyph-name="w" unicode="&#x458;" horiz-adv-x="183" 
d="M10 -229l-94 16q14 47 53 144.5t150 312.5q1 3 2.5 5.5t3.5 5.5q0 1 0.5 2l0.5 1q14 26 30 57.5t42 86.5l70 -34q-33 -59 -57 -109t-46 -98q-1 -2 -2 -4.5t-3 -4.5q-1 -3 -2.5 -6t-2.5 -6q-77 -166 -104 -237t-39 -123q-1 -2 -1.5 -4t-0.5 -4v-1zM281 588h34h0.5h0.5h5h5
q6 -1 11 -4.5t7 -13.5q0 -1 0.5 -2t0.5 -2v-2v-2v-1.5v-1.5q-1 -1 -1 -1.5v-1.5q-1 -6 -4 -13.5t-7 -16.5q-9 -15 -24.5 -27.5t-38.5 -12.5h-6.5t-7.5 1q-8 2 -14 8.5t-6 21.5q0 6 1.5 13.5t4.5 15.5q5 16 15 29t24 13v0z" />
    <glyph glyph-name="bracketright" unicode="&#xbd;" horiz-adv-x="482" 
d="M28 128l89 53q1 -5 3 -10.5t4 -11.5q14 -32 44 -59t82 -27q58 0 93.5 32.5t43.5 71.5q1 5 1.5 10.5t0.5 10.5q0 23 -11.5 44.5t-25.5 38.5q-6 9 -12.5 16t-11.5 13q-3 3 -6 6.5t-6 7.5q-30 33 -52.5 70.5t-22.5 89.5q0 83 56 150.5t151 67.5q82 0 125.5 -39.5
t48.5 -103.5l-92 -36q1 5 1 10v10v5.5v4.5q-2 29 -19 52.5t-57 23.5q-7 0 -14.5 -1t-15.5 -3q-36 -9 -65.5 -40t-29.5 -87q0 -32 16 -59t35 -50q5 -5 10 -10.5t9 -10.5q7 -8 14.5 -16.5t15.5 -17.5q21 -24 38.5 -54.5t17.5 -68.5q0 -16 -4 -34.5t-12 -37.5
q-24 -54 -83.5 -99t-157.5 -45q-58 0 -111.5 25.5t-89.5 107.5v0z" />
    <glyph glyph-name="bracketright" unicode="&#x405;" horiz-adv-x="482" 
d="M28 128l89 53q1 -5 3 -10.5t4 -11.5q14 -32 44 -59t82 -27q58 0 93.5 32.5t43.5 71.5q1 5 1.5 10.5t0.5 10.5q0 23 -11.5 44.5t-25.5 38.5q-6 9 -12.5 16t-11.5 13q-3 3 -6 6.5t-6 7.5q-30 33 -52.5 70.5t-22.5 89.5q0 83 56 150.5t151 67.5q82 0 125.5 -39.5
t48.5 -103.5l-92 -36q1 5 1 10v10v5.5v4.5q-2 29 -19 52.5t-57 23.5q-7 0 -14.5 -1t-15.5 -3q-36 -9 -65.5 -40t-29.5 -87q0 -32 16 -59t35 -50q5 -5 10 -10.5t9 -10.5q7 -8 14.5 -16.5t15.5 -17.5q21 -24 38.5 -54.5t17.5 -68.5q0 -16 -4 -34.5t-12 -37.5
q-24 -54 -83.5 -99t-157.5 -45q-58 0 -111.5 25.5t-89.5 107.5v0z" />
    <glyph glyph-name="R" unicode="&#xbe;" horiz-adv-x="285" 
d="M379 307l-62 -29q-4 14 -10.5 22t-13.5 13q-8 5 -15 6.5t-11 1.5q-16 0 -27 -7.5t-16 -16.5l-2 -6t-1 -6q0 -12 9.5 -28t20.5 -33q4 -6 8 -12.5t8 -12.5q9 -16 15 -34.5t6 -37.5q0 -11 -2.5 -23t-7.5 -24q-15 -34 -51.5 -61.5t-98.5 -27.5q-58 0 -83.5 21.5t-25.5 50.5
q0 8 2.5 17t6.5 18l84 11q-4 -6 -6 -12.5t-2 -13.5q0 -13 9 -22.5t26 -9.5q24 0 38.5 13.5t19.5 29.5q1 4 1.5 7.5t0.5 7.5q0 19 -13 40.5t-28 46.5q-1 2 -2.5 4t-2.5 4q-1 1 -1.5 2t-1.5 2q-9 16 -16.5 33t-7.5 34q0 47 40 82.5t107 35.5q41 0 70.5 -22.5t35.5 -63.5v0z
" />
    <glyph glyph-name="R" unicode="&#x455;" horiz-adv-x="285" 
d="M379 307l-62 -29q-4 14 -10.5 22t-13.5 13q-8 5 -15 6.5t-11 1.5q-16 0 -27 -7.5t-16 -16.5l-2 -6t-1 -6q0 -12 9.5 -28t20.5 -33q4 -6 8 -12.5t8 -12.5q9 -16 15 -34.5t6 -37.5q0 -11 -2.5 -23t-7.5 -24q-15 -34 -51.5 -61.5t-98.5 -27.5q-58 0 -83.5 21.5t-25.5 50.5
q0 8 2.5 17t6.5 18l84 11q-4 -6 -6 -12.5t-2 -13.5q0 -13 9 -22.5t26 -9.5q24 0 38.5 13.5t19.5 29.5q1 4 1.5 7.5t0.5 7.5q0 19 -13 40.5t-28 46.5q-1 2 -2.5 4t-2.5 4q-1 1 -1.5 2t-1.5 2q-9 16 -16.5 33t-7.5 34q0 47 40 82.5t107 35.5q41 0 70.5 -22.5t35.5 -63.5v0z
" />
    <glyph glyph-name="underscore" unicode="&#xbf;" horiz-adv-x="257" 
d="M271 131l-24 -68q-8 -5 -22 -12.5t-30 -15.5q-7 -3 -13.5 -6t-13.5 -6q-22 -10 -41.5 -16.5t-32.5 -6.5q-27 0 -41.5 18.5t-14.5 41.5q0 20 27 78.5t147 265.5l70 -35l-127 -231q-1 -2 -2.5 -6t-3.5 -8q-1 -1 -1.5 -2.5t-0.5 -2.5q-3 -6 -4.5 -11.5t-1.5 -8.5
q0 -5 2.5 -7.5t5.5 -2.5q2 -1 3.5 -1h2.5q15 0 37.5 9t78.5 34v0zM230 588h34q18 0 22.5 -5t4.5 -13v-5t-1 -5q-4 -21 -20.5 -40t-36.5 -28q-6 -3 -11.5 -4.5t-11.5 -1.5v0v0h-1v0h-6t-6 1q-6 1 -11.5 4.5t-7.5 11.5q0 1 -0.5 2t-0.5 2v2v2v1.5t1 1.5v1.5v1.5q4 22 13 38
t19 24q5 4 10.5 6.5t9.5 2.5v0zM359 588h33q17 0 22.5 -4.5t5.5 -13.5q0 -25 -18 -47t-40 -31q-6 -3 -12 -4.5t-12 -1.5q-11 0 -20 3t-12 14q0 1 -0.5 2t-0.5 2v2v2v1.5t1 1.5v1.5v1.5t0.5 2.5t0.5 2.5q1 4 3 7.5t5 10.5q2 3 3.5 6.5t2.5 6.5q7 15 15.5 25t22.5 10v0z" />
    <glyph glyph-name="underscore" unicode="&#x457;" horiz-adv-x="257" 
d="M271 131l-24 -68q-8 -5 -22 -12.5t-30 -15.5q-7 -3 -13.5 -6t-13.5 -6q-22 -10 -41.5 -16.5t-32.5 -6.5q-27 0 -41.5 18.5t-14.5 41.5q0 20 27 78.5t147 265.5l70 -35l-127 -231q-1 -2 -2.5 -6t-3.5 -8q-1 -1 -1.5 -2.5t-0.5 -2.5q-3 -6 -4.5 -11.5t-1.5 -8.5
q0 -5 2.5 -7.5t5.5 -2.5q2 -1 3.5 -1h2.5q15 0 37.5 9t78.5 34v0zM230 588h34q18 0 22.5 -5t4.5 -13v-5t-1 -5q-4 -21 -20.5 -40t-36.5 -28q-6 -3 -11.5 -4.5t-11.5 -1.5v0v0h-1v0h-6t-6 1q-6 1 -11.5 4.5t-7.5 11.5q0 1 -0.5 2t-0.5 2v2v2v1.5t1 1.5v1.5v1.5q4 22 13 38
t19 24q5 4 10.5 6.5t9.5 2.5v0zM359 588h33q17 0 22.5 -4.5t5.5 -13.5q0 -25 -18 -47t-40 -31q-6 -3 -12 -4.5t-12 -1.5q-11 0 -20 3t-12 14q0 1 -0.5 2t-0.5 2v2v2v1.5t1 1.5v1.5v1.5t0.5 2.5t0.5 2.5q1 4 3 7.5t5 10.5q2 3 3.5 6.5t2.5 6.5q7 15 15.5 25t22.5 10v0z" />
    <glyph glyph-name="grave" unicode="&#xc0;" horiz-adv-x="667" 
d="M734 709l87 -41l-158 -362h58l-26 -59l-55 1l-88 -254l-96 20l91 234l-128 -1q-8 -11 -17 -22t-17 -22q-63 -78 -135 -143t-150 -65q-44 0 -64 24t-22 54v4v4q0 9 2.5 22.5t6.5 27.5q8 25 19.5 45t24.5 19q1 0 2.5 -0.5t2.5 -1.5l56 -31q3 -1 6 -3.5t4 -8.5v-2v-2v-0.5
v-0.5v-1.5v-1.5q-1 -7 -3.5 -12t-5.5 -10q-1 -2 -1.5 -3.5t-1.5 -2.5q-3 -5 -4.5 -9.5t-1.5 -9.5q0 -1 0.5 -3t1.5 -4q3 -3 7.5 -6t12.5 -3q16 0 56 29t132 134q-18 -1 -46 -6t-69 -16l31 65q0 1 0.5 1.5t0.5 1.5v0v0q2 5 5.5 8.5t15.5 4.5l116 7q45 53 65 76t34 41
q7 7 13.5 15.5t15.5 18.5q7 8 13.5 15.5t12.5 15.5l1.5 1.5t0.5 1.5q39 45 82.5 94.5t111.5 121.5v0zM468 308h108q9 21 17.5 40t16.5 37q3 7 6 13t7 13q11 25 24 50.5t29 56.5q10 21 16 32.5t11 21.5q1 1 1 1.5v0.5l3.5 7l3.5 7l-11 5q-7 -9 -12 -15.5t-10 -11.5
q0 -1 -0.5 -1.5t-1.5 -0.5q-7 -9 -16 -19.5t-25 -28.5q-6 -7 -31 -37.5t-53 -65.5q-27 -35 -51.5 -65.5t-31.5 -39.5v0z" />
    <glyph glyph-name="grave" unicode="&#x410;" horiz-adv-x="667" 
d="M734 709l87 -41l-158 -362h58l-26 -59l-55 1l-88 -254l-96 20l91 234l-128 -1q-8 -11 -17 -22t-17 -22q-63 -78 -135 -143t-150 -65q-44 0 -64 24t-22 54v4v4q0 9 2.5 22.5t6.5 27.5q8 25 19.5 45t24.5 19q1 0 2.5 -0.5t2.5 -1.5l56 -31q3 -1 6 -3.5t4 -8.5v-2v-2v-0.5
v-0.5v-1.5v-1.5q-1 -7 -3.5 -12t-5.5 -10q-1 -2 -1.5 -3.5t-1.5 -2.5q-3 -5 -4.5 -9.5t-1.5 -9.5q0 -1 0.5 -3t1.5 -4q3 -3 7.5 -6t12.5 -3q16 0 56 29t132 134q-18 -1 -46 -6t-69 -16l31 65q0 1 0.5 1.5t0.5 1.5v0v0q2 5 5.5 8.5t15.5 4.5l116 7q45 53 65 76t34 41
q7 7 13.5 15.5t15.5 18.5q7 8 13.5 15.5t12.5 15.5l1.5 1.5t0.5 1.5q39 45 82.5 94.5t111.5 121.5v0zM468 308h108q9 21 17.5 40t16.5 37q3 7 6 13t7 13q11 25 24 50.5t29 56.5q10 21 16 32.5t11 21.5q1 1 1 1.5v0.5l3.5 7l3.5 7l-11 5q-7 -9 -12 -15.5t-10 -11.5
q0 -1 -0.5 -1.5t-1.5 -0.5q-7 -9 -16 -19.5t-25 -28.5q-6 -7 -31 -37.5t-53 -65.5q-27 -35 -51.5 -65.5t-31.5 -39.5v0z" />
    <glyph glyph-name="a" unicode="&#xc1;" horiz-adv-x="632" 
d="M223 520l-25 71q40 16 83 27.5t87 20.5q73 14 142.5 19.5t125.5 5.5h24t25 -1q34 -1 67 -3t62 -4q22 -2 40.5 -3.5t29.5 -2.5l-41 -83q-67 14 -108 17.5t-63 3.5h-125q-21 -30 -34 -49t-23 -35l-1 -1v-1l-21 -31.5t-28 -42.5q-13 -20 -23.5 -35t-20.5 -29q-2 -4 -4 -7
l-4 -6q-7 -11 -14.5 -23.5t-15.5 -28.5l9 -5q8 7 18.5 15t22.5 16q31 20 72 36.5t85 16.5q40 0 59.5 -20t26.5 -44q5 -17 5.5 -33t0.5 -24v-2v-2q0 -90 -67.5 -158t-148.5 -96q-26 -10 -52 -15t-49 -5q-27 0 -50.5 2t-39.5 5q-3 0 -6 0.5t-6 1.5l32 58q5 -1 9.5 -1.5
t9.5 -1.5q4 0 9 -0.5t9 -0.5q75 1 140.5 47.5t94.5 101.5q9 17 13.5 33.5t4.5 31.5q0 23 -11 38t-37 15q-56 0 -142 -78.5t-184 -238.5l-88 37q26 41 48 76t43 68l2 4l2 4q16 25 31.5 50.5t32.5 53.5q8 13 15.5 25.5t15.5 25.5q7 11 14 22.5t14 22.5q30 47 63.5 96t76.5 105
q-40 -6 -92 -18.5t-141 -43.5v0z" />
    <glyph glyph-name="a" unicode="&#x411;" horiz-adv-x="632" 
d="M223 520l-25 71q40 16 83 27.5t87 20.5q73 14 142.5 19.5t125.5 5.5h24t25 -1q34 -1 67 -3t62 -4q22 -2 40.5 -3.5t29.5 -2.5l-41 -83q-67 14 -108 17.5t-63 3.5h-125q-21 -30 -34 -49t-23 -35l-1 -1v-1l-21 -31.5t-28 -42.5q-13 -20 -23.5 -35t-20.5 -29q-2 -4 -4 -7
l-4 -6q-7 -11 -14.5 -23.5t-15.5 -28.5l9 -5q8 7 18.5 15t22.5 16q31 20 72 36.5t85 16.5q40 0 59.5 -20t26.5 -44q5 -17 5.5 -33t0.5 -24v-2v-2q0 -90 -67.5 -158t-148.5 -96q-26 -10 -52 -15t-49 -5q-27 0 -50.5 2t-39.5 5q-3 0 -6 0.5t-6 1.5l32 58q5 -1 9.5 -1.5
t9.5 -1.5q4 0 9 -0.5t9 -0.5q75 1 140.5 47.5t94.5 101.5q9 17 13.5 33.5t4.5 31.5q0 23 -11 38t-37 15q-56 0 -142 -78.5t-184 -238.5l-88 37q26 41 48 76t43 68l2 4l2 4q16 25 31.5 50.5t32.5 53.5q8 13 15.5 25.5t15.5 25.5q7 11 14 22.5t14 22.5q30 47 63.5 96t76.5 105
q-40 -6 -92 -18.5t-141 -43.5v0z" />
    <glyph glyph-name="b" unicode="&#xc2;" horiz-adv-x="622" 
d="M418 679l79 -41l-72 -124l7 -5q34 34 71.5 64.5t76.5 51.5q25 13 50.5 21t49.5 8q6 0 12 -1t12 -3q22 -6 40 -26.5t18 -59.5q0 -73 -63.5 -128.5t-139.5 -84.5q-11 -5 -22.5 -8.5t-22.5 -6.5v-8q51 0 85.5 -18.5t34.5 -85.5q0 -21 -9.5 -47t-28.5 -53
q-37 -55 -108.5 -100.5t-170.5 -45.5q-40 0 -63.5 6t-42.5 16l29 52q14 -4 28.5 -5.5t28.5 -1.5q85 0 155.5 51.5t76.5 113.5q1 3 1 5.5v5.5q0 6 -0.5 13t-2.5 14q-3 17 -16 31t-42 14q-6 0 -12.5 -0.5t-13.5 -1.5q-9 -1 -17.5 -2.5t-15.5 -3.5l-16 58q65 22 114.5 47.5
t83.5 51.5t51 51.5t17 47.5q0 17 -7.5 24.5t-23.5 7.5q-11 0 -35 -8.5t-73 -45.5q-65 -48 -113.5 -104t-93.5 -127q-38 -59 -78 -131t-90 -160l-90 22q89 158 128.5 230t69.5 126l1.5 1.5t0.5 1.5q3 6 6.5 11.5t6.5 11.5q21 37 38 67.5t33 58.5q2 5 4.5 9.5t5.5 9.5
q15 28 31.5 60t36.5 73v0z" />
    <glyph glyph-name="b" unicode="&#x412;" horiz-adv-x="622" 
d="M418 679l79 -41l-72 -124l7 -5q34 34 71.5 64.5t76.5 51.5q25 13 50.5 21t49.5 8q6 0 12 -1t12 -3q22 -6 40 -26.5t18 -59.5q0 -73 -63.5 -128.5t-139.5 -84.5q-11 -5 -22.5 -8.5t-22.5 -6.5v-8q51 0 85.5 -18.5t34.5 -85.5q0 -21 -9.5 -47t-28.5 -53
q-37 -55 -108.5 -100.5t-170.5 -45.5q-40 0 -63.5 6t-42.5 16l29 52q14 -4 28.5 -5.5t28.5 -1.5q85 0 155.5 51.5t76.5 113.5q1 3 1 5.5v5.5q0 6 -0.5 13t-2.5 14q-3 17 -16 31t-42 14q-6 0 -12.5 -0.5t-13.5 -1.5q-9 -1 -17.5 -2.5t-15.5 -3.5l-16 58q65 22 114.5 47.5
t83.5 51.5t51 51.5t17 47.5q0 17 -7.5 24.5t-23.5 7.5q-11 0 -35 -8.5t-73 -45.5q-65 -48 -113.5 -104t-93.5 -127q-38 -59 -78 -131t-90 -160l-90 22q89 158 128.5 230t69.5 126l1.5 1.5t0.5 1.5q3 6 6.5 11.5t6.5 11.5q21 37 38 67.5t33 58.5q2 5 4.5 9.5t5.5 9.5
q15 28 31.5 60t36.5 73v0z" />
    <glyph glyph-name="c" unicode="&#xc3;" horiz-adv-x="501" 
d="M767 682l-28 -68h-13.5h-12.5h-30.5t-35.5 1h-6h-5q-13 0 -22 -2t-17 -10q-11 -10 -24 -32.5t-35 -65.5q-17 -34 -35 -69.5t-36 -72.5q-71 -138 -156.5 -253t-198.5 -115q-30 0 -55 12t-40 27q-8 8 -12.5 15.5t-4.5 13.5q0 5 1.5 8.5t4.5 6.5l44 48l0.5 0.5l1.5 1.5t3 2
t5 1q5 0 7.5 -2t5.5 -5q0 -1 0.5 -1.5l1.5 -1.5q2 -2 4 -4.5t5 -5.5q8 -8 19.5 -15t23.5 -11q5 -1 9.5 -2t9.5 -1q12 0 66.5 75t117.5 169q3 5 6.5 10.5t7.5 10.5q59 88 108 165t61 95q-29 -4 -94 -25t-160 -88l-49 78q106 68 216 90.5t235 22.5q26 0 52.5 -0.5t53.5 -2.5v0
z" />
    <glyph glyph-name="c" unicode="&#x413;" horiz-adv-x="501" 
d="M767 682l-28 -68h-13.5h-12.5h-30.5t-35.5 1h-6h-5q-13 0 -22 -2t-17 -10q-11 -10 -24 -32.5t-35 -65.5q-17 -34 -35 -69.5t-36 -72.5q-71 -138 -156.5 -253t-198.5 -115q-30 0 -55 12t-40 27q-8 8 -12.5 15.5t-4.5 13.5q0 5 1.5 8.5t4.5 6.5l44 48l0.5 0.5l1.5 1.5t3 2
t5 1q5 0 7.5 -2t5.5 -5q0 -1 0.5 -1.5l1.5 -1.5q2 -2 4 -4.5t5 -5.5q8 -8 19.5 -15t23.5 -11q5 -1 9.5 -2t9.5 -1q12 0 66.5 75t117.5 169q3 5 6.5 10.5t7.5 10.5q59 88 108 165t61 95q-29 -4 -94 -25t-160 -88l-49 78q106 68 216 90.5t235 22.5q26 0 52.5 -0.5t53.5 -2.5v0
z" />
    <glyph glyph-name="d" unicode="&#xc4;" horiz-adv-x="673" 
d="M481 551l63 -36q-40 -50 -67.5 -93.5t-50.5 -85.5q-5 -8 -9.5 -17t-9.5 -18q-1 -2 -2 -3.5t-2 -3.5q-79 -146 -110 -173t-35 -31l-1 -1v-1q0 -2 4.5 -5t11.5 -6q11 -4 25.5 -8t29.5 -5q3 -1 6 -1h6q11 0 22.5 1.5t22.5 5.5q75 21 142.5 97t98.5 163q9 26 14 52t5 50
q0 86 -38.5 128.5t-85.5 53.5q-10 3 -20.5 4t-20.5 1q-16 0 -31 -3t-30 -10q-31 -14 -62 -45.5t-66 -85.5l-78 55q58 76 122.5 118.5t144.5 42.5q10 0 20.5 -1t21.5 -2q80 -13 147 -76.5t67 -182.5q0 -25 -4 -50.5t-11 -51.5q-34 -124 -136.5 -227.5t-231.5 -103.5h-7.5
t-7.5 1q-24 1 -54 10.5t-91 33.5q-8 -5 -16.5 -10t-16.5 -9q-19 -10 -38 -16t-41 -6q-36 0 -44 2.5t-9 7.5q0 1 -0.5 1.5l-0.5 0.5l-12 37q-1 2 -1 3v2v1.5v1.5q4 17 34.5 32.5t65.5 23.5q12 3 23.5 4.5t21.5 2.5h4.5h3.5q5 0 7.5 -0.5t4.5 -0.5q1 0 1.5 -0.5t1.5 -0.5h0.5
h1.5q8 0 23.5 19.5t32.5 45.5q3 6 6 11t7 10q17 29 31 54t17 31q56 110 106.5 174t73.5 88v0z" />
    <glyph glyph-name="d" unicode="&#x414;" horiz-adv-x="673" 
d="M481 551l63 -36q-40 -50 -67.5 -93.5t-50.5 -85.5q-5 -8 -9.5 -17t-9.5 -18q-1 -2 -2 -3.5t-2 -3.5q-79 -146 -110 -173t-35 -31l-1 -1v-1q0 -2 4.5 -5t11.5 -6q11 -4 25.5 -8t29.5 -5q3 -1 6 -1h6q11 0 22.5 1.5t22.5 5.5q75 21 142.5 97t98.5 163q9 26 14 52t5 50
q0 86 -38.5 128.5t-85.5 53.5q-10 3 -20.5 4t-20.5 1q-16 0 -31 -3t-30 -10q-31 -14 -62 -45.5t-66 -85.5l-78 55q58 76 122.5 118.5t144.5 42.5q10 0 20.5 -1t21.5 -2q80 -13 147 -76.5t67 -182.5q0 -25 -4 -50.5t-11 -51.5q-34 -124 -136.5 -227.5t-231.5 -103.5h-7.5
t-7.5 1q-24 1 -54 10.5t-91 33.5q-8 -5 -16.5 -10t-16.5 -9q-19 -10 -38 -16t-41 -6q-36 0 -44 2.5t-9 7.5q0 1 -0.5 1.5l-0.5 0.5l-12 37q-1 2 -1 3v2v1.5v1.5q4 17 34.5 32.5t65.5 23.5q12 3 23.5 4.5t21.5 2.5h4.5h3.5q5 0 7.5 -0.5t4.5 -0.5q1 0 1.5 -0.5t1.5 -0.5h0.5
h1.5q8 0 23.5 19.5t32.5 45.5q3 6 6 11t7 10q17 29 31 54t17 31q56 110 106.5 174t73.5 88v0z" />
    <glyph glyph-name="e" unicode="&#xc5;" horiz-adv-x="543" 
d="M502 205l59 -66q-15 -14 -30.5 -27t-30.5 -25q-53 -42 -107 -67t-114 -25q-71 0 -111 30.5t-51 67.5q-3 7 -4 15t-1 15q0 22 10.5 59t53.5 77q22 20 55 40t79 38v8h-8q-43 0 -65 26t-22 63q0 79 61.5 141.5t136.5 96.5q34 16 68 24.5t61 8.5q53 0 90 -30t37 -83
q0 -12 -3 -25t-9 -27q-6 -13 -15.5 -26.5t-21.5 -25.5l-71 51q2 4 5.5 9t7.5 11q1 2 2.5 4t2.5 5q5 8 8.5 16t3.5 13q0 19 -10.5 31t-27.5 12q-20 0 -45 -11t-51 -29q-28 -19 -54 -43.5t-46 -50.5q-18 -23 -28.5 -45t-10.5 -40q0 -17 14 -25.5t30 -8.5q9 0 20 2t22 6
q10 3 19.5 7t17.5 8q4 1 7 2.5t6 3.5l31 -56q-8 -5 -13.5 -8t-11.5 -6q-1 -1 -2 -1.5t-2 -1.5q-4 -1 -7.5 -3t-7.5 -4q-139 -76 -178 -132t-39 -88q0 -5 0.5 -10t2.5 -11q4 -14 15.5 -25.5t35.5 -11.5q16 0 33 4.5t34 11.5q33 15 64.5 38.5t59.5 48.5q13 12 24 23l21 21v0z
" />
    <glyph glyph-name="e" unicode="&#x415;" horiz-adv-x="543" 
d="M502 205l59 -66q-15 -14 -30.5 -27t-30.5 -25q-53 -42 -107 -67t-114 -25q-71 0 -111 30.5t-51 67.5q-3 7 -4 15t-1 15q0 22 10.5 59t53.5 77q22 20 55 40t79 38v8h-8q-43 0 -65 26t-22 63q0 79 61.5 141.5t136.5 96.5q34 16 68 24.5t61 8.5q53 0 90 -30t37 -83
q0 -12 -3 -25t-9 -27q-6 -13 -15.5 -26.5t-21.5 -25.5l-71 51q2 4 5.5 9t7.5 11q1 2 2.5 4t2.5 5q5 8 8.5 16t3.5 13q0 19 -10.5 31t-27.5 12q-20 0 -45 -11t-51 -29q-28 -19 -54 -43.5t-46 -50.5q-18 -23 -28.5 -45t-10.5 -40q0 -17 14 -25.5t30 -8.5q9 0 20 2t22 6
q10 3 19.5 7t17.5 8q4 1 7 2.5t6 3.5l31 -56q-8 -5 -13.5 -8t-11.5 -6q-1 -1 -2 -1.5t-2 -1.5q-4 -1 -7.5 -3t-7.5 -4q-139 -76 -178 -132t-39 -88q0 -5 0.5 -10t2.5 -11q4 -14 15.5 -25.5t35.5 -11.5q16 0 33 4.5t34 11.5q33 15 64.5 38.5t59.5 48.5q13 12 24 23l21 21v0z
" />
    <glyph glyph-name="f" unicode="&#xc6;" horiz-adv-x="889" 
d="M313 511l-69 64q32 42 79.5 71t97.5 29q62 0 94 -37.5t32 -89.5q0 -6 -0.5 -11.5t-0.5 -11.5q-2 -20 -6 -38.5t-9 -33.5l4 -4q65 44 103 74.5t63 54.5l58 -32q-45 -68 -75.5 -122.5t-57.5 -106.5q-1 -2 -2 -3.5t-2 -3.5q-9 -16 -17.5 -32t-17.5 -32q-4 -7 -7.5 -13.5
t-7.5 -12.5q0 -1 -0.5 -2t-1.5 -2q-6 -10 -12 -21.5t-13 -27.5l10 -7q46 47 75.5 75t55.5 49q7 6 15.5 12t16.5 12l1.5 1.5t1.5 0.5q3 6 6.5 12t6.5 11q47 82 117 159.5t150 132.5l56 -74q-203 -150 -259.5 -262.5t-56.5 -155.5q0 -32 15 -47t35 -15q11 0 26 5.5t31 13.5
q8 4 16 8.5t15 8.5q10 6 18 11.5t14 10.5l-22 -66q-15 -15 -37 -29t-44 -23q-14 -5 -27.5 -8t-25.5 -3q-4 0 -8.5 0.5t-9.5 1.5q-30 5 -55 28t-25 67q0 14 1.5 26.5t4.5 24.5q3 11 6.5 22t8.5 23l-6 6q-20 -16 -46 -41t-53 -53l-8 -8l-8 -8q-29 -31 -56 -59.5t-44 -46.5
l-71 25q25 52 54.5 111t61.5 119q16 29 31.5 58t31.5 57q10 19 21 37t21 36l-6 7q-13 -9 -25.5 -18t-24.5 -17q-13 -9 -25.5 -17.5t-25.5 -16.5q-14 -31 -35.5 -68t-48.5 -75q-41 -58 -92 -111.5t-103 -87.5q-30 -19 -59 -29.5t-56 -10.5q-29 0 -45 9.5t-23 21.5q-6 9 -8 17
t-2 12q0 38 48.5 92.5t125.5 112.5q46 34 99 67.5t109 63.5q4 9 11.5 25.5t14.5 35.5q3 7 5.5 13t4.5 12q9 25 15.5 47.5t6.5 35.5q0 22 -9 34t-20 17q-7 4 -13.5 5t-10.5 1q-6 0 -13 -2t-14 -6q-14 -9 -27.5 -22.5t-24.5 -28.5q-7 -9 -13 -18t-10 -16v0zM376 295l-4 4
q-33 -22 -56.5 -38.5t-44.5 -31.5l-10 -8t-10 -9q-5 -3 -9.5 -7t-9.5 -8q-73 -63 -91 -87t-18 -35q0 -10 5 -15.5t11 -6.5q1 -1 2 -1h2q8 0 20.5 7t25.5 18q4 3 8.5 6.5t8.5 6.5q12 10 21.5 19.5l14.5 14.5q38 41 58.5 63.5t33.5 41.5q3 3 6 7t5 8q7 11 14.5 23t16.5 28v0z
" />
    <glyph glyph-name="f" unicode="&#x416;" horiz-adv-x="889" 
d="M313 511l-69 64q32 42 79.5 71t97.5 29q62 0 94 -37.5t32 -89.5q0 -6 -0.5 -11.5t-0.5 -11.5q-2 -20 -6 -38.5t-9 -33.5l4 -4q65 44 103 74.5t63 54.5l58 -32q-45 -68 -75.5 -122.5t-57.5 -106.5q-1 -2 -2 -3.5t-2 -3.5q-9 -16 -17.5 -32t-17.5 -32q-4 -7 -7.5 -13.5
t-7.5 -12.5q0 -1 -0.5 -2t-1.5 -2q-6 -10 -12 -21.5t-13 -27.5l10 -7q46 47 75.5 75t55.5 49q7 6 15.5 12t16.5 12l1.5 1.5t1.5 0.5q3 6 6.5 12t6.5 11q47 82 117 159.5t150 132.5l56 -74q-203 -150 -259.5 -262.5t-56.5 -155.5q0 -32 15 -47t35 -15q11 0 26 5.5t31 13.5
q8 4 16 8.5t15 8.5q10 6 18 11.5t14 10.5l-22 -66q-15 -15 -37 -29t-44 -23q-14 -5 -27.5 -8t-25.5 -3q-4 0 -8.5 0.5t-9.5 1.5q-30 5 -55 28t-25 67q0 14 1.5 26.5t4.5 24.5q3 11 6.5 22t8.5 23l-6 6q-20 -16 -46 -41t-53 -53l-8 -8l-8 -8q-29 -31 -56 -59.5t-44 -46.5
l-71 25q25 52 54.5 111t61.5 119q16 29 31.5 58t31.5 57q10 19 21 37t21 36l-6 7q-13 -9 -25.5 -18t-24.5 -17q-13 -9 -25.5 -17.5t-25.5 -16.5q-14 -31 -35.5 -68t-48.5 -75q-41 -58 -92 -111.5t-103 -87.5q-30 -19 -59 -29.5t-56 -10.5q-29 0 -45 9.5t-23 21.5q-6 9 -8 17
t-2 12q0 38 48.5 92.5t125.5 112.5q46 34 99 67.5t109 63.5q4 9 11.5 25.5t14.5 35.5q3 7 5.5 13t4.5 12q9 25 15.5 47.5t6.5 35.5q0 22 -9 34t-20 17q-7 4 -13.5 5t-10.5 1q-6 0 -13 -2t-14 -6q-14 -9 -27.5 -22.5t-24.5 -28.5q-7 -9 -13 -18t-10 -16v0zM376 295l-4 4
q-33 -22 -56.5 -38.5t-44.5 -31.5l-10 -8t-10 -9q-5 -3 -9.5 -7t-9.5 -8q-73 -63 -91 -87t-18 -35q0 -10 5 -15.5t11 -6.5q1 -1 2 -1h2q8 0 20.5 7t25.5 18q4 3 8.5 6.5t8.5 6.5q12 10 21.5 19.5l14.5 14.5q38 41 58.5 63.5t33.5 41.5q3 3 6 7t5 8q7 11 14.5 23t16.5 28v0z
" />
    <glyph glyph-name="g" unicode="&#xc7;" horiz-adv-x="508" 
d="M287 502l-62 61q36 42 77 71.5t83 45.5q23 9 46 13.5t45 4.5q65 0 97.5 -36t32.5 -80q0 -24 -12 -52.5t-39 -58.5q-26 -27 -66.5 -53.5t-98.5 -49.5v-7h3.5h2.5q58 0 91.5 -32t33.5 -97q0 -94 -85 -162t-188 -78q-8 -1 -17 -1.5t-18 -0.5q-47 0 -84.5 16t-59.5 36
q-13 12 -20 22.5t-7 18.5q0 3 1.5 6t3.5 5l2 2l2 2l49 42q2 2 4 3t5 1q2 0 3.5 -1t3.5 -2t4 -2.5t3 -4.5q4 -6 9.5 -14t12.5 -16q15 -18 39 -32.5t58 -14.5q14 0 30 4t32 11q43 19 79 60.5t36 99.5q0 43 -17.5 62.5t-38.5 23.5q-2 0 -5 0.5t-6 0.5q-7 0 -16.5 -1t-18.5 -2
q-10 -2 -19.5 -4t-16.5 -4l-23 59q17 7 50 22t70 36q50 30 91.5 71t41.5 90q0 20 -10 33t-33 13q-34 0 -74.5 -26.5t-106.5 -103.5v0z" />
    <glyph glyph-name="g" unicode="&#x417;" horiz-adv-x="508" 
d="M287 502l-62 61q36 42 77 71.5t83 45.5q23 9 46 13.5t45 4.5q65 0 97.5 -36t32.5 -80q0 -24 -12 -52.5t-39 -58.5q-26 -27 -66.5 -53.5t-98.5 -49.5v-7h3.5h2.5q58 0 91.5 -32t33.5 -97q0 -94 -85 -162t-188 -78q-8 -1 -17 -1.5t-18 -0.5q-47 0 -84.5 16t-59.5 36
q-13 12 -20 22.5t-7 18.5q0 3 1.5 6t3.5 5l2 2l2 2l49 42q2 2 4 3t5 1q2 0 3.5 -1t3.5 -2t4 -2.5t3 -4.5q4 -6 9.5 -14t12.5 -16q15 -18 39 -32.5t58 -14.5q14 0 30 4t32 11q43 19 79 60.5t36 99.5q0 43 -17.5 62.5t-38.5 23.5q-2 0 -5 0.5t-6 0.5q-7 0 -16.5 -1t-18.5 -2
q-10 -2 -19.5 -4t-16.5 -4l-23 59q17 7 50 22t70 36q50 30 91.5 71t41.5 90q0 20 -10 33t-33 13q-34 0 -74.5 -26.5t-106.5 -103.5v0z" />
    <glyph glyph-name="h" unicode="&#xc8;" horiz-adv-x="614" 
d="M385 695l81 -49l-173 -311q-38 -68 -53.5 -100t-25.5 -57l-0.5 -1t-0.5 -2q-2 -4 -4 -8.5t-4 -9.5q-3 -7 -5.5 -14.5t-2.5 -16.5q0 -7 3.5 -11t8.5 -6q2 -1 4.5 -1.5t4.5 -0.5q9 0 26 10t35 23q5 4 9.5 7.5t8.5 7.5q6 4 11.5 9t10.5 9q47 41 81.5 73t62.5 62q17 18 32 36
t29 38q35 47 73 110.5t95 161.5l76 -51q-10 -15 -47.5 -78t-80.5 -140q-5 -8 -9.5 -16.5t-8.5 -16.5q-45 -80 -79 -150.5t-34 -94.5q0 -12 5 -17.5t11 -6.5q4 -1 7 -1.5t5 -0.5q5 0 29.5 6.5t72.5 43.5l-25 -68q-45 -48 -79 -58t-53 -10q-4 0 -9 0.5t-10 0.5q-19 4 -35 17.5
t-16 50.5q0 24 6 46t14 40q4 10 7.5 18t6.5 14q1 3 2.5 5.5t2.5 5.5q0 1 0.5 2t1.5 2q2 5 5 10.5t7 13.5l-5 5l-6 -6l-5 -5l-9.5 -9.5l-12.5 -12.5q-16 -16 -37 -36.5t-45 -41.5q-14 -12 -29 -24.5t-31 -24.5q-40 -30 -77.5 -50.5t-62.5 -20.5h-5.5t-5.5 1q-19 2 -34.5 16.5
t-15.5 52.5q0 56 62 182t239 448v0z" />
    <glyph glyph-name="h" unicode="&#x418;" horiz-adv-x="614" 
d="M385 695l81 -49l-173 -311q-38 -68 -53.5 -100t-25.5 -57l-0.5 -1t-0.5 -2q-2 -4 -4 -8.5t-4 -9.5q-3 -7 -5.5 -14.5t-2.5 -16.5q0 -7 3.5 -11t8.5 -6q2 -1 4.5 -1.5t4.5 -0.5q9 0 26 10t35 23q5 4 9.5 7.5t8.5 7.5q6 4 11.5 9t10.5 9q47 41 81.5 73t62.5 62q17 18 32 36
t29 38q35 47 73 110.5t95 161.5l76 -51q-10 -15 -47.5 -78t-80.5 -140q-5 -8 -9.5 -16.5t-8.5 -16.5q-45 -80 -79 -150.5t-34 -94.5q0 -12 5 -17.5t11 -6.5q4 -1 7 -1.5t5 -0.5q5 0 29.5 6.5t72.5 43.5l-25 -68q-45 -48 -79 -58t-53 -10q-4 0 -9 0.5t-10 0.5q-19 4 -35 17.5
t-16 50.5q0 24 6 46t14 40q4 10 7.5 18t6.5 14q1 3 2.5 5.5t2.5 5.5q0 1 0.5 2t1.5 2q2 5 5 10.5t7 13.5l-5 5l-6 -6l-5 -5l-9.5 -9.5l-12.5 -12.5q-16 -16 -37 -36.5t-45 -41.5q-14 -12 -29 -24.5t-31 -24.5q-40 -30 -77.5 -50.5t-62.5 -20.5h-5.5t-5.5 1q-19 2 -34.5 16.5
t-15.5 52.5q0 56 62 182t239 448v0z" />
    <glyph glyph-name="i" unicode="&#xc9;" horiz-adv-x="614" 
d="M385 695l81 -49l-173 -311q-38 -68 -53.5 -100t-25.5 -57l-0.5 -1t-0.5 -2q-2 -4 -4 -8.5t-4 -9.5q-3 -7 -5.5 -14.5t-2.5 -16.5q0 -7 3.5 -11t8.5 -6q2 -1 4.5 -1.5t4.5 -0.5q9 0 26 10t35 23q5 4 9.5 7.5t8.5 7.5q6 4 11.5 9t10.5 9q47 41 81.5 73t62.5 62q17 18 32 36
t29 38q35 47 73 110.5t95 161.5l76 -51q-10 -15 -47.5 -78t-80.5 -140q-5 -8 -9.5 -16.5t-8.5 -16.5q-45 -80 -79 -150.5t-34 -94.5q0 -12 5 -17.5t11 -6.5q4 -1 7 -1.5t5 -0.5q5 0 29.5 6.5t72.5 43.5l-25 -68q-45 -48 -79 -58t-53 -10q-4 0 -9 0.5t-10 0.5q-19 4 -35 17.5
t-16 50.5q0 24 6 46t14 40q4 10 7.5 18t6.5 14q1 3 2.5 5.5t2.5 5.5q0 1 0.5 2t1.5 2q2 5 5 10.5t7 13.5l-5 5l-6 -6l-5 -5l-9.5 -9.5l-12.5 -12.5q-16 -16 -37 -36.5t-45 -41.5q-14 -12 -29 -24.5t-31 -24.5q-40 -30 -77.5 -50.5t-62.5 -20.5h-5.5t-5.5 1q-19 2 -34.5 16.5
t-15.5 52.5q0 56 62 182t239 448v0zM496 821l82 3v-2.5v-2.5q-1 -1 -1 -2.5v-2.5q1 -23 15 -40t41 -17q3 0 6 0.5t5 0.5q20 4 39.5 18t34.5 30q7 8 13.5 15t11.5 13l39 -32q-28 -40 -76 -71.5t-104 -31.5q-50 0 -75 27t-30 60q-1 5 -1.5 10t-0.5 10v7.5t1 7.5v0z" />
    <glyph glyph-name="i" unicode="&#x419;" horiz-adv-x="614" 
d="M385 695l81 -49l-173 -311q-38 -68 -53.5 -100t-25.5 -57l-0.5 -1t-0.5 -2q-2 -4 -4 -8.5t-4 -9.5q-3 -7 -5.5 -14.5t-2.5 -16.5q0 -7 3.5 -11t8.5 -6q2 -1 4.5 -1.5t4.5 -0.5q9 0 26 10t35 23q5 4 9.5 7.5t8.5 7.5q6 4 11.5 9t10.5 9q47 41 81.5 73t62.5 62q17 18 32 36
t29 38q35 47 73 110.5t95 161.5l76 -51q-10 -15 -47.5 -78t-80.5 -140q-5 -8 -9.5 -16.5t-8.5 -16.5q-45 -80 -79 -150.5t-34 -94.5q0 -12 5 -17.5t11 -6.5q4 -1 7 -1.5t5 -0.5q5 0 29.5 6.5t72.5 43.5l-25 -68q-45 -48 -79 -58t-53 -10q-4 0 -9 0.5t-10 0.5q-19 4 -35 17.5
t-16 50.5q0 24 6 46t14 40q4 10 7.5 18t6.5 14q1 3 2.5 5.5t2.5 5.5q0 1 0.5 2t1.5 2q2 5 5 10.5t7 13.5l-5 5l-6 -6l-5 -5l-9.5 -9.5l-12.5 -12.5q-16 -16 -37 -36.5t-45 -41.5q-14 -12 -29 -24.5t-31 -24.5q-40 -30 -77.5 -50.5t-62.5 -20.5h-5.5t-5.5 1q-19 2 -34.5 16.5
t-15.5 52.5q0 56 62 182t239 448v0zM496 821l82 3v-2.5v-2.5q-1 -1 -1 -2.5v-2.5q1 -23 15 -40t41 -17q3 0 6 0.5t5 0.5q20 4 39.5 18t34.5 30q7 8 13.5 15t11.5 13l39 -32q-28 -40 -76 -71.5t-104 -31.5q-50 0 -75 27t-30 60q-1 5 -1.5 10t-0.5 10v7.5t1 7.5v0z" />
    <glyph glyph-name="j" unicode="&#xca;" horiz-adv-x="611" 
d="M399 667l83 -46l-139 -248l2.5 2.5l2.5 2.5q6 5 12.5 8t15.5 3h6h6q3 -1 7 -1.5t9 -0.5q4 -1 7.5 -1h6.5h3.5t3.5 1h3h3q18 1 36.5 8.5t37.5 19.5q46 29 90.5 81.5t80.5 108.5q15 24 28 47t24 44l83 -43q-22 -42 -45 -76.5t-47 -62.5q-79 -97 -149.5 -130.5t-96.5 -39.5
q-3 -1 -5.5 -1.5t-5.5 -0.5q-17 -4 -31.5 -10.5t-14.5 -27.5q0 -17 3 -46t9 -61q10 -46 28 -84.5t48 -38.5q11 0 25.5 4.5t29.5 11.5q9 4 17 8.5t16 9.5q14 8 25.5 15.5t17.5 12.5l-24 -73q-47 -37 -80 -50t-53 -13q-73 0 -112 86t-39 196v18t1 18q0 8 1 17l2 18l-182 -365
l-93 29l343 650v0z" />
    <glyph glyph-name="j" unicode="&#x41a;" horiz-adv-x="611" 
d="M399 667l83 -46l-139 -248l2.5 2.5l2.5 2.5q6 5 12.5 8t15.5 3h6h6q3 -1 7 -1.5t9 -0.5q4 -1 7.5 -1h6.5h3.5t3.5 1h3h3q18 1 36.5 8.5t37.5 19.5q46 29 90.5 81.5t80.5 108.5q15 24 28 47t24 44l83 -43q-22 -42 -45 -76.5t-47 -62.5q-79 -97 -149.5 -130.5t-96.5 -39.5
q-3 -1 -5.5 -1.5t-5.5 -0.5q-17 -4 -31.5 -10.5t-14.5 -27.5q0 -17 3 -46t9 -61q10 -46 28 -84.5t48 -38.5q11 0 25.5 4.5t29.5 11.5q9 4 17 8.5t16 9.5q14 8 25.5 15.5t17.5 12.5l-24 -73q-47 -37 -80 -50t-53 -13q-73 0 -112 86t-39 196v18t1 18q0 8 1 17l2 18l-182 -365
l-93 29l343 650v0z" />
    <glyph glyph-name="k" unicode="&#xcb;" horiz-adv-x="611" 
d="M635 131l-24 -68q-5 -4 -10.5 -8t-12.5 -8q-11 -8 -23.5 -15.5t-25.5 -14.5q-20 -10 -39.5 -16.5t-34.5 -6.5q-27 0 -47.5 19t-20.5 53q0 19 11.5 54t27.5 73q4 9 8 17.5t7 17.5q14 31 26.5 56.5t20.5 39.5l-7 4q-13 -17 -22.5 -27t-16.5 -19q-2 -1 -3.5 -2.5t-2.5 -3.5
q-10 -11 -15.5 -18t-10.5 -13q-9 -11 -22 -26.5t-48 -54.5q-112 -122 -166 -146t-84 -24q-7 0 -17.5 1.5t-21.5 4.5q-18 7 -32.5 23.5t-14.5 48.5q0 9 2.5 23.5t6.5 29.5q7 24 18.5 44.5t24.5 20.5q2 0 3.5 -0.5t2.5 -1.5l56 -31q3 -1 6 -3.5t4 -8.5q0 -1 0.5 -2t0.5 -2
t-0.5 -2t-0.5 -2q-1 -5 -3.5 -9.5t-5.5 -9.5q-3 -6 -6 -12.5t-3 -13.5v-2t1 -2q1 -4 6.5 -8t14.5 -4q31 0 74.5 38t89.5 86q5 6 10 11.5t10 11.5q6 5 11 10.5t10 11.5q29 31 55 61t51 59q61 75 111.5 152t96.5 169l90 -50q-149 -286 -200.5 -398t-51.5 -142q0 -9 4.5 -13
t9.5 -6q3 -1 5.5 -1h4.5q11 0 27 6t33 16q8 4 16.5 9t16.5 10q5 4 10 7.5t9 6.5v0z" />
    <glyph glyph-name="k" unicode="&#x41b;" horiz-adv-x="611" 
d="M635 131l-24 -68q-5 -4 -10.5 -8t-12.5 -8q-11 -8 -23.5 -15.5t-25.5 -14.5q-20 -10 -39.5 -16.5t-34.5 -6.5q-27 0 -47.5 19t-20.5 53q0 19 11.5 54t27.5 73q4 9 8 17.5t7 17.5q14 31 26.5 56.5t20.5 39.5l-7 4q-13 -17 -22.5 -27t-16.5 -19q-2 -1 -3.5 -2.5t-2.5 -3.5
q-10 -11 -15.5 -18t-10.5 -13q-9 -11 -22 -26.5t-48 -54.5q-112 -122 -166 -146t-84 -24q-7 0 -17.5 1.5t-21.5 4.5q-18 7 -32.5 23.5t-14.5 48.5q0 9 2.5 23.5t6.5 29.5q7 24 18.5 44.5t24.5 20.5q2 0 3.5 -0.5t2.5 -1.5l56 -31q3 -1 6 -3.5t4 -8.5q0 -1 0.5 -2t0.5 -2
t-0.5 -2t-0.5 -2q-1 -5 -3.5 -9.5t-5.5 -9.5q-3 -6 -6 -12.5t-3 -13.5v-2t1 -2q1 -4 6.5 -8t14.5 -4q31 0 74.5 38t89.5 86q5 6 10 11.5t10 11.5q6 5 11 10.5t10 11.5q29 31 55 61t51 59q61 75 111.5 152t96.5 169l90 -50q-149 -286 -200.5 -398t-51.5 -142q0 -9 4.5 -13
t9.5 -6q3 -1 5.5 -1h4.5q11 0 27 6t33 16q8 4 16.5 9t16.5 10q5 4 10 7.5t9 6.5v0z" />
    <glyph glyph-name="l" unicode="&#xcc;" horiz-adv-x="879" 
d="M904 131l-25 -68q-3 -4 -7.5 -7.5t-9.5 -7.5q-13 -11 -30 -21t-35 -18q-16 -7 -31 -10.5t-28 -3.5q-22 0 -40 17.5t-18 61.5q0 21 5.5 38.5t12.5 33.5q4 8 8 15.5t8 15.5q2 5 4 8.5t4 6.5v1l1 1q1 4 3 8l5 10l-7 4q-91 -98 -153.5 -159.5t-117.5 -61.5q-29 0 -45 20
t-16 45q0 17 5 38t12 43l10 26t10 25t10.5 23t9.5 20l-7 2q-3 -2 -4.5 -4t-3.5 -4l-1.5 -1.5l-1.5 -1.5q-1 -2 -2.5 -4t-3.5 -4q-14 -17 -39.5 -44.5t-57.5 -57.5q-29 -25 -60.5 -49.5t-64.5 -42.5q-26 -13 -51 -21t-49 -8q-42 0 -61 16.5t-24 36.5q-2 7 -3 13.5t-1 12.5
q0 10 2.5 21.5t6.5 24.5q7 19 18 37t22 29q5 5 10.5 7.5t10.5 2.5q2 0 4.5 -0.5t4.5 -2.5l51 -35q2 -1 3 -2.5t2 -2.5q1 -2 1 -3.5v-2.5q0 -4 -2 -7.5t-5 -6.5l-1.5 -1.5l-1.5 -1.5q-11 -12 -13.5 -20.5t-2.5 -11.5q0 -9 4 -14t9 -7q3 -1 6 -1.5t5 -0.5q45 0 97 38t106 99
q43 49 85.5 108t81.5 120q43 68 79.5 133.5t61.5 116.5l82 -47q-157 -287 -206.5 -380.5t-49.5 -146.5v-1.5v-2.5v-4.5t1 -4.5q1 -5 4 -9.5t11 -4.5q7 0 16.5 5.5t20.5 12.5q3 3 7 6t7 6q11 8 19 15.5t12 11.5q53 53 91.5 98t70.5 88q18 24 35 49t33 51q28 45 57 97t66 117
l83 -51q-17 -30 -48.5 -83.5t-65.5 -114.5q-6 -10 -11.5 -20t-11.5 -20q-42 -78 -74.5 -148t-32.5 -101q0 -12 4.5 -18t9.5 -8q4 -1 7.5 -1.5t5.5 -0.5q9 0 20 3.5t23 9.5q7 4 14.5 8t14.5 8q9 6 17 12t13 10v0z" />
    <glyph glyph-name="l" unicode="&#x41c;" horiz-adv-x="879" 
d="M904 131l-25 -68q-3 -4 -7.5 -7.5t-9.5 -7.5q-13 -11 -30 -21t-35 -18q-16 -7 -31 -10.5t-28 -3.5q-22 0 -40 17.5t-18 61.5q0 21 5.5 38.5t12.5 33.5q4 8 8 15.5t8 15.5q2 5 4 8.5t4 6.5v1l1 1q1 4 3 8l5 10l-7 4q-91 -98 -153.5 -159.5t-117.5 -61.5q-29 0 -45 20
t-16 45q0 17 5 38t12 43l10 26t10 25t10.5 23t9.5 20l-7 2q-3 -2 -4.5 -4t-3.5 -4l-1.5 -1.5l-1.5 -1.5q-1 -2 -2.5 -4t-3.5 -4q-14 -17 -39.5 -44.5t-57.5 -57.5q-29 -25 -60.5 -49.5t-64.5 -42.5q-26 -13 -51 -21t-49 -8q-42 0 -61 16.5t-24 36.5q-2 7 -3 13.5t-1 12.5
q0 10 2.5 21.5t6.5 24.5q7 19 18 37t22 29q5 5 10.5 7.5t10.5 2.5q2 0 4.5 -0.5t4.5 -2.5l51 -35q2 -1 3 -2.5t2 -2.5q1 -2 1 -3.5v-2.5q0 -4 -2 -7.5t-5 -6.5l-1.5 -1.5l-1.5 -1.5q-11 -12 -13.5 -20.5t-2.5 -11.5q0 -9 4 -14t9 -7q3 -1 6 -1.5t5 -0.5q45 0 97 38t106 99
q43 49 85.5 108t81.5 120q43 68 79.5 133.5t61.5 116.5l82 -47q-157 -287 -206.5 -380.5t-49.5 -146.5v-1.5v-2.5v-4.5t1 -4.5q1 -5 4 -9.5t11 -4.5q7 0 16.5 5.5t20.5 12.5q3 3 7 6t7 6q11 8 19 15.5t12 11.5q53 53 91.5 98t70.5 88q18 24 35 49t33 51q28 45 57 97t66 117
l83 -51q-17 -30 -48.5 -83.5t-65.5 -114.5q-6 -10 -11.5 -20t-11.5 -20q-42 -78 -74.5 -148t-32.5 -101q0 -12 4.5 -18t9.5 -8q4 -1 7.5 -1.5t5.5 -0.5q9 0 20 3.5t23 9.5q7 4 14.5 8t14.5 8q9 6 17 12t13 10v0z" />
    <glyph glyph-name="m" unicode="&#xcd;" horiz-adv-x="639" 
d="M666 132l-28 -76q-4 -2 -8 -4.5t-8 -4.5q-13 -7 -27.5 -13.5t-28.5 -12.5q-24 -9 -46 -15t-37 -6h-5.5t-5.5 1q-20 3 -36 19t-16 47q0 38 24.5 96t75.5 165q-43 1 -87 -3t-88 -12q-26 -48 -42 -78t-30 -57q-3 -7 -7 -14t-8 -15l-11.5 -23l-10.5 -21q-1 -1 -1.5 -2
t-1.5 -2q-11 -21 -23.5 -45t-31.5 -59l-94 27q21 39 36.5 66.5t29.5 51.5l2 4l2 4q4 7 8.5 14.5t9.5 15.5q15 27 25.5 45.5t19.5 35.5l4 8l4 8q2 5 4.5 10l5.5 11q-16 -3 -28 -5.5t-21 -5.5q-16 -6 -24 -11t-14 -8q-2 -1 -5.5 -2t-7.5 -1q-1 0 -2 0.5t-2 0.5q-3 1 -5 4t-2 7
v2.5t1 2.5l18 51q4 10 24.5 21t108.5 22q15 29 25 49l19 38q5 9 9.5 18.5t9.5 19.5q18 38 43 87.5t59 111.5l81 -42q-21 -38 -56.5 -105t-86.5 -169q4 0 8 0.5t8 1.5q15 1 33 2t37 2h19.5h18.5h21.5t18.5 -1q5 -1 8 -0.5t4 4.5l0.5 0.5t0.5 1.5l0.5 0.5l0.5 0.5
q7 15 14.5 29t15.5 27q4 6 7.5 13t7.5 13q9 14 16.5 27.5t14.5 25.5l1.5 3l1.5 3q18 31 39 65t57 85l72 -48q-58 -89 -90.5 -143t-56.5 -100q-2 -2 -3 -4.5t-2 -4.5q13 -1 24.5 -2t22.5 -3l-25 -60q-2 0 -6 0.5t-9 0.5q-2 0 -4.5 0.5t-4.5 0.5q-8 0 -15 0.5t-10 0.5
q-6 0 -19 -23t-28 -55q-4 -9 -8 -17.5t-7 -17.5q-14 -34 -24.5 -64.5t-10.5 -42.5v-4t1 -4q1 -5 5.5 -10t15.5 -5q9 0 25 5.5t33 13.5q5 3 9.5 5t8.5 4q12 6 22.5 12l17.5 10v0z" />
    <glyph glyph-name="m" unicode="&#x41d;" horiz-adv-x="639" 
d="M666 132l-28 -76q-4 -2 -8 -4.5t-8 -4.5q-13 -7 -27.5 -13.5t-28.5 -12.5q-24 -9 -46 -15t-37 -6h-5.5t-5.5 1q-20 3 -36 19t-16 47q0 38 24.5 96t75.5 165q-43 1 -87 -3t-88 -12q-26 -48 -42 -78t-30 -57q-3 -7 -7 -14t-8 -15l-11.5 -23l-10.5 -21q-1 -1 -1.5 -2
t-1.5 -2q-11 -21 -23.5 -45t-31.5 -59l-94 27q21 39 36.5 66.5t29.5 51.5l2 4l2 4q4 7 8.5 14.5t9.5 15.5q15 27 25.5 45.5t19.5 35.5l4 8l4 8q2 5 4.5 10l5.5 11q-16 -3 -28 -5.5t-21 -5.5q-16 -6 -24 -11t-14 -8q-2 -1 -5.5 -2t-7.5 -1q-1 0 -2 0.5t-2 0.5q-3 1 -5 4t-2 7
v2.5t1 2.5l18 51q4 10 24.5 21t108.5 22q15 29 25 49l19 38q5 9 9.5 18.5t9.5 19.5q18 38 43 87.5t59 111.5l81 -42q-21 -38 -56.5 -105t-86.5 -169q4 0 8 0.5t8 1.5q15 1 33 2t37 2h19.5h18.5h21.5t18.5 -1q5 -1 8 -0.5t4 4.5l0.5 0.5t0.5 1.5l0.5 0.5l0.5 0.5
q7 15 14.5 29t15.5 27q4 6 7.5 13t7.5 13q9 14 16.5 27.5t14.5 25.5l1.5 3l1.5 3q18 31 39 65t57 85l72 -48q-58 -89 -90.5 -143t-56.5 -100q-2 -2 -3 -4.5t-2 -4.5q13 -1 24.5 -2t22.5 -3l-25 -60q-2 0 -6 0.5t-9 0.5q-2 0 -4.5 0.5t-4.5 0.5q-8 0 -15 0.5t-10 0.5
q-6 0 -19 -23t-28 -55q-4 -9 -8 -17.5t-7 -17.5q-14 -34 -24.5 -64.5t-10.5 -42.5v-4t1 -4q1 -5 5.5 -10t15.5 -5q9 0 25 5.5t33 13.5q5 3 9.5 5t8.5 4q12 6 22.5 12l17.5 10v0z" />
    <glyph glyph-name="n" unicode="&#xce;" horiz-adv-x="611" 
d="M716 607l-62 -58l-6 8l-6 8q-17 21 -41 38.5t-51 17.5q-25 0 -52 -11.5t-55 -31.5q-59 -43 -112.5 -115.5t-83.5 -151.5q-13 -34 -20 -67t-7 -64q0 -49 17.5 -74t38.5 -35q9 -4 18 -5.5t16 -1.5q5 0 9.5 0.5t9.5 0.5q96 14 176 144t80 291q0 11 -0.5 22t-1.5 22l101 -60
v-6v-6q-6 -172 -117 -317.5t-243 -158.5q-5 0 -10.5 -0.5t-11.5 -0.5q-73 0 -124.5 53.5t-51.5 151.5q0 142 91.5 267.5t200.5 183.5q34 18 68 28t65 10q52 0 90.5 -20.5t74.5 -61.5v0z" />
    <glyph glyph-name="n" unicode="&#x41e;" horiz-adv-x="611" 
d="M716 607l-62 -58l-6 8l-6 8q-17 21 -41 38.5t-51 17.5q-25 0 -52 -11.5t-55 -31.5q-59 -43 -112.5 -115.5t-83.5 -151.5q-13 -34 -20 -67t-7 -64q0 -49 17.5 -74t38.5 -35q9 -4 18 -5.5t16 -1.5q5 0 9.5 0.5t9.5 0.5q96 14 176 144t80 291q0 11 -0.5 22t-1.5 22l101 -60
v-6v-6q-6 -172 -117 -317.5t-243 -158.5q-5 0 -10.5 -0.5t-11.5 -0.5q-73 0 -124.5 53.5t-51.5 151.5q0 142 91.5 267.5t200.5 183.5q34 18 68 28t65 10q52 0 90.5 -20.5t74.5 -61.5v0z" />
    <glyph glyph-name="o" unicode="&#xcf;" horiz-adv-x="719" 
d="M985 679l-29 -67q-8 0 -29.5 1t-50.5 2q-20 1 -41.5 1.5t-44.5 0.5q-18 1 -36.5 1h-35.5q-16 0 -29.5 -0.5t-26.5 -0.5q-14 -1 -27.5 -2.5t-29.5 -4.5q-7 -10 -13.5 -19.5t-12.5 -19.5q-5 -7 -10 -15l-10 -16q-24 -40 -51 -91.5t-70 -135.5q-91 -180 -157 -246.5
t-127 -76.5q-9 -2 -18 -2.5t-18 -0.5h-7.5t-7.5 1q-34 3 -64 19t-37 35q-1 3 -1.5 5.5t-0.5 4.5q0 5 1.5 7t3.5 4l1.5 1.5l1.5 1.5l38 40l1.5 1.5l1.5 1.5q2 2 4 3t6 1q6 0 10 -3t7 -6q0 -1 0.5 -1.5l1.5 -1.5q11 -13 26.5 -22t31.5 -11q2 -1 4 -1h4q47 0 87.5 54.5
t74.5 119.5q6 11 11.5 22t10.5 22q73 148 117.5 216t72.5 102q-33 -5 -93.5 -27t-158.5 -86l-42 73q9 6 19 12.5t21 12.5q64 37 188 67t355 29q41 0 85.5 -1.5t92.5 -3.5v0zM744 117l-25 -69q-3 -2 -6.5 -3.5t-6.5 -3.5q-18 -9 -38 -18t-40 -15q-18 -6 -35.5 -9t-33.5 -3
q-5 0 -13 1t-16 3q-14 5 -25.5 18.5t-11.5 41.5q0 38 31 110t74 151q9 18 18.5 35t19.5 34q35 63 68 116t53 81h77q-1 -1 -1.5 -2t-0.5 -2q-2 -3 -3.5 -6t-3.5 -6q-86 -157 -158 -293t-72 -176q0 -3 0.5 -6t1.5 -6q2 -7 8 -13t18 -6q8 0 24.5 5.5t33.5 12.5q4 1 7.5 2.5
t7.5 3.5q16 7 29.5 13t18.5 9v0z" />
    <glyph glyph-name="o" unicode="&#x41f;" horiz-adv-x="719" 
d="M985 679l-29 -67q-8 0 -29.5 1t-50.5 2q-20 1 -41.5 1.5t-44.5 0.5q-18 1 -36.5 1h-35.5q-16 0 -29.5 -0.5t-26.5 -0.5q-14 -1 -27.5 -2.5t-29.5 -4.5q-7 -10 -13.5 -19.5t-12.5 -19.5q-5 -7 -10 -15l-10 -16q-24 -40 -51 -91.5t-70 -135.5q-91 -180 -157 -246.5
t-127 -76.5q-9 -2 -18 -2.5t-18 -0.5h-7.5t-7.5 1q-34 3 -64 19t-37 35q-1 3 -1.5 5.5t-0.5 4.5q0 5 1.5 7t3.5 4l1.5 1.5l1.5 1.5l38 40l1.5 1.5l1.5 1.5q2 2 4 3t6 1q6 0 10 -3t7 -6q0 -1 0.5 -1.5l1.5 -1.5q11 -13 26.5 -22t31.5 -11q2 -1 4 -1h4q47 0 87.5 54.5
t74.5 119.5q6 11 11.5 22t10.5 22q73 148 117.5 216t72.5 102q-33 -5 -93.5 -27t-158.5 -86l-42 73q9 6 19 12.5t21 12.5q64 37 188 67t355 29q41 0 85.5 -1.5t92.5 -3.5v0zM744 117l-25 -69q-3 -2 -6.5 -3.5t-6.5 -3.5q-18 -9 -38 -18t-40 -15q-18 -6 -35.5 -9t-33.5 -3
q-5 0 -13 1t-16 3q-14 5 -25.5 18.5t-11.5 41.5q0 38 31 110t74 151q9 18 18.5 35t19.5 34q35 63 68 116t53 81h77q-1 -1 -1.5 -2t-0.5 -2q-2 -3 -3.5 -6t-3.5 -6q-86 -157 -158 -293t-72 -176q0 -3 0.5 -6t1.5 -6q2 -7 8 -13t18 -6q8 0 24.5 5.5t33.5 12.5q4 1 7.5 2.5
t7.5 3.5q16 7 29.5 13t18.5 9v0z" />
    <glyph glyph-name="p" unicode="&#xd0;" horiz-adv-x="602" 
d="M240 451l-60 55q48 61 100.5 97.5t106.5 54.5q43 16 85.5 21.5t83.5 5.5q88 0 130 -42t52 -92q2 -10 3 -19.5t1 -19.5q0 -16 -4 -33t-12 -34q-23 -46 -75 -87.5t-135 -57.5l-36 52q3 1 6.5 1.5t6.5 1.5q58 16 106 60t48 96q0 7 -1 14.5t-2 15.5q-5 23 -18.5 43.5
t-36.5 27.5q-32 -36 -55 -74t-44 -82q-19 -40 -39.5 -87.5t-47.5 -105.5q-10 -22 -24 -49.5t-32 -56.5q-38 -61 -96 -111t-140 -50q-30 0 -56 9.5t-41 20.5q-6 6 -10 11.5t-4 9.5q0 5 1 8.5t3 6.5l36 45l0.5 0.5t0.5 1.5l0.5 0.5l0.5 0.5q2 3 4.5 5t6.5 2t6 -2t3 -5
l0.5 -0.5t0.5 -1.5q2 -3 6.5 -7.5t11.5 -8.5q10 -8 24.5 -14t29.5 -7h2h2q19 0 43.5 11.5t53.5 48.5q28 36 47.5 74t37.5 79q18 42 38 88t49 99q26 48 39.5 69t23.5 33l3.5 3.5l3.5 3.5q7 8 16.5 17t23.5 25q-47 1 -116.5 -30t-161.5 -141v0z" />
    <glyph glyph-name="p" unicode="&#x420;" horiz-adv-x="602" 
d="M240 451l-60 55q48 61 100.5 97.5t106.5 54.5q43 16 85.5 21.5t83.5 5.5q88 0 130 -42t52 -92q2 -10 3 -19.5t1 -19.5q0 -16 -4 -33t-12 -34q-23 -46 -75 -87.5t-135 -57.5l-36 52q3 1 6.5 1.5t6.5 1.5q58 16 106 60t48 96q0 7 -1 14.5t-2 15.5q-5 23 -18.5 43.5
t-36.5 27.5q-32 -36 -55 -74t-44 -82q-19 -40 -39.5 -87.5t-47.5 -105.5q-10 -22 -24 -49.5t-32 -56.5q-38 -61 -96 -111t-140 -50q-30 0 -56 9.5t-41 20.5q-6 6 -10 11.5t-4 9.5q0 5 1 8.5t3 6.5l36 45l0.5 0.5t0.5 1.5l0.5 0.5l0.5 0.5q2 3 4.5 5t6.5 2t6 -2t3 -5
l0.5 -0.5t0.5 -1.5q2 -3 6.5 -7.5t11.5 -8.5q10 -8 24.5 -14t29.5 -7h2h2q19 0 43.5 11.5t53.5 48.5q28 36 47.5 74t37.5 79q18 42 38 88t49 99q26 48 39.5 69t23.5 33l3.5 3.5l3.5 3.5q7 8 16.5 17t23.5 25q-47 1 -116.5 -30t-161.5 -141v0z" />
    <glyph glyph-name="q" unicode="&#xd1;" horiz-adv-x="531" 
d="M519 131l-22 -68q-25 -19 -56 -33.5t-63 -23.5q-21 -6 -41 -8.5t-39 -2.5q-66 0 -119 48.5t-53 151.5q0 8 0.5 15.5t0.5 14.5q12 148 117 279t229 176q25 9 49 13.5t48 4.5q59 0 94 -31t35 -78q0 -9 -1.5 -19t-5.5 -19q-12 -35 -44.5 -69.5t-80.5 -64.5l-72 43q9 6 18 13
t19 15q13 11 26 23t24 25q14 15 22.5 30.5t8.5 28.5v3.5t-1 3.5q-2 13 -13 23.5t-33 10.5q-25 0 -52 -10t-55 -28q-67 -43 -127.5 -122.5t-90.5 -166.5q-9 -29 -14.5 -58t-5.5 -56q0 -70 31 -100t89 -30q19 0 41.5 5.5t45.5 13.5q24 10 47.5 22t43.5 25v0z" />
    <glyph glyph-name="q" unicode="&#x421;" horiz-adv-x="531" 
d="M519 131l-22 -68q-25 -19 -56 -33.5t-63 -23.5q-21 -6 -41 -8.5t-39 -2.5q-66 0 -119 48.5t-53 151.5q0 8 0.5 15.5t0.5 14.5q12 148 117 279t229 176q25 9 49 13.5t48 4.5q59 0 94 -31t35 -78q0 -9 -1.5 -19t-5.5 -19q-12 -35 -44.5 -69.5t-80.5 -64.5l-72 43q9 6 18 13
t19 15q13 11 26 23t24 25q14 15 22.5 30.5t8.5 28.5v3.5t-1 3.5q-2 13 -13 23.5t-33 10.5q-25 0 -52 -10t-55 -28q-67 -43 -127.5 -122.5t-90.5 -166.5q-9 -29 -14.5 -58t-5.5 -56q0 -70 31 -100t89 -30q19 0 41.5 5.5t45.5 13.5q24 10 47.5 22t43.5 25v0z" />
    <glyph glyph-name="Scaron" unicode="&#xd2;" horiz-adv-x="905" 
d="M1164 675l-27 -65q-75 6 -136 9.5t-118 5.5q-28 1 -57 1.5t-59 0.5h-10h-10q-26 -1 -51 -2.5t-48 -2.5q-11 -1 -21.5 -1.5t-19.5 -1.5q-12 -19 -23 -36t-21 -34q-5 -9 -10 -17.5t-10 -17.5q-16 -29 -33 -61.5t-38 -74.5q-2 -5 -4.5 -9.5t-4.5 -9.5q-72 -141 -150 -252.5
t-191 -111.5q-35 0 -65 14.5t-45 31.5q-6 7 -9 13t-3 12q0 4 1 5.5t2 3.5q1 0 2 1l2 2l39 37l0.5 0.5t0.5 1.5q1 0 1 0.5v0.5q2 2 4 3.5t6 1.5q6 0 9 -2.5t5 -6.5q1 -2 3 -4.5t4 -4.5q9 -11 22.5 -20.5t28.5 -12.5q3 -1 6 -1.5t6 -0.5q33 0 63.5 29t54.5 64q16 24 28 46
t19 35q101 191 143.5 261.5t67.5 103.5q-40 -7 -95.5 -28.5t-153.5 -83.5l-44 74q95 61 212.5 91t310.5 30q49 0 100 -1t103 -3q54 -2 108 -5.5t105 -7.5v0zM1027 577q-16 -22 -49 -78t-70 -123q-5 -8 -9.5 -16t-8.5 -16q-44 -80 -78 -149.5t-34 -88.5q0 -16 8 -24t24 -8
q4 0 31 6t88 39l-24 -66q-57 -31 -92.5 -44.5t-63.5 -13.5q-31 0 -45 12t-19 27q-2 9 -3 16.5t-1 13.5q0 24 36 118.5t224 401.5l86 -7v0zM819 594q-4 -5 -8 -10.5t-8 -10.5q-9 -14 -18 -27.5t-18 -27.5q-21 -35 -44 -79t-54 -108q-81 -166 -123 -236t-61 -95l-85 19
q1 2 2.5 3.5t2.5 3.5q10 13 19.5 25.5t18.5 26.5q24 36 49.5 83.5t61.5 120.5q88 177 125.5 237.5t45.5 71.5l94 3v0z" />
    <glyph glyph-name="Scaron" unicode="&#x422;" horiz-adv-x="905" 
d="M1164 675l-27 -65q-75 6 -136 9.5t-118 5.5q-28 1 -57 1.5t-59 0.5h-10h-10q-26 -1 -51 -2.5t-48 -2.5q-11 -1 -21.5 -1.5t-19.5 -1.5q-12 -19 -23 -36t-21 -34q-5 -9 -10 -17.5t-10 -17.5q-16 -29 -33 -61.5t-38 -74.5q-2 -5 -4.5 -9.5t-4.5 -9.5q-72 -141 -150 -252.5
t-191 -111.5q-35 0 -65 14.5t-45 31.5q-6 7 -9 13t-3 12q0 4 1 5.5t2 3.5q1 0 2 1l2 2l39 37l0.5 0.5t0.5 1.5q1 0 1 0.5v0.5q2 2 4 3.5t6 1.5q6 0 9 -2.5t5 -6.5q1 -2 3 -4.5t4 -4.5q9 -11 22.5 -20.5t28.5 -12.5q3 -1 6 -1.5t6 -0.5q33 0 63.5 29t54.5 64q16 24 28 46
t19 35q101 191 143.5 261.5t67.5 103.5q-40 -7 -95.5 -28.5t-153.5 -83.5l-44 74q95 61 212.5 91t310.5 30q49 0 100 -1t103 -3q54 -2 108 -5.5t105 -7.5v0zM1027 577q-16 -22 -49 -78t-70 -123q-5 -8 -9.5 -16t-8.5 -16q-44 -80 -78 -149.5t-34 -88.5q0 -16 8 -24t24 -8
q4 0 31 6t88 39l-24 -66q-57 -31 -92.5 -44.5t-63.5 -13.5q-31 0 -45 12t-19 27q-2 9 -3 16.5t-1 13.5q0 24 36 118.5t224 401.5l86 -7v0zM819 594q-4 -5 -8 -10.5t-8 -10.5q-9 -14 -18 -27.5t-18 -27.5q-21 -35 -44 -79t-54 -108q-81 -166 -123 -236t-61 -95l-85 19
q1 2 2.5 3.5t2.5 3.5q10 13 19.5 25.5t18.5 26.5q24 36 49.5 83.5t61.5 120.5q88 177 125.5 237.5t45.5 71.5l94 3v0z" />
    <glyph glyph-name="r" unicode="&#xd3;" horiz-adv-x="541" 
d="M346 703l82 -44q-9 -14 -23.5 -40t-30.5 -57q-6 -10 -11 -20.5t-10 -21.5q-18 -37 -30.5 -71t-12.5 -56q0 -14 6.5 -20t14.5 -7q1 -1 3 -1h3q41 0 118.5 72t171.5 222l82 -43q-42 -75 -71.5 -135.5t-55.5 -117.5q-1 -1 -1.5 -2.5t-1.5 -3.5q-64 -139 -140 -250.5
t-209 -111.5q-45 0 -77.5 18t-52.5 41q-15 16 -22.5 31.5t-7.5 22.5q0 3 2 5.5t5 3.5l1.5 1.5t1.5 0.5l54 32q2 2 5 3t7 1t8 -3.5t7 -9.5q4 -7 8 -15.5t9 -17.5q10 -17 26.5 -31.5t46.5 -14.5q29 0 53.5 14.5t47.5 42.5q28 33 56.5 84t63.5 120q6 12 10.5 21.5t9.5 17.5
q1 3 2 5t3 4q5 10 11 20t13 22l-8 7q-4 -5 -9 -10.5t-10 -10.5q-26 -28 -59.5 -54t-68.5 -42q-21 -10 -41.5 -16t-39.5 -6q-30 0 -44.5 13.5t-20.5 30.5q-4 10 -5 19.5t-1 15.5q0 29 20.5 99.5t111.5 242.5v0z" />
    <glyph glyph-name="r" unicode="&#x423;" horiz-adv-x="541" 
d="M346 703l82 -44q-9 -14 -23.5 -40t-30.5 -57q-6 -10 -11 -20.5t-10 -21.5q-18 -37 -30.5 -71t-12.5 -56q0 -14 6.5 -20t14.5 -7q1 -1 3 -1h3q41 0 118.5 72t171.5 222l82 -43q-42 -75 -71.5 -135.5t-55.5 -117.5q-1 -1 -1.5 -2.5t-1.5 -3.5q-64 -139 -140 -250.5
t-209 -111.5q-45 0 -77.5 18t-52.5 41q-15 16 -22.5 31.5t-7.5 22.5q0 3 2 5.5t5 3.5l1.5 1.5t1.5 0.5l54 32q2 2 5 3t7 1t8 -3.5t7 -9.5q4 -7 8 -15.5t9 -17.5q10 -17 26.5 -31.5t46.5 -14.5q29 0 53.5 14.5t47.5 42.5q28 33 56.5 84t63.5 120q6 12 10.5 21.5t9.5 17.5
q1 3 2 5t3 4q5 10 11 20t13 22l-8 7q-4 -5 -9 -10.5t-10 -10.5q-26 -28 -59.5 -54t-68.5 -42q-21 -10 -41.5 -16t-39.5 -6q-30 0 -44.5 13.5t-20.5 30.5q-4 10 -5 19.5t-1 15.5q0 29 20.5 99.5t111.5 242.5v0z" />
    <glyph glyph-name="t" unicode="&#xd4;" horiz-adv-x="829" 
d="M683 712l58 -36l-55 -96l8 -5q5 4 9.5 7t9.5 6q26 17 54 24.5t64 7.5q54 0 80 -31t34 -68l2 -18t1 -18q0 -22 -8 -48t-24 -53q-40 -67 -130.5 -123.5t-231.5 -55.5l-3 64q116 5 205.5 69t89.5 158q0 32 -13.5 47.5t-38.5 15.5q-71 0 -136.5 -76t-116.5 -168
q-25 -45 -46.5 -89t-37.5 -78q-3 -6 -5 -11l-4 -10q-1 0 -1 -0.5v-1.5q-10 -21 -23.5 -49t-43.5 -89l-91 33q11 26 28 59t37 68q6 11 13 23t14 23q18 30 35.5 57t31.5 46l-6 7q-14 -11 -28.5 -21t-28.5 -18q-30 -16 -58 -24t-50 -8h-4h-4q-38 3 -69.5 32.5t-31.5 89.5
q0 110 87 197t191 108q14 3 28 4.5t28 1.5q38 0 66 -13.5t54 -45.5l61 106v0zM587 560q-7 13 -19 21t-25 11q-8 3 -16.5 4t-15.5 1q-12 0 -24.5 -2t-25.5 -7q-53 -17 -101.5 -61.5t-74.5 -94.5q-10 -20 -15.5 -39t-5.5 -37q0 -22 15.5 -37t40.5 -15q70 0 125.5 54t94.5 118
q14 22 25.5 43.5t21.5 40.5v0z" />
    <glyph glyph-name="t" unicode="&#x424;" horiz-adv-x="829" 
d="M683 712l58 -36l-55 -96l8 -5q5 4 9.5 7t9.5 6q26 17 54 24.5t64 7.5q54 0 80 -31t34 -68l2 -18t1 -18q0 -22 -8 -48t-24 -53q-40 -67 -130.5 -123.5t-231.5 -55.5l-3 64q116 5 205.5 69t89.5 158q0 32 -13.5 47.5t-38.5 15.5q-71 0 -136.5 -76t-116.5 -168
q-25 -45 -46.5 -89t-37.5 -78q-3 -6 -5 -11l-4 -10q-1 0 -1 -0.5v-1.5q-10 -21 -23.5 -49t-43.5 -89l-91 33q11 26 28 59t37 68q6 11 13 23t14 23q18 30 35.5 57t31.5 46l-6 7q-14 -11 -28.5 -21t-28.5 -18q-30 -16 -58 -24t-50 -8h-4h-4q-38 3 -69.5 32.5t-31.5 89.5
q0 110 87 197t191 108q14 3 28 4.5t28 1.5q38 0 66 -13.5t54 -45.5l61 106v0zM587 560q-7 13 -19 21t-25 11q-8 3 -16.5 4t-15.5 1q-12 0 -24.5 -2t-25.5 -7q-53 -17 -101.5 -61.5t-74.5 -94.5q-10 -20 -15.5 -39t-5.5 -37q0 -22 15.5 -37t40.5 -15q70 0 125.5 54t94.5 118
q14 22 25.5 43.5t21.5 40.5v0z" />
    <glyph glyph-name="u" unicode="&#xd5;" horiz-adv-x="645" 
d="M670 131l-25 -71q-46 -41 -79.5 -50.5t-47.5 -9.5q-7 0 -25 3t-38 20t-38 55t-25 107q-18 -17 -38.5 -36.5t-42.5 -39.5q-20 -18 -41.5 -36t-43.5 -34q-39 -30 -77.5 -49t-70.5 -19q-5 0 -15.5 1.5t-21.5 6.5q-15 8 -28 24t-13 48q0 17 3 29t7 23q2 5 4.5 10l5.5 11
q2 3 3.5 6.5t2.5 6.5q5 10 11.5 18.5t16.5 8.5q3 0 5 -0.5t4 -1.5q1 -1 2.5 -1.5t2.5 -1.5l42 -27q1 -1 2 -1.5t2 -0.5q4 -2 6.5 -5t2.5 -10q0 -4 -2 -8t-7 -11q-1 -2 -2.5 -4t-2.5 -4q-1 -3 -1.5 -6t-0.5 -8q0 -2 0.5 -4.5t0.5 -4.5q2 -5 6 -9t13 -4q14 0 48 23t116 96
q16 14 28.5 25t23.5 22q2 1 3 2.5t2 2.5q10 9 19.5 18.5t21.5 20.5q3 81 9.5 147t18.5 130q7 39 17 79t23 83l94 -38q-25 -67 -40 -130t-23 -125q-1 -14 -2.5 -28t-2.5 -28q58 56 99.5 96t79.5 76l6 6l6 6q27 26 56.5 52.5t65.5 58.5l73 -45q-43 -33 -80 -62t-71 -57
q-11 -8 -21 -16.5t-21 -17.5q-45 -37 -92 -79.5t-104 -97.5q-1 -7 -1 -16.5v-19.5q0 -11 0.5 -23t1.5 -25q4 -42 20 -77.5t54 -35.5q11 0 24 4t27 11q11 5 21.5 11t19.5 13q6 4 12 8.5t11 8.5v0z" />
    <glyph glyph-name="u" unicode="&#x425;" horiz-adv-x="645" 
d="M670 131l-25 -71q-46 -41 -79.5 -50.5t-47.5 -9.5q-7 0 -25 3t-38 20t-38 55t-25 107q-18 -17 -38.5 -36.5t-42.5 -39.5q-20 -18 -41.5 -36t-43.5 -34q-39 -30 -77.5 -49t-70.5 -19q-5 0 -15.5 1.5t-21.5 6.5q-15 8 -28 24t-13 48q0 17 3 29t7 23q2 5 4.5 10l5.5 11
q2 3 3.5 6.5t2.5 6.5q5 10 11.5 18.5t16.5 8.5q3 0 5 -0.5t4 -1.5q1 -1 2.5 -1.5t2.5 -1.5l42 -27q1 -1 2 -1.5t2 -0.5q4 -2 6.5 -5t2.5 -10q0 -4 -2 -8t-7 -11q-1 -2 -2.5 -4t-2.5 -4q-1 -3 -1.5 -6t-0.5 -8q0 -2 0.5 -4.5t0.5 -4.5q2 -5 6 -9t13 -4q14 0 48 23t116 96
q16 14 28.5 25t23.5 22q2 1 3 2.5t2 2.5q10 9 19.5 18.5t21.5 20.5q3 81 9.5 147t18.5 130q7 39 17 79t23 83l94 -38q-25 -67 -40 -130t-23 -125q-1 -14 -2.5 -28t-2.5 -28q58 56 99.5 96t79.5 76l6 6l6 6q27 26 56.5 52.5t65.5 58.5l73 -45q-43 -33 -80 -62t-71 -57
q-11 -8 -21 -16.5t-21 -17.5q-45 -37 -92 -79.5t-104 -97.5q-1 -7 -1 -16.5v-19.5q0 -11 0.5 -23t1.5 -25q4 -42 20 -77.5t54 -35.5q11 0 24 4t27 11q11 5 21.5 11t19.5 13q6 4 12 8.5t11 8.5v0z" />
    <glyph glyph-name="Odieresis" unicode="&#xd6;" horiz-adv-x="673" 
d="M635 142l52 -36q-36 -67 -60 -112t-42 -85q-5 -10 -9 -19.5t-9 -19.5q-4 -10 -8.5 -20t-8.5 -21l-95 20q31 55 56 90t42 56q4 5 7.5 9t7.5 8q0 1 0.5 1h0.5q5 7 10.5 14t12.5 17l-7 10q-48 -38 -73.5 -48.5t-41.5 -10.5q-24 0 -37 11t-19 24q-4 10 -5.5 18.5t-1.5 13.5
q0 13 6.5 33.5t15.5 43.5q3 7 5.5 13.5t5.5 12.5q8 19 15.5 34.5t12.5 23.5l-12 6q-103 -108 -181 -171t-128 -63q-28 0 -45.5 19.5t-17.5 53.5t38.5 124t89.5 191q6 13 12.5 25.5t12.5 24.5q43 83 81.5 154t57.5 104l80 -43q-166 -296 -206.5 -384.5t-48.5 -111.5
q-2 -7 -4 -14.5t-2 -15.5t4 -11.5t8 -4.5q2 -1 4 -1h4q33 0 113 70t170 187q48 63 95 137.5t86 157.5l78 -45q-17 -31 -50 -89t-69 -124q-5 -8 -9 -15.5t-8 -15.5q-46 -84 -81.5 -159t-35.5 -100v-1.5v-1.5q1 -9 8.5 -16.5t22.5 -7.5h2h2q16 1 36 13t60 47v0z" />
    <glyph glyph-name="Odieresis" unicode="&#x426;" horiz-adv-x="673" 
d="M635 142l52 -36q-36 -67 -60 -112t-42 -85q-5 -10 -9 -19.5t-9 -19.5q-4 -10 -8.5 -20t-8.5 -21l-95 20q31 55 56 90t42 56q4 5 7.5 9t7.5 8q0 1 0.5 1h0.5q5 7 10.5 14t12.5 17l-7 10q-48 -38 -73.5 -48.5t-41.5 -10.5q-24 0 -37 11t-19 24q-4 10 -5.5 18.5t-1.5 13.5
q0 13 6.5 33.5t15.5 43.5q3 7 5.5 13.5t5.5 12.5q8 19 15.5 34.5t12.5 23.5l-12 6q-103 -108 -181 -171t-128 -63q-28 0 -45.5 19.5t-17.5 53.5t38.5 124t89.5 191q6 13 12.5 25.5t12.5 24.5q43 83 81.5 154t57.5 104l80 -43q-166 -296 -206.5 -384.5t-48.5 -111.5
q-2 -7 -4 -14.5t-2 -15.5t4 -11.5t8 -4.5q2 -1 4 -1h4q33 0 113 70t170 187q48 63 95 137.5t86 157.5l78 -45q-17 -31 -50 -89t-69 -124q-5 -8 -9 -15.5t-8 -15.5q-46 -84 -81.5 -159t-35.5 -100v-1.5v-1.5q1 -9 8.5 -16.5t22.5 -7.5h2h2q16 1 36 13t60 47v0z" />
    <glyph glyph-name="parenright" unicode="&#xd7;" horiz-adv-x="549" 
d="M317 703l80 -45q-79 -122 -96.5 -165t-17.5 -55q0 -17 8 -25t17 -11q7 -2 13 -2.5t9 -0.5h0.5h0.5q55 0 116 63t147 200l81 -45q-19 -29 -49.5 -80t-62.5 -111q-7 -13 -13.5 -25.5t-13.5 -25.5q-43 -83 -76 -157t-33 -101q0 -14 7 -22t15 -12q4 -1 7 -1.5t6 -0.5
q14 0 39.5 13.5t72.5 38.5l-25 -67q-58 -45 -93 -55.5t-51 -10.5q-35 0 -58.5 23t-23.5 58q0 26 7 54t18 57q13 30 28.5 59.5t32.5 57.5q22 35 42 63.5t32 45.5l-10 7q-3 -3 -5.5 -5t-4.5 -5q-1 0 -2 -0.5t-1 -1.5l-6 -4t-6 -5q-6 -5 -12 -9.5t-12 -9.5q-32 -24 -68.5 -44
t-77.5 -20q-45 0 -67.5 23t-27.5 50q0 4 -0.5 8t-0.5 8q0 16 5.5 36t14.5 40q4 11 8.5 21t9.5 19q6 13 12 24.5t11 20.5q8 14 14.5 26.5t12.5 23.5q1 3 2 5t3 4q9 16 19 33.5t23 39.5v0z" />
    <glyph glyph-name="parenright" unicode="&#x427;" horiz-adv-x="549" 
d="M317 703l80 -45q-79 -122 -96.5 -165t-17.5 -55q0 -17 8 -25t17 -11q7 -2 13 -2.5t9 -0.5h0.5h0.5q55 0 116 63t147 200l81 -45q-19 -29 -49.5 -80t-62.5 -111q-7 -13 -13.5 -25.5t-13.5 -25.5q-43 -83 -76 -157t-33 -101q0 -14 7 -22t15 -12q4 -1 7 -1.5t6 -0.5
q14 0 39.5 13.5t72.5 38.5l-25 -67q-58 -45 -93 -55.5t-51 -10.5q-35 0 -58.5 23t-23.5 58q0 26 7 54t18 57q13 30 28.5 59.5t32.5 57.5q22 35 42 63.5t32 45.5l-10 7q-3 -3 -5.5 -5t-4.5 -5q-1 0 -2 -0.5t-1 -1.5l-6 -4t-6 -5q-6 -5 -12 -9.5t-12 -9.5q-32 -24 -68.5 -44
t-77.5 -20q-45 0 -67.5 23t-27.5 50q0 4 -0.5 8t-0.5 8q0 16 5.5 36t14.5 40q4 11 8.5 21t9.5 19q6 13 12 24.5t11 20.5q8 14 14.5 26.5t12.5 23.5q1 3 2 5t3 4q9 16 19 33.5t23 39.5v0z" />
    <glyph glyph-name="x" unicode="&#xd8;" horiz-adv-x="879" 
d="M904 119l-25 -71q-13 -11 -27.5 -20t-29.5 -16q-20 -9 -38 -13t-33 -4q-25 0 -44 15.5t-19 45.5q0 12 2.5 26t6.5 27q5 15 11 29.5t12 27.5q2 4 3.5 7.5t3.5 6.5l-12 4l-9 -9l-7 -7v0v-1q-3 -2 -6 -5.5t-7 -7.5q-13 -13 -29 -28.5t-34 -30.5q-16 -14 -32.5 -27t-33.5 -25
q-31 -21 -60.5 -34.5t-52.5 -13.5q-30 0 -44.5 16.5t-14.5 41.5q0 32 16 67t38 75l-11 5q-13 -15 -28 -30.5t-31 -31.5q-20 -21 -41.5 -40.5t-42.5 -37.5q-36 -28 -70.5 -46.5t-63.5 -18.5q-5 0 -10 0.5t-10 1.5q-17 4 -32 18t-15 41q0 33 40.5 125.5t92.5 197.5l12 24
l12 24q42 81 80 151.5t59 106.5l80 -44q-49 -90 -79 -146t-56 -105q-16 -30 -33 -62t-38 -72q-43 -81 -54 -108t-11 -34q0 -8 5.5 -15t15.5 -7q5 0 35.5 15.5t98.5 83.5l13.5 13.5t12.5 13.5q60 63 104.5 127t86.5 136q23 40 46.5 83t49.5 90l80 -46q-18 -30 -51 -86
t-68 -121q-5 -8 -9.5 -16t-8.5 -17q-47 -85 -83 -159.5t-36 -97.5q0 -10 4 -18.5t14 -8.5q8 0 18.5 5.5t29.5 18.5q2 1 4 2.5t4 3.5q69 52 119.5 107t96.5 123q37 55 76 120.5t87 147.5l78 -50q-124 -208 -161.5 -282t-53.5 -122l-2 -6l-2 -6t-1.5 -5t-1.5 -5
q-4 -13 -5.5 -20.5t-1.5 -12.5q0 -2 0.5 -5t1.5 -5q2 -6 7.5 -10.5t15.5 -4.5q6 0 19.5 5t28.5 12q3 1 5.5 2.5t5.5 2.5l22 11t15 8v0z" />
    <glyph glyph-name="x" unicode="&#x428;" horiz-adv-x="879" 
d="M904 119l-25 -71q-13 -11 -27.5 -20t-29.5 -16q-20 -9 -38 -13t-33 -4q-25 0 -44 15.5t-19 45.5q0 12 2.5 26t6.5 27q5 15 11 29.5t12 27.5q2 4 3.5 7.5t3.5 6.5l-12 4l-9 -9l-7 -7v0v-1q-3 -2 -6 -5.5t-7 -7.5q-13 -13 -29 -28.5t-34 -30.5q-16 -14 -32.5 -27t-33.5 -25
q-31 -21 -60.5 -34.5t-52.5 -13.5q-30 0 -44.5 16.5t-14.5 41.5q0 32 16 67t38 75l-11 5q-13 -15 -28 -30.5t-31 -31.5q-20 -21 -41.5 -40.5t-42.5 -37.5q-36 -28 -70.5 -46.5t-63.5 -18.5q-5 0 -10 0.5t-10 1.5q-17 4 -32 18t-15 41q0 33 40.5 125.5t92.5 197.5l12 24
l12 24q42 81 80 151.5t59 106.5l80 -44q-49 -90 -79 -146t-56 -105q-16 -30 -33 -62t-38 -72q-43 -81 -54 -108t-11 -34q0 -8 5.5 -15t15.5 -7q5 0 35.5 15.5t98.5 83.5l13.5 13.5t12.5 13.5q60 63 104.5 127t86.5 136q23 40 46.5 83t49.5 90l80 -46q-18 -30 -51 -86
t-68 -121q-5 -8 -9.5 -16t-8.5 -17q-47 -85 -83 -159.5t-36 -97.5q0 -10 4 -18.5t14 -8.5q8 0 18.5 5.5t29.5 18.5q2 1 4 2.5t4 3.5q69 52 119.5 107t96.5 123q37 55 76 120.5t87 147.5l78 -50q-124 -208 -161.5 -282t-53.5 -122l-2 -6l-2 -6t-1.5 -5t-1.5 -5
q-4 -13 -5.5 -20.5t-1.5 -12.5q0 -2 0.5 -5t1.5 -5q2 -6 7.5 -10.5t15.5 -4.5q6 0 19.5 5t28.5 12q3 1 5.5 2.5t5.5 2.5l22 11t15 8v0z" />
    <glyph glyph-name="y" unicode="&#xd9;" horiz-adv-x="936" 
d="M387 684l78 -45q-36 -57 -62.5 -102.5t-51.5 -88.5q-3 -6 -6 -11.5t-6 -10.5q-12 -22 -24.5 -45.5t-26.5 -48.5q-8 -14 -16.5 -30t-17.5 -33q-3 -6 -6.5 -12.5t-6.5 -12.5q-19 -38 -33.5 -73t-14.5 -52q0 -10 6.5 -16.5t13.5 -6.5q23 0 138.5 92t310.5 462l84 -47
q-183 -304 -222 -393t-39 -103q0 -7 3 -11.5t6 -6.5l4 -2t3 -1h2h2h1h2q37 3 90 53.5t108 122.5q21 27 42 55.5t41 57.5q45 66 83.5 128t62.5 104l85 -44q-160 -273 -195.5 -351.5t-37.5 -101.5v-4.5v-4.5v-0.5v-1.5v-1.5v-0.5q0 -2 1 -4.5t2 -5.5q2 -4 7 -8t14 -4t19.5 4
t21.5 10q8 4 15 8.5t13 8.5q16 11 27 20.5t13 10.5l53 -35q-51 -85 -80.5 -139t-51.5 -103q-4 -9 -8.5 -19t-8.5 -20l-91 29q30 55 56 90t42 54q4 5 7.5 8.5t6.5 7.5q0 1 0.5 1h0.5q4 6 9.5 12.5t12.5 16.5l-8 5l-12 -8t-12 -7q-20 -14 -42.5 -24.5t-46.5 -10.5
q-27 0 -43 13.5t-16 44.5q0 19 7.5 48t34.5 81l-10 4q-124 -135 -188.5 -163t-85.5 -28h-1.5h-1.5q-21 1 -38.5 13t-17.5 37q0 23 9.5 50t22.5 55l8 16l8 16q1 3 3 6.5t4 7.5l-12 2q-5 -5 -8 -8.5t-5 -5.5q-1 0 -1 -0.5v-0.5l-3 -3t-4 -5q-14 -15 -31 -32.5t-37 -35.5
q-18 -17 -38.5 -34t-40.5 -31q-30 -21 -59 -34t-53 -13q-26 0 -46 16t-20 50q0 36 24 99t111 224q13 24 25 46.5t23 43.5q2 3 3 5t2 5q24 43 50.5 90t64.5 110v0z" />
    <glyph glyph-name="y" unicode="&#x429;" horiz-adv-x="936" 
d="M387 684l78 -45q-36 -57 -62.5 -102.5t-51.5 -88.5q-3 -6 -6 -11.5t-6 -10.5q-12 -22 -24.5 -45.5t-26.5 -48.5q-8 -14 -16.5 -30t-17.5 -33q-3 -6 -6.5 -12.5t-6.5 -12.5q-19 -38 -33.5 -73t-14.5 -52q0 -10 6.5 -16.5t13.5 -6.5q23 0 138.5 92t310.5 462l84 -47
q-183 -304 -222 -393t-39 -103q0 -7 3 -11.5t6 -6.5l4 -2t3 -1h2h2h1h2q37 3 90 53.5t108 122.5q21 27 42 55.5t41 57.5q45 66 83.5 128t62.5 104l85 -44q-160 -273 -195.5 -351.5t-37.5 -101.5v-4.5v-4.5v-0.5v-1.5v-1.5v-0.5q0 -2 1 -4.5t2 -5.5q2 -4 7 -8t14 -4t19.5 4
t21.5 10q8 4 15 8.5t13 8.5q16 11 27 20.5t13 10.5l53 -35q-51 -85 -80.5 -139t-51.5 -103q-4 -9 -8.5 -19t-8.5 -20l-91 29q30 55 56 90t42 54q4 5 7.5 8.5t6.5 7.5q0 1 0.5 1h0.5q4 6 9.5 12.5t12.5 16.5l-8 5l-12 -8t-12 -7q-20 -14 -42.5 -24.5t-46.5 -10.5
q-27 0 -43 13.5t-16 44.5q0 19 7.5 48t34.5 81l-10 4q-124 -135 -188.5 -163t-85.5 -28h-1.5h-1.5q-21 1 -38.5 13t-17.5 37q0 23 9.5 50t22.5 55l8 16l8 16q1 3 3 6.5t4 7.5l-12 2q-5 -5 -8 -8.5t-5 -5.5q-1 0 -1 -0.5v-0.5l-3 -3t-4 -5q-14 -15 -31 -32.5t-37 -35.5
q-18 -17 -38.5 -34t-40.5 -31q-30 -21 -59 -34t-53 -13q-26 0 -46 16t-20 50q0 36 24 99t111 224q13 24 25 46.5t23 43.5q2 3 3 5t2 5q24 43 50.5 90t64.5 110v0z" />
    <glyph glyph-name="z" unicode="&#xda;" horiz-adv-x="522" 
d="M590 414l24 -53q-16 -7 -33.5 -14t-34.5 -12q1 -3 1.5 -6.5t1.5 -7.5q3 -11 5 -26t2 -31t-3 -33.5t-8 -34.5q-25 -75 -94 -137.5t-164 -62.5q-10 0 -26.5 2t-33.5 7q-28 11 -50.5 39t-22.5 86q0 36 8 74t22 76q37 95 112.5 183t179.5 142l-4 7q-4 -1 -10 -2t-13 -2
q-3 0 -6 -0.5t-7 -0.5q-11 -2 -21.5 -3t-15.5 -1q-12 0 -22.5 2.5t-19.5 5.5q-9 2 -17 4t-16 3q-2 1 -4.5 1h-5.5q-4 0 -8 -0.5t-8 -1.5q-15 -3 -29.5 -10.5t-24.5 -19.5l-44 78q5 4 10 7.5t10 6.5q28 16 53.5 19.5t41.5 3.5q24 0 51 -7t57 -15q26 -7 40.5 -11.5t27.5 -4.5
h7.5h7.5q12 1 23 2t20 3l33 -51q-229 -176 -284 -299t-55 -171q0 -36 12 -53t27 -23q7 -3 14 -4t12 -1q8 0 16.5 2t17.5 6q40 17 75 64.5t44 101.5q2 8 2.5 15.5t0.5 15.5q0 11 -1.5 21t-4.5 20h-6.5h-6.5q-3 -1 -6 -1h-6q-19 0 -32.5 2t-22.5 4q-6 1 -9.5 2t-6.5 2l-7 49
q7 9 19 16t26 10q9 3 18.5 4.5t16.5 1.5t15 -0.5t16 -1.5q9 -2 18.5 -5.5t17.5 -9.5q24 3 46 10.5t42 17.5v0z" />
    <glyph glyph-name="z" unicode="&#x42a;" horiz-adv-x="522" 
d="M590 414l24 -53q-16 -7 -33.5 -14t-34.5 -12q1 -3 1.5 -6.5t1.5 -7.5q3 -11 5 -26t2 -31t-3 -33.5t-8 -34.5q-25 -75 -94 -137.5t-164 -62.5q-10 0 -26.5 2t-33.5 7q-28 11 -50.5 39t-22.5 86q0 36 8 74t22 76q37 95 112.5 183t179.5 142l-4 7q-4 -1 -10 -2t-13 -2
q-3 0 -6 -0.5t-7 -0.5q-11 -2 -21.5 -3t-15.5 -1q-12 0 -22.5 2.5t-19.5 5.5q-9 2 -17 4t-16 3q-2 1 -4.5 1h-5.5q-4 0 -8 -0.5t-8 -1.5q-15 -3 -29.5 -10.5t-24.5 -19.5l-44 78q5 4 10 7.5t10 6.5q28 16 53.5 19.5t41.5 3.5q24 0 51 -7t57 -15q26 -7 40.5 -11.5t27.5 -4.5
h7.5h7.5q12 1 23 2t20 3l33 -51q-229 -176 -284 -299t-55 -171q0 -36 12 -53t27 -23q7 -3 14 -4t12 -1q8 0 16.5 2t17.5 6q40 17 75 64.5t44 101.5q2 8 2.5 15.5t0.5 15.5q0 11 -1.5 21t-4.5 20h-6.5h-6.5q-3 -1 -6 -1h-6q-19 0 -32.5 2t-22.5 4q-6 1 -9.5 2t-6.5 2l-7 49
q7 9 19 16t26 10q9 3 18.5 4.5t16.5 1.5t15 -0.5t16 -1.5q9 -2 18.5 -5.5t17.5 -9.5q24 3 46 10.5t42 17.5v0z" />
    <glyph glyph-name="braceleft" unicode="&#xdb;" horiz-adv-x="769" 
d="M375 692l80 -48q-15 -26 -24.5 -41.5t-17.5 -29.5q-4 -7 -8.5 -15t-10.5 -17q-13 -23 -28 -47.5t-29 -50.5q-10 -16 -19 -32.5t-18 -33.5q-35 -64 -60 -125t-25 -104q0 -38 15 -56t33 -23q4 -1 8.5 -1.5t8.5 -0.5q11 0 22.5 3.5t23.5 9.5q41 23 75.5 74.5t34.5 109.5
q0 6 -0.5 12t-1.5 13q0 6 -1.5 12t-3.5 12h-6.5h-6.5q-3 -1 -6 -1h-6q-19 0 -32.5 2t-22.5 4q-5 1 -8.5 2t-6.5 2l-7 49q7 9 19 15.5t24 10.5q10 3 19.5 4.5t16.5 1.5t14.5 -0.5t14.5 -1.5q10 -2 20 -5.5t18 -9.5q28 4 59 14.5t62 26.5q65 34 125.5 86t100.5 107
q1 2 2.5 3.5t2.5 3.5l70 -41q-18 -33 -39.5 -72t-42.5 -80q-6 -10 -11 -20l-10 -20q-49 -94 -86.5 -177t-37.5 -109q0 -11 8 -19t21 -8q8 0 19.5 4t24.5 9q4 3 9 5t10 5q10 5 19 10.5t14 8.5l-24 -69q-6 -4 -14.5 -9.5t-18.5 -10.5l-21 -10.5t-22 -10.5q-15 -5 -29.5 -9
t-26.5 -4h-6t-6 1q-23 4 -42 23t-19 55q0 23 8 52.5t21 60.5q6 15 12 29.5t13 28.5q13 27 25 50t20 37t13.5 24t10.5 19q0 1 1 2.5t1 2.5q5 9 9.5 18t10.5 22l-8 3q-42 -32 -88 -54.5t-95 -38.5q1 -3 1.5 -6.5t1.5 -7.5q3 -11 5 -26t2 -31q0 -17 -3 -34.5t-9 -34.5
q-25 -76 -94.5 -138t-162.5 -62q-10 0 -26.5 2t-34.5 8q-27 11 -49.5 39t-22.5 85q0 23 31.5 139.5t217.5 423.5v0z" />
    <glyph glyph-name="braceleft" unicode="&#x42b;" horiz-adv-x="769" 
d="M375 692l80 -48q-15 -26 -24.5 -41.5t-17.5 -29.5q-4 -7 -8.5 -15t-10.5 -17q-13 -23 -28 -47.5t-29 -50.5q-10 -16 -19 -32.5t-18 -33.5q-35 -64 -60 -125t-25 -104q0 -38 15 -56t33 -23q4 -1 8.5 -1.5t8.5 -0.5q11 0 22.5 3.5t23.5 9.5q41 23 75.5 74.5t34.5 109.5
q0 6 -0.5 12t-1.5 13q0 6 -1.5 12t-3.5 12h-6.5h-6.5q-3 -1 -6 -1h-6q-19 0 -32.5 2t-22.5 4q-5 1 -8.5 2t-6.5 2l-7 49q7 9 19 15.5t24 10.5q10 3 19.5 4.5t16.5 1.5t14.5 -0.5t14.5 -1.5q10 -2 20 -5.5t18 -9.5q28 4 59 14.5t62 26.5q65 34 125.5 86t100.5 107
q1 2 2.5 3.5t2.5 3.5l70 -41q-18 -33 -39.5 -72t-42.5 -80q-6 -10 -11 -20l-10 -20q-49 -94 -86.5 -177t-37.5 -109q0 -11 8 -19t21 -8q8 0 19.5 4t24.5 9q4 3 9 5t10 5q10 5 19 10.5t14 8.5l-24 -69q-6 -4 -14.5 -9.5t-18.5 -10.5l-21 -10.5t-22 -10.5q-15 -5 -29.5 -9
t-26.5 -4h-6t-6 1q-23 4 -42 23t-19 55q0 23 8 52.5t21 60.5q6 15 12 29.5t13 28.5q13 27 25 50t20 37t13.5 24t10.5 19q0 1 1 2.5t1 2.5q5 9 9.5 18t10.5 22l-8 3q-42 -32 -88 -54.5t-95 -38.5q1 -3 1.5 -6.5t1.5 -7.5q3 -11 5 -26t2 -31q0 -17 -3 -34.5t-9 -34.5
q-25 -76 -94.5 -138t-162.5 -62q-10 0 -26.5 2t-34.5 8q-27 11 -49.5 39t-22.5 85q0 23 31.5 139.5t217.5 423.5v0z" />
    <glyph glyph-name="bar" unicode="&#xdc;" horiz-adv-x="494" 
d="M562 414l24 -53q-16 -7 -33.5 -14t-34.5 -12q1 -3 1.5 -6.5t1.5 -7.5q3 -11 5 -26t2 -31t-3 -33.5t-8 -34.5q-25 -75 -94 -137.5t-164 -62.5q-10 0 -26.5 2t-33.5 7q-27 11 -50 38.5t-23 85.5q0 101 66 228.5t202 329.5l72 -48q-122 -187 -186.5 -308.5t-64.5 -182.5
q0 -32 10 -48.5t23 -23.5q11 -7 20.5 -8t11.5 -1q8 0 16.5 2t17.5 6q40 17 75 64.5t44 101.5q2 8 2.5 15.5t0.5 15.5q0 11 -1.5 21t-4.5 20h-6.5h-6.5q-3 -1 -6 -1h-6q-19 0 -32.5 2t-22.5 4q-6 1 -9.5 2t-6.5 2l-7 49q7 9 19 16t26 10q9 3 18.5 4.5t16.5 1.5t15 -0.5
t16 -1.5q9 -2 18.5 -5.5t17.5 -9.5q24 3 46 10.5t42 17.5v0z" />
    <glyph glyph-name="bar" unicode="&#x42c;" horiz-adv-x="494" 
d="M562 414l24 -53q-16 -7 -33.5 -14t-34.5 -12q1 -3 1.5 -6.5t1.5 -7.5q3 -11 5 -26t2 -31t-3 -33.5t-8 -34.5q-25 -75 -94 -137.5t-164 -62.5q-10 0 -26.5 2t-33.5 7q-27 11 -50 38.5t-23 85.5q0 101 66 228.5t202 329.5l72 -48q-122 -187 -186.5 -308.5t-64.5 -182.5
q0 -32 10 -48.5t23 -23.5q11 -7 20.5 -8t11.5 -1q8 0 16.5 2t17.5 6q40 17 75 64.5t44 101.5q2 8 2.5 15.5t0.5 15.5q0 11 -1.5 21t-4.5 20h-6.5h-6.5q-3 -1 -6 -1h-6q-19 0 -32.5 2t-22.5 4q-6 1 -9.5 2t-6.5 2l-7 49q7 9 19 16t26 10q9 3 18.5 4.5t16.5 1.5t15 -0.5
t16 -1.5q9 -2 18.5 -5.5t17.5 -9.5q24 3 46 10.5t42 17.5v0z" />
    <glyph glyph-name="braceright" unicode="&#xdd;" horiz-adv-x="559" 
d="M313 519l-69 53q14 20 28 36t28 29q50 46 96.5 58t74.5 12q82 0 121 -49t48 -108q2 -10 2.5 -19.5t0.5 -19.5q0 -41 -14.5 -102.5t-42.5 -126.5q-47 -108 -132.5 -197.5t-208.5 -89.5q-94 0 -134 49t-41 108v1.5v1.5v7.5t1 7.5q0 3 0.5 6.5t0.5 7.5l94 -9v-17
q0 -37 21.5 -64.5t60.5 -27.5q13 0 26 3t26 9q54 23 103.5 80t79.5 121l6 14l6 14q-2 2 -4 3.5t-5 2.5q-25 17 -47.5 20t-32.5 3q-31 0 -53.5 -14t-38.5 -30q-2 -3 -4.5 -5.5t-4.5 -5.5l-57 66q3 3 6.5 5.5t7.5 5.5q22 16 54 30t71 14q24 0 44.5 -4t40.5 -12q12 -4 24 -9.5
t24 -11.5q16 45 24.5 80.5t9.5 69.5v3v4q0 58 -18 83t-40 31q-5 2 -10.5 2.5t-10.5 0.5q-33 0 -74.5 -24.5t-87.5 -95.5v0z" />
    <glyph glyph-name="braceright" unicode="&#x42d;" horiz-adv-x="559" 
d="M313 519l-69 53q14 20 28 36t28 29q50 46 96.5 58t74.5 12q82 0 121 -49t48 -108q2 -10 2.5 -19.5t0.5 -19.5q0 -41 -14.5 -102.5t-42.5 -126.5q-47 -108 -132.5 -197.5t-208.5 -89.5q-94 0 -134 49t-41 108v1.5v1.5v7.5t1 7.5q0 3 0.5 6.5t0.5 7.5l94 -9v-17
q0 -37 21.5 -64.5t60.5 -27.5q13 0 26 3t26 9q54 23 103.5 80t79.5 121l6 14l6 14q-2 2 -4 3.5t-5 2.5q-25 17 -47.5 20t-32.5 3q-31 0 -53.5 -14t-38.5 -30q-2 -3 -4.5 -5.5t-4.5 -5.5l-57 66q3 3 6.5 5.5t7.5 5.5q22 16 54 30t71 14q24 0 44.5 -4t40.5 -12q12 -4 24 -9.5
t24 -11.5q16 45 24.5 80.5t9.5 69.5v3v4q0 58 -18 83t-40 31q-5 2 -10.5 2.5t-10.5 0.5q-33 0 -74.5 -24.5t-87.5 -95.5v0z" />
    <glyph glyph-name="Thorn" unicode="&#xde;" horiz-adv-x="839" 
d="M359 676l87 -37q-44 -95 -70.5 -147t-48.5 -95l-2 -4l-2 -4l-4 -8l-4 -8q-12 -25 -20 -39.5t-14 -27.5q-1 0 -1 -1t-1 -2q-3 -6 -7 -12.5t-8 -14.5l5 -4q19 19 46.5 43.5t58.5 50.5q8 7 16.5 14t17.5 13q38 31 74 56.5t60 39.5l59 -58q-7 -7 -15 -16t-16 -20
q-20 -26 -39 -59t-32 -68q-9 -24 -14.5 -47.5t-5.5 -44.5q0 -47 13.5 -80.5t57.5 -33.5h2.5h3.5q70 4 134 85.5t101 178.5q16 44 25.5 86.5t9.5 77.5q0 50 -13.5 73.5t-30.5 31.5q-8 4 -16.5 5.5t-14.5 1.5q-11 0 -48.5 -15t-91.5 -99l-72 26q33 61 92.5 108.5t129.5 47.5
q84 0 122 -58.5t40 -128.5v-4v-4q0 -32 -6.5 -66.5t-18.5 -69.5q-40 -115 -126.5 -214.5t-182.5 -123.5q-13 -3 -25.5 -4.5t-24.5 -1.5t-27.5 2.5t-31.5 8.5q-33 14 -60.5 53t-27.5 117q0 17 2 36t7 39q5 22 13 43.5t20 40.5l-6 5q-23 -12 -63.5 -52t-85.5 -92
q-14 -17 -29 -35t-29 -36q-26 -34 -48 -67t-38 -60l-93 18q76 151 109.5 216.5t57.5 114.5l1.5 3l1.5 3q13 28 28 60t38 81q10 21 18.5 39.5t16.5 36.5q1 2 1.5 4t1.5 4q10 22 20.5 45.5t22.5 52.5v0z" />
    <glyph glyph-name="Thorn" unicode="&#x42e;" horiz-adv-x="839" 
d="M359 676l87 -37q-44 -95 -70.5 -147t-48.5 -95l-2 -4l-2 -4l-4 -8l-4 -8q-12 -25 -20 -39.5t-14 -27.5q-1 0 -1 -1t-1 -2q-3 -6 -7 -12.5t-8 -14.5l5 -4q19 19 46.5 43.5t58.5 50.5q8 7 16.5 14t17.5 13q38 31 74 56.5t60 39.5l59 -58q-7 -7 -15 -16t-16 -20
q-20 -26 -39 -59t-32 -68q-9 -24 -14.5 -47.5t-5.5 -44.5q0 -47 13.5 -80.5t57.5 -33.5h2.5h3.5q70 4 134 85.5t101 178.5q16 44 25.5 86.5t9.5 77.5q0 50 -13.5 73.5t-30.5 31.5q-8 4 -16.5 5.5t-14.5 1.5q-11 0 -48.5 -15t-91.5 -99l-72 26q33 61 92.5 108.5t129.5 47.5
q84 0 122 -58.5t40 -128.5v-4v-4q0 -32 -6.5 -66.5t-18.5 -69.5q-40 -115 -126.5 -214.5t-182.5 -123.5q-13 -3 -25.5 -4.5t-24.5 -1.5t-27.5 2.5t-31.5 8.5q-33 14 -60.5 53t-27.5 117q0 17 2 36t7 39q5 22 13 43.5t20 40.5l-6 5q-23 -12 -63.5 -52t-85.5 -92
q-14 -17 -29 -35t-29 -36q-26 -34 -48 -67t-38 -60l-93 18q76 151 109.5 216.5t57.5 114.5l1.5 3l1.5 3q13 28 28 60t38 81q10 21 18.5 39.5t16.5 36.5q1 2 1.5 4t1.5 4q10 22 20.5 45.5t22.5 52.5v0z" />
    <glyph glyph-name="quotedblleft" unicode="&#xdf;" horiz-adv-x="671" 
d="M696 125l-25 -72q-12 -8 -25 -16t-27 -15q-26 -14 -51 -23t-47 -9q-20 0 -36.5 12t-16.5 43t16.5 72t41.5 84q9 17 19.5 33.5t20.5 33.5q17 25 33 48.5t29 42.5q-44 -12 -66 -30t-39 -42q-5 -6 -10 -13l-10 -14q-34 -46 -72 -84.5t-77 -68.5q-72 -56 -138 -84t-106 -28
q-37 0 -66.5 23.5t-29.5 66.5v7.5t1 7.5q3 23 12 45.5t20 36.5q6 9 12 14t11 5q1 0 2.5 -0.5t3.5 -0.5q0 -1 0.5 -1h1.5q1 -1 2 -1.5t2 -0.5l47 -29q4 -2 7 -5.5t3 -11.5q0 -5 -2.5 -9t-5.5 -7q0 -1 -0.5 -1h-0.5q0 -1 -0.5 -1.5l-1.5 -1.5l-2 -2t-2 -3q-4 -5 -8 -13t-4 -21
v0v-1v-4.5t2 -6.5q2 -4 7 -8t16 -5h3.5h3.5h3h3q26 2 68.5 26t87.5 59q20 15 39.5 31t38.5 32q21 19 39.5 37.5t32.5 35.5q-43 -13 -65.5 -19.5t-40.5 -6.5q-6 0 -12 0.5t-12 2.5q-25 5 -45 24.5t-20 60.5q0 23 6 48.5t17 50.5q34 79 105 147.5t149 87.5q12 3 23.5 4.5
t22.5 1.5q51 0 75 -31.5t27 -68.5q1 -3 1 -6.5v-6.5q0 -20 -7 -42.5t-18 -45.5q-8 -17 -18 -34.5t-20 -33.5l-4 -6l-4 -6q23 12 43 25.5t38 28.5l58 -31q-110 -184 -143 -247t-33 -83q0 -12 4.5 -16.5t13.5 -4.5t24 5t30 13q7 4 13.5 7.5t13.5 7.5q5 2 9.5 5t8.5 6v0z
M501 356q9 10 19.5 23t21.5 28q11 16 21.5 32.5t19.5 33.5q12 23 20 45.5t8 41.5q0 23 -11.5 36.5t-29.5 13.5q-22 0 -52 -14.5t-67 -53.5q-4 -4 -8 -8.5t-8 -9.5q-13 -15 -25 -33.5t-22 -36.5q-11 -22 -18.5 -43t-7.5 -38q0 -4 0.5 -8t2.5 -9q4 -10 14.5 -18t32.5 -8
q8 0 18 1.5t20 4.5l18 6t17 7q5 2 9 3.5t7 3.5v0z" />
    <glyph glyph-name="quotedblleft" unicode="&#x42f;" horiz-adv-x="671" 
d="M696 125l-25 -72q-12 -8 -25 -16t-27 -15q-26 -14 -51 -23t-47 -9q-20 0 -36.5 12t-16.5 43t16.5 72t41.5 84q9 17 19.5 33.5t20.5 33.5q17 25 33 48.5t29 42.5q-44 -12 -66 -30t-39 -42q-5 -6 -10 -13l-10 -14q-34 -46 -72 -84.5t-77 -68.5q-72 -56 -138 -84t-106 -28
q-37 0 -66.5 23.5t-29.5 66.5v7.5t1 7.5q3 23 12 45.5t20 36.5q6 9 12 14t11 5q1 0 2.5 -0.5t3.5 -0.5q0 -1 0.5 -1h1.5q1 -1 2 -1.5t2 -0.5l47 -29q4 -2 7 -5.5t3 -11.5q0 -5 -2.5 -9t-5.5 -7q0 -1 -0.5 -1h-0.5q0 -1 -0.5 -1.5l-1.5 -1.5l-2 -2t-2 -3q-4 -5 -8 -13t-4 -21
v0v-1v-4.5t2 -6.5q2 -4 7 -8t16 -5h3.5h3.5h3h3q26 2 68.5 26t87.5 59q20 15 39.5 31t38.5 32q21 19 39.5 37.5t32.5 35.5q-43 -13 -65.5 -19.5t-40.5 -6.5q-6 0 -12 0.5t-12 2.5q-25 5 -45 24.5t-20 60.5q0 23 6 48.5t17 50.5q34 79 105 147.5t149 87.5q12 3 23.5 4.5
t22.5 1.5q51 0 75 -31.5t27 -68.5q1 -3 1 -6.5v-6.5q0 -20 -7 -42.5t-18 -45.5q-8 -17 -18 -34.5t-20 -33.5l-4 -6l-4 -6q23 12 43 25.5t38 28.5l58 -31q-110 -184 -143 -247t-33 -83q0 -12 4.5 -16.5t13.5 -4.5t24 5t30 13q7 4 13.5 7.5t13.5 7.5q5 2 9.5 5t8.5 6v0z
M501 356q9 10 19.5 23t21.5 28q11 16 21.5 32.5t19.5 33.5q12 23 20 45.5t8 41.5q0 23 -11.5 36.5t-29.5 13.5q-22 0 -52 -14.5t-67 -53.5q-4 -4 -8 -8.5t-8 -9.5q-13 -15 -25 -33.5t-22 -36.5q-11 -22 -18.5 -43t-7.5 -38q0 -4 0.5 -8t2.5 -9q4 -10 14.5 -18t32.5 -8
q8 0 18 1.5t20 4.5l18 6t17 7q5 2 9 3.5t7 3.5v0z" />
    <glyph glyph-name="equal" unicode="&#xe0;" horiz-adv-x="480" 
d="M427 372l72 -38l-88 -172q-2 -4 -4.5 -9.5t-5.5 -11.5q-1 -2 -1.5 -4t-1.5 -4q-4 -10 -7 -19t-3 -12v-3t1 -3q1 -5 4 -8.5t8 -3.5q6 0 21 6t31 14q2 1 4.5 2t4.5 2q14 7 26 13.5t17 9.5l-21 -68q-7 -5 -16 -11.5t-20 -13.5q-9 -5 -18.5 -10.5t-18.5 -10.5q-16 -7 -31 -12
t-27 -5q-25 0 -40.5 14.5t-15.5 33.5q0 5 1 10t2 11q2 4 3.5 8.5t2.5 9.5q3 7 5.5 12.5t3.5 8.5q1 1 1.5 2t0.5 2q1 1 2 3t2 5l-4 1q-1 -1 -2.5 -2t-2.5 -2l-0.5 -1t-1.5 -1q-1 -2 -2 -3l-3 -3q-6 -7 -21 -21.5t-35 -30.5q-18 -14 -39 -27t-43 -21q-11 -4 -22.5 -6.5
t-22.5 -2.5q-5 0 -10 0.5t-10 2.5q-22 6 -41 29.5t-19 68.5q0 24 11.5 52.5t31.5 58.5q30 45 73 86t89 65q22 11 42.5 17t40.5 6q26 0 43.5 -7t28.5 -15q4 -4 8 -7.5t6 -6.5l11 22v0zM345 216l51 96q-4 5 -8 8t-8 5q-8 5 -15.5 6.5t-13.5 1.5q-17 0 -41 -11.5t-50 -31.5
q-28 -21 -54 -48t-43 -56q-9 -17 -14.5 -33t-5.5 -31q0 -25 9 -34t20 -9q14 0 35 11.5t43 29.5q10 7 19.5 15.5t19.5 16.5q20 19 35.5 36.5t20.5 27.5v0z" />
    <glyph glyph-name="equal" unicode="&#x430;" horiz-adv-x="480" 
d="M427 372l72 -38l-88 -172q-2 -4 -4.5 -9.5t-5.5 -11.5q-1 -2 -1.5 -4t-1.5 -4q-4 -10 -7 -19t-3 -12v-3t1 -3q1 -5 4 -8.5t8 -3.5q6 0 21 6t31 14q2 1 4.5 2t4.5 2q14 7 26 13.5t17 9.5l-21 -68q-7 -5 -16 -11.5t-20 -13.5q-9 -5 -18.5 -10.5t-18.5 -10.5q-16 -7 -31 -12
t-27 -5q-25 0 -40.5 14.5t-15.5 33.5q0 5 1 10t2 11q2 4 3.5 8.5t2.5 9.5q3 7 5.5 12.5t3.5 8.5q1 1 1.5 2t0.5 2q1 1 2 3t2 5l-4 1q-1 -1 -2.5 -2t-2.5 -2l-0.5 -1t-1.5 -1q-1 -2 -2 -3l-3 -3q-6 -7 -21 -21.5t-35 -30.5q-18 -14 -39 -27t-43 -21q-11 -4 -22.5 -6.5
t-22.5 -2.5q-5 0 -10 0.5t-10 2.5q-22 6 -41 29.5t-19 68.5q0 24 11.5 52.5t31.5 58.5q30 45 73 86t89 65q22 11 42.5 17t40.5 6q26 0 43.5 -7t28.5 -15q4 -4 8 -7.5t6 -6.5l11 22v0zM345 216l51 96q-4 5 -8 8t-8 5q-8 5 -15.5 6.5t-13.5 1.5q-17 0 -41 -11.5t-50 -31.5
q-28 -21 -54 -48t-43 -56q-9 -17 -14.5 -33t-5.5 -31q0 -25 9 -34t20 -9q14 0 35 11.5t43 29.5q10 7 19.5 15.5t19.5 16.5q20 19 35.5 36.5t20.5 27.5v0z" />
    <glyph glyph-name="K" unicode="&#xe1;" horiz-adv-x="377" 
d="M594 626l-25 -87q-60 -10 -94 -18t-50 -15q-14 -6 -18.5 -12.5t-4.5 -14.5q0 -12 1.5 -24t3.5 -24q2 -6 3.5 -12t2.5 -12q4 -17 5.5 -34.5t1.5 -34.5q0 -124 -67.5 -216t-148.5 -115q-12 -4 -23.5 -5.5t-22.5 -1.5q-46 0 -81 29t-35 84q0 16 3.5 33.5t10.5 34.5
q24 60 87.5 114t157.5 75l24 -49q-50 -21 -86 -47.5t-60 -53.5q-22 -27 -33 -52.5t-11 -46.5q0 -22 10.5 -36.5t26.5 -14.5q15 0 33.5 8t37.5 23q34 26 64 71t40 102q2 11 2.5 22.5t0.5 21.5q0 13 -0.5 25t-2.5 24q-3 21 -7 37t-8 31q-3 8 -5 15.5t-5 15.5q-1 2 -1.5 3.5
t-0.5 2.5l-6 20t-3 20v1.5v0.5v8.5t1 8.5q5 20 55 42t227 53v0z" />
    <glyph glyph-name="K" unicode="&#x431;" horiz-adv-x="377" 
d="M594 626l-25 -87q-60 -10 -94 -18t-50 -15q-14 -6 -18.5 -12.5t-4.5 -14.5q0 -12 1.5 -24t3.5 -24q2 -6 3.5 -12t2.5 -12q4 -17 5.5 -34.5t1.5 -34.5q0 -124 -67.5 -216t-148.5 -115q-12 -4 -23.5 -5.5t-22.5 -1.5q-46 0 -81 29t-35 84q0 16 3.5 33.5t10.5 34.5
q24 60 87.5 114t157.5 75l24 -49q-50 -21 -86 -47.5t-60 -53.5q-22 -27 -33 -52.5t-11 -46.5q0 -22 10.5 -36.5t26.5 -14.5q15 0 33.5 8t37.5 23q34 26 64 71t40 102q2 11 2.5 22.5t0.5 21.5q0 13 -0.5 25t-2.5 24q-3 21 -7 37t-8 31q-3 8 -5 15.5t-5 15.5q-1 2 -1.5 3.5
t-0.5 2.5l-6 20t-3 20v1.5v0.5v8.5t1 8.5q5 20 55 42t227 53v0z" />
    <glyph glyph-name="quotedbl" unicode="&#xe2;" horiz-adv-x="371" 
d="M23 131l31 23q3 16 8 33t11 33q37 101 113 192t160 136q29 16 58.5 25t56.5 9q29 0 43.5 -16.5t14.5 -50.5q0 -28 -15.5 -58t-41.5 -60q-33 -39 -78.5 -77t-93.5 -72q-37 -26 -73.5 -49t-66.5 -41q-1 -2 -1.5 -5t-1.5 -7q-1 -3 -2 -7t-1 -7q-2 -9 -3 -16.5t-1 -11.5
q0 -3 1 -7.5t3 -8.5q4 -8 12.5 -15t23.5 -7q43 0 67 45t25 106l85 14q1 -5 1 -10.5v-10.5q0 -88 -58.5 -149t-133.5 -61q-42 0 -65 18.5t-34 40.5q-5 10 -8 19.5t-5 17.5l-53 -33l22 68v0zM174 239q27 15 48.5 30t40.5 29q14 11 27 22.5t26 22.5q15 14 31 28.5t33 29.5
q5 4 10.5 8.5t10.5 10.5q13 11 24 26.5t11 36.5v3.5v2.5v2.5v3.5q-1 6 -5 11.5t-14 5.5t-22.5 -6t-25.5 -15q-9 -6 -17.5 -13t-16.5 -15q-9 -8 -17 -16t-14 -15q-20 -21 -35 -39.5t-28 -35.5q-11 -15 -20.5 -30.5t-19.5 -32.5l-13 -26t-14 -29v0z" />
    <glyph glyph-name="quotedbl" unicode="&#x432;" horiz-adv-x="371" 
d="M23 131l31 23q3 16 8 33t11 33q37 101 113 192t160 136q29 16 58.5 25t56.5 9q29 0 43.5 -16.5t14.5 -50.5q0 -28 -15.5 -58t-41.5 -60q-33 -39 -78.5 -77t-93.5 -72q-37 -26 -73.5 -49t-66.5 -41q-1 -2 -1.5 -5t-1.5 -7q-1 -3 -2 -7t-1 -7q-2 -9 -3 -16.5t-1 -11.5
q0 -3 1 -7.5t3 -8.5q4 -8 12.5 -15t23.5 -7q43 0 67 45t25 106l85 14q1 -5 1 -10.5v-10.5q0 -88 -58.5 -149t-133.5 -61q-42 0 -65 18.5t-34 40.5q-5 10 -8 19.5t-5 17.5l-53 -33l22 68v0zM174 239q27 15 48.5 30t40.5 29q14 11 27 22.5t26 22.5q15 14 31 28.5t33 29.5
q5 4 10.5 8.5t10.5 10.5q13 11 24 26.5t11 36.5v3.5v2.5v2.5v3.5q-1 6 -5 11.5t-14 5.5t-22.5 -6t-25.5 -15q-9 -6 -17.5 -13t-16.5 -15q-9 -8 -17 -16t-14 -15q-20 -21 -35 -39.5t-28 -35.5q-11 -15 -20.5 -30.5t-19.5 -32.5l-13 -26t-14 -29v0z" />
    <glyph glyph-name="atilde" unicode="&#xe3;" horiz-adv-x="261" 
d="M123 290l-26 43q59 35 97.5 44.5t57.5 9.5q32 0 44.5 -15t12.5 -35q0 -26 -14.5 -48t-35.5 -42q-6 -7 -12.5 -13t-13.5 -13q-69 -66 -86.5 -92t-17.5 -37v-1.5v-0.5q1 -7 6.5 -12t15.5 -5t32.5 8.5t47.5 19.5q9 5 17 9l16 8q6 4 11.5 7t10.5 6l-21 -68q-7 -5 -16.5 -10.5
t-20.5 -11.5q-14 -8 -30 -15.5t-32 -12.5q-16 -6 -32 -9.5t-30 -3.5q-38 0 -57 18t-19 43q0 22 20.5 63.5t100.5 118.5q5 4 10 9t10 9q0 1 0.5 1t0.5 1q16 14 28.5 27t12.5 21v2t-1 3q-1 1 -2.5 2t-3.5 2q-1 0 -2.5 0.5t-2.5 0.5q-2 0 -3 -0.5t-3 -0.5q-9 -1 -22.5 -7
t-47.5 -23v0z" />
    <glyph glyph-name="atilde" unicode="&#x433;" horiz-adv-x="261" 
d="M123 290l-26 43q59 35 97.5 44.5t57.5 9.5q32 0 44.5 -15t12.5 -35q0 -26 -14.5 -48t-35.5 -42q-6 -7 -12.5 -13t-13.5 -13q-69 -66 -86.5 -92t-17.5 -37v-1.5v-0.5q1 -7 6.5 -12t15.5 -5t32.5 8.5t47.5 19.5q9 5 17 9l16 8q6 4 11.5 7t10.5 6l-21 -68q-7 -5 -16.5 -10.5
t-20.5 -11.5q-14 -8 -30 -15.5t-32 -12.5q-16 -6 -32 -9.5t-30 -3.5q-38 0 -57 18t-19 43q0 22 20.5 63.5t100.5 118.5q5 4 10 9t10 9q0 1 0.5 1t0.5 1q16 14 28.5 27t12.5 21v2t-1 3q-1 1 -2.5 2t-3.5 2q-1 0 -2.5 0.5t-2.5 0.5q-2 0 -3 -0.5t-3 -0.5q-9 -1 -22.5 -7
t-47.5 -23v0z" />
    <glyph glyph-name="adieresis" unicode="&#xe4;" horiz-adv-x="449" 
d="M448 369l71 -37q-150 -270 -211.5 -399t-77.5 -166l-92 29q62 124 98 180t55 83q11 17 16.5 24.5t8.5 13.5q1 0 1.5 1l0.5 1q0 1 0.5 2t1.5 2l-4 2q-1 0 -1.5 -0.5l-1.5 -1.5q-3 -2 -6 -5l-10 -10q-59 -56 -103 -72t-67 -16q-6 0 -13 1t-15 3q-21 6 -39 24.5t-18 55.5
q0 25 10.5 53.5t29.5 58.5q35 57 92.5 107.5t119.5 71.5q16 5 32 8t31 3q23 0 41.5 -8.5t35.5 -28.5l14 20v0zM409 304q-5 11 -15 18.5t-24 7.5q-18 0 -38 -8t-41 -21q-29 -19 -56 -45.5t-47 -54.5q-18 -24 -28 -46.5t-10 -40.5q0 -14 6 -21.5t13 -10.5q2 0 3.5 -0.5
t3.5 -0.5q17 0 61 23t94 81q20 23 40 52.5t38 66.5v0z" />
    <glyph glyph-name="adieresis" unicode="&#x434;" horiz-adv-x="449" 
d="M448 369l71 -37q-150 -270 -211.5 -399t-77.5 -166l-92 29q62 124 98 180t55 83q11 17 16.5 24.5t8.5 13.5q1 0 1.5 1l0.5 1q0 1 0.5 2t1.5 2l-4 2q-1 0 -1.5 -0.5l-1.5 -1.5q-3 -2 -6 -5l-10 -10q-59 -56 -103 -72t-67 -16q-6 0 -13 1t-15 3q-21 6 -39 24.5t-18 55.5
q0 25 10.5 53.5t29.5 58.5q35 57 92.5 107.5t119.5 71.5q16 5 32 8t31 3q23 0 41.5 -8.5t35.5 -28.5l14 20v0zM409 304q-5 11 -15 18.5t-24 7.5q-18 0 -38 -8t-41 -21q-29 -19 -56 -45.5t-47 -54.5q-18 -24 -28 -46.5t-10 -40.5q0 -14 6 -21.5t13 -10.5q2 0 3.5 -0.5
t3.5 -0.5q17 0 61 23t94 81q20 23 40 52.5t38 66.5v0z" />
    <glyph glyph-name="yright" unicode="&#xe5;" horiz-adv-x="345" 
d="M22 127l22 14q22 68 78.5 126.5t119.5 90.5q27 13 53.5 20.5t50.5 7.5q40 0 59 -18.5t21 -40.5v-2.5v-2.5q0 -21 -15.5 -54.5t-71.5 -69.5q-33 -20 -82.5 -40.5t-121.5 -38.5q-1 -3 -1.5 -6t-0.5 -7q1 -17 16 -28.5t44 -11.5q21 0 52 8.5t64 23.5q15 6 29.5 14t28.5 16
l-22 -65q-19 -13 -41 -23t-44 -18q-32 -11 -63 -16.5t-54 -5.5q-40 0 -71.5 23.5t-31.5 62.5l-40 -25l22 66v0zM154 177q35 9 61.5 21t45.5 24q32 20 46.5 38t18.5 25l2 4l2 4t1.5 5t0.5 6q0 9 -4 13.5t-13 4.5q-13 0 -28.5 -7t-31.5 -19q-17 -12 -34 -29t-31 -35
q-12 -14 -21 -28.5t-15 -26.5v0z" />
    <glyph glyph-name="yright" unicode="&#x435;" horiz-adv-x="345" 
d="M22 127l22 14q22 68 78.5 126.5t119.5 90.5q27 13 53.5 20.5t50.5 7.5q40 0 59 -18.5t21 -40.5v-2.5v-2.5q0 -21 -15.5 -54.5t-71.5 -69.5q-33 -20 -82.5 -40.5t-121.5 -38.5q-1 -3 -1.5 -6t-0.5 -7q1 -17 16 -28.5t44 -11.5q21 0 52 8.5t64 23.5q15 6 29.5 14t28.5 16
l-22 -65q-19 -13 -41 -23t-44 -18q-32 -11 -63 -16.5t-54 -5.5q-40 0 -71.5 23.5t-31.5 62.5l-40 -25l22 66v0zM154 177q35 9 61.5 21t45.5 24q32 20 46.5 38t18.5 25l2 4l2 4t1.5 5t0.5 6q0 9 -4 13.5t-13 4.5q-13 0 -28.5 -7t-31.5 -19q-17 -12 -34 -29t-31 -35
q-12 -14 -21 -28.5t-15 -26.5v0z" />
    <glyph glyph-name="guilsinglright" unicode="&#xe6;" horiz-adv-x="661" 
d="M180 304l-30 44q4 3 9 6l10 6q14 8 30 15.5t32 13.5q14 5 28 8t26 3q33 0 49.5 -18t16.5 -53q0 -31 -15 -59.5t-33 -55.5l-8 -12l-8 -12l4 -1q19 14 46.5 39.5t56.5 55.5q19 21 38 43t35 44l44 -26l-58 -105q-4 -8 -8 -14.5t-7 -12.5q-4 -6 -7 -12.5t-6 -14.5l5 -1
q2 1 3 2.5t3 2.5q3 2 6 4.5t6 5.5q9 8 40 34t72 55q20 14 40.5 27t41.5 24q9 6 18.5 10.5t18.5 8.5l31 -54q-112 -60 -145.5 -113.5t-33.5 -80.5q0 -20 6 -30t15 -10q7 0 26 7.5t41 18.5q3 1 5.5 2.5t5.5 2.5q19 9 34.5 17t21.5 12l-23 -68q-1 -1 -2 -1.5t-2 -1.5
q-15 -10 -31.5 -19.5t-33.5 -17.5q-22 -10 -42.5 -16.5t-37.5 -6.5q-28 0 -48 15.5t-20 59.5q0 15 6.5 36t22.5 43q1 2 2 3.5t2 2.5q0 1 1 2.5t2 3.5l-4 3q-2 -2 -3.5 -3t-3.5 -3v0v0q-1 -1 -2 -1.5t-2 -1.5q-21 -16 -55.5 -52t-78.5 -115l-56 26l92 175l-4 2
q-6 -5 -10.5 -9.5t-9.5 -7.5q0 -1 -1 -1.5t-1 -1.5q-4 -3 -7.5 -6.5l-8.5 -8.5q-110 -109 -167 -135t-80 -26q-39 0 -59.5 26.5t-20.5 59.5q0 8 1 18t4 20l78 32q-1 -2 -2 -4.5t-2 -5.5q-3 -7 -5 -16.5t-2 -20.5q0 -17 7 -29.5t23 -12.5q5 0 9.5 1t9.5 4q18 7 34.5 24.5
t30.5 37.5q11 15 19 28.5t14 23.5q3 6 6.5 11.5t7.5 11.5q4 8 8.5 16.5t8.5 17.5q9 19 15.5 37t6.5 33q0 10 -4 15t-8 7q-3 1 -5 1.5t-4 0.5q-7 0 -19 -5.5t-25 -12.5q-1 -1 -2.5 -1.5t-2.5 -1.5q-2 -1 -3.5 -2t-3.5 -2v0v0q-3 -2 -6 -3.5l-9 -4.5v0z" />
    <glyph glyph-name="guilsinglright" unicode="&#x436;" horiz-adv-x="661" 
d="M180 304l-30 44q4 3 9 6l10 6q14 8 30 15.5t32 13.5q14 5 28 8t26 3q33 0 49.5 -18t16.5 -53q0 -31 -15 -59.5t-33 -55.5l-8 -12l-8 -12l4 -1q19 14 46.5 39.5t56.5 55.5q19 21 38 43t35 44l44 -26l-58 -105q-4 -8 -8 -14.5t-7 -12.5q-4 -6 -7 -12.5t-6 -14.5l5 -1
q2 1 3 2.5t3 2.5q3 2 6 4.5t6 5.5q9 8 40 34t72 55q20 14 40.5 27t41.5 24q9 6 18.5 10.5t18.5 8.5l31 -54q-112 -60 -145.5 -113.5t-33.5 -80.5q0 -20 6 -30t15 -10q7 0 26 7.5t41 18.5q3 1 5.5 2.5t5.5 2.5q19 9 34.5 17t21.5 12l-23 -68q-1 -1 -2 -1.5t-2 -1.5
q-15 -10 -31.5 -19.5t-33.5 -17.5q-22 -10 -42.5 -16.5t-37.5 -6.5q-28 0 -48 15.5t-20 59.5q0 15 6.5 36t22.5 43q1 2 2 3.5t2 2.5q0 1 1 2.5t2 3.5l-4 3q-2 -2 -3.5 -3t-3.5 -3v0v0q-1 -1 -2 -1.5t-2 -1.5q-21 -16 -55.5 -52t-78.5 -115l-56 26l92 175l-4 2
q-6 -5 -10.5 -9.5t-9.5 -7.5q0 -1 -1 -1.5t-1 -1.5q-4 -3 -7.5 -6.5l-8.5 -8.5q-110 -109 -167 -135t-80 -26q-39 0 -59.5 26.5t-20.5 59.5q0 8 1 18t4 20l78 32q-1 -2 -2 -4.5t-2 -5.5q-3 -7 -5 -16.5t-2 -20.5q0 -17 7 -29.5t23 -12.5q5 0 9.5 1t9.5 4q18 7 34.5 24.5
t30.5 37.5q11 15 19 28.5t14 23.5q3 6 6.5 11.5t7.5 11.5q4 8 8.5 16.5t8.5 17.5q9 19 15.5 37t6.5 33q0 10 -4 15t-8 7q-3 1 -5 1.5t-4 0.5q-7 0 -19 -5.5t-25 -12.5q-1 -1 -2.5 -1.5t-2.5 -1.5q-2 -1 -3.5 -2t-3.5 -2v0v0q-3 -2 -6 -3.5l-9 -4.5v0z" />
    <glyph glyph-name="florin" unicode="&#xe7;" horiz-adv-x="330" 
d="M152 281l-33 40l1.5 1.5l1.5 1.5q24 21 55 40t64 28q12 4 24 6t24 2q41 0 62 -21.5t21 -50.5q0 -36 -29 -64.5t-64 -44.5q-12 -5 -23.5 -9t-22.5 -6v-4h6h0.5h1.5q6 0 14.5 -0.5t17.5 -2.5q15 -3 28 -15t13 -39q0 -48 -47.5 -86t-104.5 -51q-12 -3 -24 -4.5t-23 -1.5
q-7 0 -14.5 0.5t-14.5 1.5q-32 6 -59 25t-27 59q0 4 0.5 14.5t4.5 23.5l77 32q0 -2 -1 -7l-2 -10v-1.5v-1.5q-1 -6 -2 -11.5t-1 -8.5q0 -4 1 -10.5t4 -13.5q4 -11 15.5 -20t33.5 -9q7 0 16 2.5t18 6.5q22 11 40.5 32t18.5 45v2v2q-1 8 -7.5 14t-26.5 6q-2 0 -3.5 -0.5
t-3.5 -0.5q-4 0 -8.5 -0.5t-9.5 -1.5l-12 48q3 1 6.5 2t6.5 3q46 16 84 39t38 57v2.5t-1 2.5q-2 5 -7 8.5t-17 3.5q-5 0 -10 -1t-10 -3q-6 -2 -11 -4t-10 -5q-2 -1 -3.5 -1.5t-3.5 -1.5q-1 -1 -2.5 -1.5t-2.5 -1.5q-10 -5 -22 -12.5t-35 -23.5v0z" />
    <glyph glyph-name="florin" unicode="&#x437;" horiz-adv-x="330" 
d="M152 281l-33 40l1.5 1.5l1.5 1.5q24 21 55 40t64 28q12 4 24 6t24 2q41 0 62 -21.5t21 -50.5q0 -36 -29 -64.5t-64 -44.5q-12 -5 -23.5 -9t-22.5 -6v-4h6h0.5h1.5q6 0 14.5 -0.5t17.5 -2.5q15 -3 28 -15t13 -39q0 -48 -47.5 -86t-104.5 -51q-12 -3 -24 -4.5t-23 -1.5
q-7 0 -14.5 0.5t-14.5 1.5q-32 6 -59 25t-27 59q0 4 0.5 14.5t4.5 23.5l77 32q0 -2 -1 -7l-2 -10v-1.5v-1.5q-1 -6 -2 -11.5t-1 -8.5q0 -4 1 -10.5t4 -13.5q4 -11 15.5 -20t33.5 -9q7 0 16 2.5t18 6.5q22 11 40.5 32t18.5 45v2v2q-1 8 -7.5 14t-26.5 6q-2 0 -3.5 -0.5
t-3.5 -0.5q-4 0 -8.5 -0.5t-9.5 -1.5l-12 48q3 1 6.5 2t6.5 3q46 16 84 39t38 57v2.5t-1 2.5q-2 5 -7 8.5t-17 3.5q-5 0 -10 -1t-10 -3q-6 -2 -11 -4t-10 -5q-2 -1 -3.5 -1.5t-3.5 -1.5q-1 -1 -2.5 -1.5t-2.5 -1.5q-10 -5 -22 -12.5t-35 -23.5v0z" />
    <glyph glyph-name="comma" unicode="&#xe8;" 
d="M398 361l67 -34l-107 -203q-4 -7 -5 -12t-1 -8q0 -1 0.5 -3t1.5 -4q1 -4 4 -6.5t9 -2.5q9 0 20 5.5l25 12.5l4 2t4 3q1 0 2 0.5t2 1.5q7 3 15.5 7.5t22.5 10.5l-22 -68q-8 -5 -20.5 -12t-26.5 -14q-6 -4 -12 -7t-13 -6q-21 -10 -41 -17t-31 -7q-3 0 -6.5 0.5t-6.5 1.5
q-10 3 -19.5 11.5t-11.5 25.5q-1 2 -1 4.5v5.5v2t1 2v2v2q2 20 16 45t39 61l-4 5q-5 -4 -9.5 -8t-7.5 -7l-2 -2l-1 -1l-10.5 -10.5l-12.5 -12.5q-94 -94 -135.5 -110.5t-52.5 -16.5q-3 0 -8.5 1t-11.5 4q-9 4 -16.5 15t-7.5 31q0 28 30.5 91.5t136.5 261.5l68 -35l-117 -221
l-5.5 -11t-3.5 -10v-1.5v-0.5v-1.5v-1.5q0 -5 2 -7.5t4 -3.5t3 -1h2q11 0 28.5 12.5t65.5 57.5q7 7 14.5 13.5t14.5 13.5q34 32 65.5 67.5t61.5 86.5v0z" />
    <glyph glyph-name="comma" unicode="&#x438;" 
d="M398 361l67 -34l-107 -203q-4 -7 -5 -12t-1 -8q0 -1 0.5 -3t1.5 -4q1 -4 4 -6.5t9 -2.5q9 0 20 5.5l25 12.5l4 2t4 3q1 0 2 0.5t2 1.5q7 3 15.5 7.5t22.5 10.5l-22 -68q-8 -5 -20.5 -12t-26.5 -14q-6 -4 -12 -7t-13 -6q-21 -10 -41 -17t-31 -7q-3 0 -6.5 0.5t-6.5 1.5
q-10 3 -19.5 11.5t-11.5 25.5q-1 2 -1 4.5v5.5v2t1 2v2v2q2 20 16 45t39 61l-4 5q-5 -4 -9.5 -8t-7.5 -7l-2 -2l-1 -1l-10.5 -10.5l-12.5 -12.5q-94 -94 -135.5 -110.5t-52.5 -16.5q-3 0 -8.5 1t-11.5 4q-9 4 -16.5 15t-7.5 31q0 28 30.5 91.5t136.5 261.5l68 -35l-117 -221
l-5.5 -11t-3.5 -10v-1.5v-0.5v-1.5v-1.5q0 -5 2 -7.5t4 -3.5t3 -1h2q11 0 28.5 12.5t65.5 57.5q7 7 14.5 13.5t14.5 13.5q34 32 65.5 67.5t61.5 86.5v0z" />
    <glyph glyph-name="L" unicode="&#xe9;" 
d="M398 361l67 -34l-107 -203q-4 -7 -5 -12t-1 -8q0 -1 0.5 -3t1.5 -4q1 -4 4 -6.5t9 -2.5q9 0 20 5.5l25 12.5l4 2t4 3q1 0 2 0.5t2 1.5q7 3 15.5 7.5t22.5 10.5l-22 -68q-8 -5 -20.5 -12t-26.5 -14q-6 -4 -12 -7t-13 -6q-21 -10 -41 -17t-31 -7q-3 0 -6.5 0.5t-6.5 1.5
q-10 3 -19.5 11.5t-11.5 25.5q-1 2 -1 4.5v5.5v2t1 2v2v2q2 20 16 45t39 61l-4 5q-5 -4 -9.5 -8t-7.5 -7l-2 -2l-1 -1l-10.5 -10.5l-12.5 -12.5q-94 -94 -135.5 -110.5t-52.5 -16.5q-3 0 -8.5 1t-11.5 4q-9 4 -16.5 15t-7.5 31q0 28 30.5 91.5t136.5 261.5l68 -35l-117 -221
l-5.5 -11t-3.5 -10v-1.5v-0.5v-1.5v-1.5q0 -5 2 -7.5t4 -3.5t3 -1h2q11 0 28.5 12.5t65.5 57.5q7 7 14.5 13.5t14.5 13.5q34 32 65.5 67.5t61.5 86.5v0zM270 590l82 4q0 -6 0.5 -13.5t3.5 -15.5q4 -15 15.5 -27t35.5 -12q3 0 6 0.5t5 0.5q20 4 39.5 18t34.5 30q7 8 13.5 15
t11.5 13l40 -32l-4 -4t-4 -3v-0.5v-0.5l-6 -6t-7 -8q-6 -6 -12.5 -13t-14.5 -15q-22 -19 -54.5 -35.5t-78.5 -16.5q-48 0 -70.5 22t-30.5 48q-3 10 -4 20.5t-1 19.5v6v5v0z" />
    <glyph glyph-name="L" unicode="&#x439;" 
d="M398 361l67 -34l-107 -203q-4 -7 -5 -12t-1 -8q0 -1 0.5 -3t1.5 -4q1 -4 4 -6.5t9 -2.5q9 0 20 5.5l25 12.5l4 2t4 3q1 0 2 0.5t2 1.5q7 3 15.5 7.5t22.5 10.5l-22 -68q-8 -5 -20.5 -12t-26.5 -14q-6 -4 -12 -7t-13 -6q-21 -10 -41 -17t-31 -7q-3 0 -6.5 0.5t-6.5 1.5
q-10 3 -19.5 11.5t-11.5 25.5q-1 2 -1 4.5v5.5v2t1 2v2v2q2 20 16 45t39 61l-4 5q-5 -4 -9.5 -8t-7.5 -7l-2 -2l-1 -1l-10.5 -10.5l-12.5 -12.5q-94 -94 -135.5 -110.5t-52.5 -16.5q-3 0 -8.5 1t-11.5 4q-9 4 -16.5 15t-7.5 31q0 28 30.5 91.5t136.5 261.5l68 -35l-117 -221
l-5.5 -11t-3.5 -10v-1.5v-0.5v-1.5v-1.5q0 -5 2 -7.5t4 -3.5t3 -1h2q11 0 28.5 12.5t65.5 57.5q7 7 14.5 13.5t14.5 13.5q34 32 65.5 67.5t61.5 86.5v0zM270 590l82 4q0 -6 0.5 -13.5t3.5 -15.5q4 -15 15.5 -27t35.5 -12q3 0 6 0.5t5 0.5q20 4 39.5 18t34.5 30q7 8 13.5 15
t11.5 13l40 -32l-4 -4t-4 -3v-0.5v-0.5l-6 -6t-7 -8q-6 -6 -12.5 -13t-14.5 -15q-22 -19 -54.5 -35.5t-78.5 -16.5q-48 0 -70.5 22t-30.5 48q-3 10 -4 20.5t-1 19.5v6v5v0z" />
    <glyph glyph-name="asterisk" unicode="&#xea;" horiz-adv-x="422" 
d="M198 395l67 -40l-111 -196l5 -2q6 6 11 10.5t10 8.5q0 1 0.5 1.5l1.5 1.5l9 9l11 11q35 36 89.5 84t151.5 105l35 -65q-92 -43 -137.5 -75t-65.5 -49q-2 -1 -3.5 -2.5l-2.5 -2.5q-2 -1 -3.5 -2.5l-2.5 -2.5l-4 -4t-4 -5l1 -5q3 1 5.5 1.5t4.5 0.5q3 1 6.5 1h7.5
q15 0 21 -9t7 -19v-3.5v-3.5q0 -6 -2.5 -11.5t-4.5 -10.5q-1 -1 -1 -1.5v-0.5q-2 -2 -3 -4.5t-2 -4.5l-4 -12t-3 -12v-2v-2v-2v-2v-3.5t1 -5.5q2 -4 5 -7.5t10 -3.5q10 0 30.5 8.5t42.5 20.5q7 3 13 6.5t13 7.5q14 8 25.5 16t19.5 14l-22 -68q-64 -56 -106.5 -66t-62.5 -10
q-26 0 -38.5 11.5t-16.5 26.5q-2 6 -2.5 11.5t-0.5 10.5q0 4 1 10l2 12q1 7 3 13.5t4 10.5q4 8 6 11t3 5q0 1 0.5 2t0.5 3q0 1 0.5 2.5t0.5 3.5v0.5v1.5v1.5v0.5q-1 2 -2.5 3.5t-3.5 1.5q0 1 -0.5 1h-1.5q-9 0 -30.5 -20t-45.5 -47q-5 -6 -9.5 -11t-8.5 -10
q-11 -13 -21.5 -26t-18.5 -23l-72 20l192 382v0z" />
    <glyph glyph-name="asterisk" unicode="&#x43a;" horiz-adv-x="422" 
d="M198 395l67 -40l-111 -196l5 -2q6 6 11 10.5t10 8.5q0 1 0.5 1.5l1.5 1.5l9 9l11 11q35 36 89.5 84t151.5 105l35 -65q-92 -43 -137.5 -75t-65.5 -49q-2 -1 -3.5 -2.5l-2.5 -2.5q-2 -1 -3.5 -2.5l-2.5 -2.5l-4 -4t-4 -5l1 -5q3 1 5.5 1.5t4.5 0.5q3 1 6.5 1h7.5
q15 0 21 -9t7 -19v-3.5v-3.5q0 -6 -2.5 -11.5t-4.5 -10.5q-1 -1 -1 -1.5v-0.5q-2 -2 -3 -4.5t-2 -4.5l-4 -12t-3 -12v-2v-2v-2v-2v-3.5t1 -5.5q2 -4 5 -7.5t10 -3.5q10 0 30.5 8.5t42.5 20.5q7 3 13 6.5t13 7.5q14 8 25.5 16t19.5 14l-22 -68q-64 -56 -106.5 -66t-62.5 -10
q-26 0 -38.5 11.5t-16.5 26.5q-2 6 -2.5 11.5t-0.5 10.5q0 4 1 10l2 12q1 7 3 13.5t4 10.5q4 8 6 11t3 5q0 1 0.5 2t0.5 3q0 1 0.5 2.5t0.5 3.5v0.5v1.5v1.5v0.5q-1 2 -2.5 3.5t-3.5 1.5q0 1 -0.5 1h-1.5q-9 0 -30.5 -20t-45.5 -47q-5 -6 -9.5 -11t-8.5 -10
q-11 -13 -21.5 -26t-18.5 -23l-72 20l192 382v0z" />
    <glyph glyph-name="edieresis" unicode="&#xeb;" horiz-adv-x="403" 
d="M358 409l70 -35l-62 -129q-35 -73 -42 -99.5t-7 -32.5v-1.5v-0.5q0 -7 4.5 -12t9.5 -7q1 0 2 -0.5t2 -0.5t2.5 -0.5t2.5 -0.5t2.5 0.5t2.5 0.5h1.5t1.5 1q3 0 8 2.5t18 8.5q3 1 6 2.5t6 2.5q1 1 2 1.5t2 0.5q8 4 17 9t21 12l-22 -68q-70 -46 -96.5 -54.5t-32.5 -8.5
q-4 0 -7.5 0.5t-7.5 1.5q-15 4 -27 16.5t-12 35.5q0 10 3 22.5t7 24.5q4 10 8.5 19.5t8.5 18.5q3 7 6.5 12.5t6.5 10.5q1 2 2 3.5t2 2.5l2.5 5t4.5 8l-11 6l-1.5 -1.5t-0.5 -1.5q-51 -69 -104.5 -126.5t-111.5 -57.5q-4 0 -7.5 0.5t-7.5 0.5q-22 3 -39.5 18t-17.5 46
q0 13 1.5 23.5t4.5 17.5l77 38q0 -2 -1 -4.5t-1 -6.5q-1 -3 -2 -7.5t-1 -9.5v-2v-2q0 -13 5 -21.5t18 -8.5q23 0 71 48.5t102 117.5q17 23 34 46.5t34 47.5l22 34t21 33v0z" />
    <glyph glyph-name="edieresis" unicode="&#x43b;" horiz-adv-x="403" 
d="M358 409l70 -35l-62 -129q-35 -73 -42 -99.5t-7 -32.5v-1.5v-0.5q0 -7 4.5 -12t9.5 -7q1 0 2 -0.5t2 -0.5t2.5 -0.5t2.5 -0.5t2.5 0.5t2.5 0.5h1.5t1.5 1q3 0 8 2.5t18 8.5q3 1 6 2.5t6 2.5q1 1 2 1.5t2 0.5q8 4 17 9t21 12l-22 -68q-70 -46 -96.5 -54.5t-32.5 -8.5
q-4 0 -7.5 0.5t-7.5 1.5q-15 4 -27 16.5t-12 35.5q0 10 3 22.5t7 24.5q4 10 8.5 19.5t8.5 18.5q3 7 6.5 12.5t6.5 10.5q1 2 2 3.5t2 2.5l2.5 5t4.5 8l-11 6l-1.5 -1.5t-0.5 -1.5q-51 -69 -104.5 -126.5t-111.5 -57.5q-4 0 -7.5 0.5t-7.5 0.5q-22 3 -39.5 18t-17.5 46
q0 13 1.5 23.5t4.5 17.5l77 38q0 -2 -1 -4.5t-1 -6.5q-1 -3 -2 -7.5t-1 -9.5v-2v-2q0 -13 5 -21.5t18 -8.5q23 0 71 48.5t102 117.5q17 23 34 46.5t34 47.5l22 34t21 33v0z" />
    <glyph glyph-name="igrave" unicode="&#xec;" horiz-adv-x="591" 
d="M367 409l62 -35l-89 -178q-14 -28 -20 -41t-8 -23v-1.5v-0.5v-2.5v-3.5v-1.5v-1.5q1 -4 3 -5t4 -1q7 0 25.5 12.5t69.5 64.5q23 24 56 63t80 120l66 -35l-94 -172q-2 -4 -5 -9t-5 -11q-2 -3 -3 -5t-2 -5q-4 -9 -7 -17.5t-3 -13.5q0 -9 4.5 -14t12.5 -5t26.5 8.5
t75.5 34.5l-22 -68q-8 -5 -20.5 -12.5t-27.5 -15.5q-6 -4 -12.5 -7.5t-13.5 -6.5q-18 -9 -35.5 -15t-29.5 -6q-24 0 -37 13t-14 29v1.5v1.5q0 20 11.5 44t25.5 48q3 4 5 7.5t4 6.5l-9 7q-81 -86 -123 -124.5t-68 -38.5q-18 0 -30.5 12t-12.5 31q0 12 5.5 29.5t14.5 35.5
q3 8 7 15.5t8 15.5q6 11 11.5 21t10.5 17l-11 4q-12 -15 -27.5 -34t-33.5 -39q-21 -24 -44 -46.5t-47 -37.5q-14 -9 -28.5 -14t-28.5 -5q-5 0 -10.5 0.5t-10.5 2.5q-19 4 -34.5 18.5t-15.5 43.5v8v8l2 12t4 13l77 38q0 -2 -1 -4.5t-1 -6.5q-1 -3 -2 -7.5t-1 -9.5v-2v-2v-2.5
v-2.5q1 -9 5.5 -17t17.5 -8q11 0 35.5 16t57.5 52q10 11 20.5 22.5t20.5 22.5q32 36 62.5 74t61.5 83q8 14 17 28t18 29v0z" />
    <glyph glyph-name="igrave" unicode="&#x43c;" horiz-adv-x="591" 
d="M367 409l62 -35l-89 -178q-14 -28 -20 -41t-8 -23v-1.5v-0.5v-2.5v-3.5v-1.5v-1.5q1 -4 3 -5t4 -1q7 0 25.5 12.5t69.5 64.5q23 24 56 63t80 120l66 -35l-94 -172q-2 -4 -5 -9t-5 -11q-2 -3 -3 -5t-2 -5q-4 -9 -7 -17.5t-3 -13.5q0 -9 4.5 -14t12.5 -5t26.5 8.5
t75.5 34.5l-22 -68q-8 -5 -20.5 -12.5t-27.5 -15.5q-6 -4 -12.5 -7.5t-13.5 -6.5q-18 -9 -35.5 -15t-29.5 -6q-24 0 -37 13t-14 29v1.5v1.5q0 20 11.5 44t25.5 48q3 4 5 7.5t4 6.5l-9 7q-81 -86 -123 -124.5t-68 -38.5q-18 0 -30.5 12t-12.5 31q0 12 5.5 29.5t14.5 35.5
q3 8 7 15.5t8 15.5q6 11 11.5 21t10.5 17l-11 4q-12 -15 -27.5 -34t-33.5 -39q-21 -24 -44 -46.5t-47 -37.5q-14 -9 -28.5 -14t-28.5 -5q-5 0 -10.5 0.5t-10.5 2.5q-19 4 -34.5 18.5t-15.5 43.5v8v8l2 12t4 13l77 38q0 -2 -1 -4.5t-1 -6.5q-1 -3 -2 -7.5t-1 -9.5v-2v-2v-2.5
v-2.5q1 -9 5.5 -17t17.5 -8q11 0 35.5 16t57.5 52q10 11 20.5 22.5t20.5 22.5q32 36 62.5 74t61.5 83q8 14 17 28t18 29v0z" />
    <glyph glyph-name="ellipsis" unicode="&#xed;" horiz-adv-x="451" 
d="M202 401l69 -32l-82 -158q13 4 22.5 6t18.5 3q1 1 2 1h3q4 1 9 1.5t10 1.5q11 2 19 3l16 2q6 1 13 1.5t15 0.5h4.5h4.5l65 137l70 -30l-92 -186l-4 -8t-6 -14q0 -1 -0.5 -2.5t-1.5 -2.5q-3 -8 -5.5 -15.5t-2.5 -10.5v-3t1 -4q1 -3 4 -6t10 -3q6 0 14 2.5t17 6.5
q3 1 6 2.5l5 2.5q7 3 13 6l10 5q3 1 5 2.5t4 2.5h0.5h0.5q5 3 13 6.5t24 11.5l-20 -68q-70 -40 -102 -51.5t-43 -11.5q-25 0 -43 15.5t-18 43.5q0 13 9.5 35.5t39.5 81.5q-16 -1 -35.5 -4.5t-40.5 -8.5q-16 -4 -32 -8.5t-30 -9.5l-74 -152l-81 25l196 383v0z" />
    <glyph glyph-name="ellipsis" unicode="&#x43d;" horiz-adv-x="451" 
d="M202 401l69 -32l-82 -158q13 4 22.5 6t18.5 3q1 1 2 1h3q4 1 9 1.5t10 1.5q11 2 19 3l16 2q6 1 13 1.5t15 0.5h4.5h4.5l65 137l70 -30l-92 -186l-4 -8t-6 -14q0 -1 -0.5 -2.5t-1.5 -2.5q-3 -8 -5.5 -15.5t-2.5 -10.5v-3t1 -4q1 -3 4 -6t10 -3q6 0 14 2.5t17 6.5
q3 1 6 2.5l5 2.5q7 3 13 6l10 5q3 1 5 2.5t4 2.5h0.5h0.5q5 3 13 6.5t24 11.5l-20 -68q-70 -40 -102 -51.5t-43 -11.5q-25 0 -43 15.5t-18 43.5q0 13 9.5 35.5t39.5 81.5q-16 -1 -35.5 -4.5t-40.5 -8.5q-16 -4 -32 -8.5t-30 -9.5l-74 -152l-81 25l196 383v0z" />
    <glyph glyph-name="percent" unicode="&#xee;" horiz-adv-x="378" 
d="M338 413l16 -58q-59 -19 -104 -54.5t-73 -74.5q-21 -30 -32.5 -58.5t-11.5 -49.5q0 -25 10 -37t23 -15q2 0 5 -0.5t6 -0.5q10 0 20 3t20 10q37 21 67 73.5t30 124.5q0 8 -0.5 16.5t-1.5 17.5l90 25q1 -6 2 -11.5t1 -11.5q1 -6 1 -11.5v-11.5q0 -105 -69.5 -187.5
t-153.5 -98.5l-16 -2t-16 -1q-64 0 -86.5 33.5t-22.5 74.5q0 95 86 178t210 127v0z" />
    <glyph glyph-name="percent" unicode="&#x43e;" horiz-adv-x="378" 
d="M338 413l16 -58q-59 -19 -104 -54.5t-73 -74.5q-21 -30 -32.5 -58.5t-11.5 -49.5q0 -25 10 -37t23 -15q2 0 5 -0.5t6 -0.5q10 0 20 3t20 10q37 21 67 73.5t30 124.5q0 8 -0.5 16.5t-1.5 17.5l90 25q1 -6 2 -11.5t1 -11.5q1 -6 1 -11.5v-11.5q0 -105 -69.5 -187.5
t-153.5 -98.5l-16 -2t-16 -1q-64 0 -86.5 33.5t-22.5 74.5q0 95 86 178t210 127v0z" />
    <glyph glyph-name="C" unicode="&#xef;" horiz-adv-x="441" 
d="M196 400l65 -32l-84 -167l7 -6q6 7 13 14.5t14 14.5q12 13 24 25.5t24 24.5q37 35 71 59.5t58 24.5q23 0 39 -17.5t16 -45.5q0 -14 -7.5 -31.5t-18.5 -36.5l-6 -10l-6 -10q-7 -12 -14 -23.5t-12 -20.5q-2 -3 -4.5 -8l-5.5 -11q-2 -3 -3 -5t-2 -5q-3 -7 -5.5 -14t-2.5 -12
t3 -9t9 -4q9 0 29 8t69 28l-21 -68q-68 -39 -95 -51t-42 -12h-3.5h-3.5q-17 3 -31.5 16t-14.5 38q0 14 11 46t51 103q1 2 3 5t3 6q2 2 3 5t3 6q2 5 4 11t2 10q0 3 -1 5t-3 3q0 1 -0.5 1.5t-1.5 0.5q-1 1 -2 0.5t-2 -0.5h-0.5h-1.5q-2 0 -3.5 -0.5t-3.5 -0.5
q-10 -3 -25.5 -17t-59.5 -61q-12 -12 -20 -21t-16 -17q0 -1 -1 -1.5t-2 -1.5q-9 -10 -19 -22t-25 -31q-1 -2 -2.5 -3.5l-3.5 -3.5v-0.5v-0.5q-11 -13 -25 -30t-44 -49l-67 21l190 383v0z" />
    <glyph glyph-name="C" unicode="&#x43f;" horiz-adv-x="441" 
d="M196 400l65 -32l-84 -167l7 -6q6 7 13 14.5t14 14.5q12 13 24 25.5t24 24.5q37 35 71 59.5t58 24.5q23 0 39 -17.5t16 -45.5q0 -14 -7.5 -31.5t-18.5 -36.5l-6 -10l-6 -10q-7 -12 -14 -23.5t-12 -20.5q-2 -3 -4.5 -8l-5.5 -11q-2 -3 -3 -5t-2 -5q-3 -7 -5.5 -14t-2.5 -12
t3 -9t9 -4q9 0 29 8t69 28l-21 -68q-68 -39 -95 -51t-42 -12h-3.5h-3.5q-17 3 -31.5 16t-14.5 38q0 14 11 46t51 103q1 2 3 5t3 6q2 2 3 5t3 6q2 5 4 11t2 10q0 3 -1 5t-3 3q0 1 -0.5 1.5t-1.5 0.5q-1 1 -2 0.5t-2 -0.5h-0.5h-1.5q-2 0 -3.5 -0.5t-3.5 -0.5
q-10 -3 -25.5 -17t-59.5 -61q-12 -12 -20 -21t-16 -17q0 -1 -1 -1.5t-2 -1.5q-9 -10 -19 -22t-25 -31q-1 -2 -2.5 -3.5l-3.5 -3.5v-0.5v-0.5q-11 -13 -25 -30t-44 -49l-67 21l190 383v0z" />
    <glyph glyph-name="exclam" unicode="&#xf0;" horiz-adv-x="421" 
d="M235 506l66 -32l-138 -266l10 -6q84 85 128 117.5t73 32.5q21 0 33.5 -14t14.5 -31q1 -2 1 -4.5v-4.5q0 -18 -8 -37.5t-19 -40.5q-29 -58 -45 -81t-16 -37q0 -4 2 -7t5 -5q1 0 2.5 -0.5t2.5 -0.5q7 0 23 6.5t34 15.5q1 0 2 1t2 1q11 5 20.5 10t17.5 8l-22 -68
q-8 -5 -19 -12t-24 -14q-8 -5 -16 -9l-16 -8q-18 -9 -35 -14.5t-30 -5.5q-26 0 -37.5 12t-13.5 27q-1 2 -1 4.5v4.5q0 17 8 41t32 64q24 41 34.5 56.5t11.5 24.5v2v2v2v2v2.5t-1 2.5q-1 3 -4 5t-11 2q-9 0 -22.5 -6.5t-27.5 -20.5q-12 -11 -23 -22.5t-21 -22.5
q-53 -59 -88 -120t-67 -131q-17 -38 -34.5 -79.5t-36.5 -88.5l-73 17q23 59 89 220t155 344q20 41 40.5 81.5t41.5 80.5v0z" />
    <glyph glyph-name="exclam" unicode="&#x440;" horiz-adv-x="421" 
d="M235 506l66 -32l-138 -266l10 -6q84 85 128 117.5t73 32.5q21 0 33.5 -14t14.5 -31q1 -2 1 -4.5v-4.5q0 -18 -8 -37.5t-19 -40.5q-29 -58 -45 -81t-16 -37q0 -4 2 -7t5 -5q1 0 2.5 -0.5t2.5 -0.5q7 0 23 6.5t34 15.5q1 0 2 1t2 1q11 5 20.5 10t17.5 8l-22 -68
q-8 -5 -19 -12t-24 -14q-8 -5 -16 -9l-16 -8q-18 -9 -35 -14.5t-30 -5.5q-26 0 -37.5 12t-13.5 27q-1 2 -1 4.5v4.5q0 17 8 41t32 64q24 41 34.5 56.5t11.5 24.5v2v2v2v2v2.5t-1 2.5q-1 3 -4 5t-11 2q-9 0 -22.5 -6.5t-27.5 -20.5q-12 -11 -23 -22.5t-21 -22.5
q-53 -59 -88 -120t-67 -131q-17 -38 -34.5 -79.5t-36.5 -88.5l-73 17q23 59 89 220t155 344q20 41 40.5 81.5t41.5 80.5v0z" />
    <glyph glyph-name="ntilde" unicode="&#xf1;" horiz-adv-x="351" 
d="M374 236l-64 38l2.5 5l3.5 7l1.5 3l1.5 3q2 5 3.5 9.5t1.5 7.5q0 6 -5.5 10.5t-15.5 4.5q-13 0 -31 -11t-36 -30q-20 -20 -38.5 -45.5t-32.5 -52.5q-10 -21 -16 -41t-6 -37q0 -15 6.5 -22.5t14.5 -10.5q6 -3 11.5 -3.5t8.5 -0.5q13 0 51 8t139 53l-22 -68
q-73 -33 -121 -48t-91 -15q-44 0 -71 22t-27 73q0 19 5 39t14 41q27 61 84 117t120 84q22 9 43 14t41 5q33 0 48.5 -18t18.5 -39q1 -5 1.5 -9.5t0.5 -8.5q0 -3 -0.5 -6t-0.5 -6q-4 -19 -14.5 -36.5t-23.5 -30.5l-2.5 -2.5l-2.5 -2.5v0z" />
    <glyph glyph-name="ntilde" unicode="&#x441;" horiz-adv-x="351" 
d="M374 236l-64 38l2.5 5l3.5 7l1.5 3l1.5 3q2 5 3.5 9.5t1.5 7.5q0 6 -5.5 10.5t-15.5 4.5q-13 0 -31 -11t-36 -30q-20 -20 -38.5 -45.5t-32.5 -52.5q-10 -21 -16 -41t-6 -37q0 -15 6.5 -22.5t14.5 -10.5q6 -3 11.5 -3.5t8.5 -0.5q13 0 51 8t139 53l-22 -68
q-73 -33 -121 -48t-91 -15q-44 0 -71 22t-27 73q0 19 5 39t14 41q27 61 84 117t120 84q22 9 43 14t41 5q33 0 48.5 -18t18.5 -39q1 -5 1.5 -9.5t0.5 -8.5q0 -3 -0.5 -6t-0.5 -6q-4 -19 -14.5 -36.5t-23.5 -30.5l-2.5 -2.5l-2.5 -2.5v0z" />
    <glyph glyph-name="two" unicode="&#xf2;" horiz-adv-x="628" 
d="M197 398l70 -36l-81 -149l9 -6q13 10 22.5 18.5t17.5 16.5l3.5 3.5l2.5 2.5l10.5 10.5l11.5 11.5q56 56 87.5 70.5t45.5 14.5q4 0 10 -1t13 -4q10 -4 18.5 -13t8.5 -26q0 -13 -6.5 -27.5t-15.5 -29.5q-4 -5 -8 -11l-8 -12l-6 -8t-5 -8q-1 -1 -1 -1.5t-1 -0.5
q-3 -5 -7 -10.5t-10 -11.5l10 -6q82 82 121.5 101.5t56.5 19.5q3 0 7 -0.5t8 -2.5q10 -3 18 -12t8 -25q0 -18 -9.5 -39t-30.5 -55q-22 -35 -34 -51.5t-12 -27.5q0 -4 1.5 -6t3.5 -3q1 -1 2 -1h2q2 0 22 7.5t99 40.5l-22 -68q-80 -43 -111.5 -55.5t-51.5 -12.5q-16 0 -28 6
t-17 23q-1 5 -1.5 9.5t-0.5 8.5v4t1 4q0 2 0.5 4t0.5 4q4 17 12.5 32.5t17.5 29.5q5 7 9 13.5t8 13.5q11 18 16 26.5t6 14.5v0.5v1.5q0 4 -2.5 6.5t-6.5 2.5q-13 0 -41 -24.5t-59 -56.5q-6 -6 -11 -12t-11 -12q-30 -33 -54.5 -62.5t-30.5 -37.5l-73 19l110 210q0 1 0.5 2
t0.5 2q1 1 1 2v2q0 3 -1.5 5t-3.5 2q-5 0 -18.5 -11t-48.5 -43t-74.5 -73.5t-86.5 -117.5l-74 21l191 384v0zM345 370l-34 46q143 84 253 104t159 21l-42 -92q-12 3 -28.5 5t-41.5 2q-60 0 -114 -17t-95 -38q-17 -8 -31 -16t-26 -15v0z" />
    <glyph glyph-name="two" unicode="&#x442;" horiz-adv-x="628" 
d="M197 398l70 -36l-81 -149l9 -6q13 10 22.5 18.5t17.5 16.5l3.5 3.5l2.5 2.5l10.5 10.5l11.5 11.5q56 56 87.5 70.5t45.5 14.5q4 0 10 -1t13 -4q10 -4 18.5 -13t8.5 -26q0 -13 -6.5 -27.5t-15.5 -29.5q-4 -5 -8 -11l-8 -12l-6 -8t-5 -8q-1 -1 -1 -1.5t-1 -0.5
q-3 -5 -7 -10.5t-10 -11.5l10 -6q82 82 121.5 101.5t56.5 19.5q3 0 7 -0.5t8 -2.5q10 -3 18 -12t8 -25q0 -18 -9.5 -39t-30.5 -55q-22 -35 -34 -51.5t-12 -27.5q0 -4 1.5 -6t3.5 -3q1 -1 2 -1h2q2 0 22 7.5t99 40.5l-22 -68q-80 -43 -111.5 -55.5t-51.5 -12.5q-16 0 -28 6
t-17 23q-1 5 -1.5 9.5t-0.5 8.5v4t1 4q0 2 0.5 4t0.5 4q4 17 12.5 32.5t17.5 29.5q5 7 9 13.5t8 13.5q11 18 16 26.5t6 14.5v0.5v1.5q0 4 -2.5 6.5t-6.5 2.5q-13 0 -41 -24.5t-59 -56.5q-6 -6 -11 -12t-11 -12q-30 -33 -54.5 -62.5t-30.5 -37.5l-73 19l110 210q0 1 0.5 2
t0.5 2q1 1 1 2v2q0 3 -1.5 5t-3.5 2q-5 0 -18.5 -11t-48.5 -43t-74.5 -73.5t-86.5 -117.5l-74 21l191 384v0zM345 370l-34 46q143 84 253 104t159 21l-42 -92q-12 3 -28.5 5t-41.5 2q-60 0 -114 -17t-95 -38q-17 -8 -31 -16t-26 -15v0z" />
    <glyph glyph-name="three" unicode="&#xf3;" horiz-adv-x="383" 
d="M191 409l70 -36l-92 -170q-31 -58 -36.5 -73t-5.5 -17q0 -8 3 -11t6 -3h0.5h1.5h2h2h2h2q28 4 92.5 67t136.5 180q2 4 4.5 7.5t4.5 7.5l69 -35q-24 -42 -58 -104.5t-70 -133.5q-11 -22 -21.5 -43.5t-21.5 -43.5q-29 -60 -54 -118.5t-42 -108.5l-84 17q11 38 32 85.5
t48 97.5q11 21 23 41t23 41q3 3 5 6.5t4 7.5q8 14 13.5 22.5t9.5 16.5l6 10t7 11l-7 3l-11.5 -11.5l-11.5 -11.5q-14 -14 -29 -27t-29 -26q-30 -24 -58.5 -40t-52.5 -16q-4 0 -9.5 1.5t-11.5 4.5q-9 6 -17 18.5t-8 34.5q0 7 21.5 76.5t141.5 272.5v0z" />
    <glyph glyph-name="three" unicode="&#x443;" horiz-adv-x="383" 
d="M191 409l70 -36l-92 -170q-31 -58 -36.5 -73t-5.5 -17q0 -8 3 -11t6 -3h0.5h1.5h2h2h2h2q28 4 92.5 67t136.5 180q2 4 4.5 7.5t4.5 7.5l69 -35q-24 -42 -58 -104.5t-70 -133.5q-11 -22 -21.5 -43.5t-21.5 -43.5q-29 -60 -54 -118.5t-42 -108.5l-84 17q11 38 32 85.5
t48 97.5q11 21 23 41t23 41q3 3 5 6.5t4 7.5q8 14 13.5 22.5t9.5 16.5l6 10t7 11l-7 3l-11.5 -11.5l-11.5 -11.5q-14 -14 -29 -27t-29 -26q-30 -24 -58.5 -40t-52.5 -16q-4 0 -9.5 1.5t-11.5 4.5q-9 6 -17 18.5t-8 34.5q0 7 21.5 76.5t141.5 272.5v0z" />
    <glyph glyph-name="hyphen" unicode="&#xf4;" horiz-adv-x="599" 
d="M461 486l59 -27l-82 -162l5 -3q20 15 37.5 26.5t34.5 17.5q10 3 19 5t19 2q39 0 56 -27.5t18 -60.5v-3.5v-2.5v-1.5v-1.5q-2 -94 -88 -172.5t-191 -78.5h-10.5t-10.5 1v49q58 1 102.5 36t70.5 76q15 25 23.5 48.5t8.5 39.5q0 10 -8 16.5t-21 6.5q-58 0 -109.5 -74.5
t-92.5 -163.5q-21 -43 -38 -86t-31 -76q-7 -19 -12 -31t-9 -22l-0.5 -0.5t-0.5 -1.5q-4 -9 -8.5 -20t-11.5 -28l-84 15q15 35 29 63.5t28 55.5q5 10 10 19t10 19q14 28 30 56.5t35 61.5l-5 5q-42 -39 -75.5 -50.5t-58.5 -11.5q-38 0 -52.5 25t-14.5 58q0 84 48 146.5
t106 96.5q29 16 56.5 25t49.5 9q6 0 11.5 -0.5t11.5 -2.5q14 -3 27 -11t24 -22l85 162v0zM321 227l31 56q-4 9 -12.5 14.5t-25.5 5.5q-12 0 -24 -3.5t-24 -10.5q-31 -16 -59 -46.5t-46 -62.5q-10 -17 -15.5 -33.5t-7.5 -30.5q0 -1 -0.5 -2.5t-0.5 -2.5v-2.5v-2.5v-2t1 -2v-3
v-2q0 -2 0.5 -4t1.5 -4q2 -7 7 -13t16 -6q35 0 66 29.5t55 65.5q11 16 20.5 32.5t16.5 29.5v0z" />
    </font>
</defs>
</svg>
